<ttFont>
<head>
    <!-- Most of this table will be recalculated by the compiler -->
    <tableVersion value="1.0"/>
    <fontRevision value="1.004"/>
    <checkSumAdjustment value="0xece434f2"/>
    <magicNumber value="0x5f0f3cf5"/>
    <flags value="00000000 00000011"/>
    <unitsPerEm value="1000"/>
    <created value="Fri Jul  2 22:09:08 2010"/>
    <modified value="Fri Jul  2 22:09:08 2010"/>
    <xMin value="-209"/>
    <yMin value="-250"/>
    <xMax value="1186"/>
    <yMax value="1000"/>
    <macStyle value="00000000 00000000"/>
    <lowestRecPPEM value="3"/>
    <fontDirectionHint value="2"/>
    <indexToLocFormat value="0"/>
    <glyphDataFormat value="0"/>
  </head>
          <CharString index="0">
            -94 callgsubr
            47 46 46 31 vhcurveto
            -60 6 36 -32 56 hhcurveto
            54 90 22 -45 callsubr
            -50 -15 -27 -44 -39 hhcurveto
            -28 -13 15 28 9 1 10 3 13 -100 callgsubr
            return
          </CharString>
          <CharString index="1">
            -45 callsubr
            -106 callgsubr
            return
          </CharString>
          <CharString index="2">
            1 -13 -13 1 -14 hhcurveto
            -167 -184 -127 -133 -72 38 -25 69 -85 callgsubr
            return
          </CharString>
          <CharString index="3">
            13 34 42 14 62 4 rrcurveto
            -87 -153 -60 -164 -90 vvcurveto
            -104 80 -2 54 vhcurveto
            -6 9 -8 15 32 vvcurveto
            104 55 190 75 163 vhcurveto
            44 -4 39 -9 51 -23 -77 -363 rcurveline
            86 407 rmoveto
            -39 16 -43 11 -40 8 56 112 64 93 60 32 rrcurveto
            return
          </CharString>
          <CharString index="4">
            431 656 rmoveto
            6 -18 -17 2 -17 hhcurveto
            -180 -91 -307 -162 -146 74 -55 105 262 107 307 193 31 callgsubr
            hvcurveto
            8 -10 7 39 vvcurveto
            159 135 98 153 105 23 -59 -116 -202 -108 -252 -101 -41 -17 48 68 154 84 256 91 55 vhcurveto
            return
          </CharString>
          <CharString index="5">
            -44 35 -35 44 44 36 35 44 44 -36 36 -44 -44 -35 -36 -44 vhcurveto
            return
          </CharString>
          <CharString index="6">
            511 rmoveto
            -57 -98 -55 -58 -51 -3 rrcurveto
            103 -1 -42 54 -85 hhcurveto
            -206 -65 -240 -115 -114 67 -44 93 124 99 117 187 14 hvcurveto
            62 19 57 45 49 74 rrcurveto
            return
          </CharString>
          <CharString index="7">
            -18 callgsubr
            121 -32 callgsubr
          </CharString>
          <CharString index="8">
            -26 callgsubr
            -97 callsubr
            return
          </CharString>
          <CharString index="9">
            -31 -25 -17 -30 -31 12 -25 35 5 6 1 1 6 return
          </CharString>
          <CharString index="10">
            -11 -53 rlineto
            7 -98 callgsubr
            return
          </CharString>
          <CharString index="11">
            11 -185 11 -31 -56 vvcurveto
            -70 -19 -23 -44 -38 -20 28 47 vhcurveto
            -10 5 12 -3 10 hhcurveto
            return
          </CharString>
          <CharString index="12">
            748 rmoveto
            -105 callsubr
            return
          </CharString>
          <CharString index="13">
            397 -95 callsubr
            return
          </CharString>
          <CharString index="14">
            -96 callgsubr
            -27 callsubr
            -141 hlineto
            58 -315 rlineto
            -51 -42 -66 -43 -52 hhcurveto
            -33 -10 19 25 8 1 8 2 9 hvcurveto
            -85 callsubr
            return
          </CharString>
          <CharString index="15">
            -51 callsubr
            -33 callgsubr
            50 15 27 42 36 hhcurveto
            24 12 -18 -33 hvcurveto
            return
          </CharString>
          <CharString index="16">
            26 22 21 24 29 -18 13 -34 -35 -37 -36 -59 -61 20 -72 119 return
          </CharString>
          <CharString index="17">
            41 callgsubr
            47 42 vhcurveto
            -12 -54 rlineto
            -75 callgsubr
            -360 -639 -84 callsubr
            return
          </CharString>
          <CharString index="18">
            9 1 10 3 13 hvcurveto
            return
          </CharString>
          <CharString index="19">
            -5 -24 -38 callsubr
            -84 -31 callgsubr
            42 57 13 82 50 vhcurveto
            -59 7 36 -36 55 hhcurveto
            54 52 31 72 5 hvcurveto
            -3 -9 -5 -3 -19 2 callsubr
            -144 hlineto
            12 callsubr
            return
          </CharString>
          <CharString index="20">
            -23 -7 21 23 8 1 9 2 8 hvcurveto
            -85 callsubr
            return
          </CharString>
          <CharString index="21">
            -31 callgsubr
            54 99 22 -19 callgsubr
            vhcurveto
            -42 hlineto
            return
          </CharString>
          <CharString index="22">
            72 340 rlineto
            return
          </CharString>
          <CharString index="23">
            rmoveto
            40 47 26 51 19 vhcurveto
            -6 -29 11 callsubr
            -24 -30 -21 hhcurveto
            -22 -12 19 14 hvcurveto
            return
          </CharString>
          <CharString index="24">
            -28 -78 -29 -93 -42 callgsubr
            66 86 -60 callgsubr
            122 580 rlineto
            -145 hlineto
            return
          </CharString>
          <CharString index="25">
            -20 57 callsubr
            -93 55 hintmask 11110000
            315 -26 callgsubr
            -70 -327 rlineto
            -47 -15 -26 -35 -37 -57 callgsubr
            hintmask 11101000
            -90 callsubr
            return
          </CharString>
          <CharString index="26">
            149 140 108 -80 80 20 -52 callsubr
            return
          </CharString>
          <CharString index="27">
            -1 9 -13 8 51 vvcurveto
            return
          </CharString>
          <CharString index="28">
            -68 vvcurveto
            -57 31 -56 87 53 77 21 164 56 vhcurveto
            -42 hlineto
            -52 -22 -18 -36 -44 hhcurveto
            -30 -10 17 25 hvcurveto
            return
          </CharString>
          <CharString index="29">
            17 callsubr
            -386 -750 rlineto
            72 hlineto
            76 702 rmoveto
            -100 -62 -96 -118 -72 18 -42 78 96 52 130 85 73 -24 40 -58 hvcurveto
            -88 -183 rmoveto
            97 8 49 51 28 hhcurveto
            21 4 -28 -35 -101 -32 -92 -53 -22 -5 33 32 16 1 15 1 12 hvcurveto
            336 -191 rmoveto
            -100 -62 -96 -118 -72 18 -42 78 116 42 130 85 73 -34 40 -58 hvcurveto
            -93 -183 rmoveto
            97 8 43 49 28 hhcurveto
            21 7 -33 -35 -101 -29 -85 -53 -22 -5 33 32 16 1 15 1 12 hvcurveto
            return
          </CharString>
          <CharString index="30">
            -50 -15 -36 -38 -39 hhcurveto
            -44 return
          </CharString>
          <CharString index="31">
            -28 -13 9 -61 callsubr
            return
          </CharString>
          <CharString index="32">
            6 callgsubr
            hintmask 11011010
            -60 callsubr
            hintmask 10110110
            -68 callgsubr
            hintmask 11010110
            -79 callgsubr
            hintmask 11011010
            -59 callsubr
            return
          </CharString>
          <CharString index="33">
            94 -2 callgsubr
            250 -20 hstemhm
            86 110 193 111 hintmask 10101110
            407 85 -73 callgsubr
            hintmask 10011110
            -44 callgsubr
            hintmask 01101110
            -13 callsubr
            return
          </CharString>
          <CharString index="34">
            66 -10 39 -12 259 vhcurveto
            -148 -20 -54 -93 -52 -57 -49 -8 rlinecurve
            111 -5 -46 39 -66 hhcurveto
            -20 -21 -3 -25 -41 hvcurveto
            48 225 -148 -20 return
          </CharString>
          <CharString index="35">
            -64 -45 -123 -68 vvcurveto
            -57 24 -56 77 53 48 31 72 9 vhcurveto
            -4 -6 -10 -2 -17 hhcurveto
            -30 -10 17 25 hvcurveto
            return
          </CharString>
          <CharString index="36">
            10 -154 9 -31 -52 vvcurveto
            -70 -43 -23 -44 -44 -17 23 47 vhcurveto
            -10 5 12 -3 10 hhcurveto
            return
          </CharString>
          <CharString index="37">
            rlineto
            -105 callsubr
            110 56 78 93 34 vhcurveto
            return
          </CharString>
          <CharString index="38">
            rmoveto
            -20 5 -13 11 -7 vhcurveto
            -98 -10 -48 -109 -57 hhcurveto
            -36 -17 17 29 7 1 8 2 8 hvcurveto
            55 254 rlineto
            13 11 34 5 14 hhcurveto
            25 16 -23 -30 7 hvcurveto
            -8 -10 -5 -13 -18 vvcurveto
            endchar
          </CharString>
          <CharString index="39">
            -99 callsubr
            71 48 47 46 30 vhcurveto
            -58 8 36 -35 54 hhcurveto
            54 19 31 70 27 hvcurveto
            -3 -7 -6 -1 -9 hhcurveto
            -28 -13 9 28 9 1 10 3 13 -100 callgsubr
            return
          </CharString>
          <CharString index="40">
            56 48 121 81 vvcurveto
            80 -47 33 -64 return
          </CharString>
          <CharString index="41">
            -18 -8 -13 -18 -28 vvcurveto
            -20 6 -17 21 -5 vhcurveto
            -118 -16 -51 -90 -49 hhcurveto
            return
          </CharString>
          <CharString index="42">
            rmoveto
            8 18 7 21 5 23 19 88 rcurveline
            89 18 -23 -109 rlineto
            -67 -14 -27 -25 -27 hhcurveto
            -10 -24 5 28 -3 hvcurveto
            228 642 rmoveto
            -85 hlineto
            16 82 rlineto
            43 8 22 51 56 hhcurveto
            14 10 -4 -6 8 hvcurveto
            -13 -22 -12 -29 -7 -36 rrcurveto
            -464 -707 -25 callgsubr
            hintmask 01111110
            -59 -12 -27 70 callgsubr
          </CharString>
          <CharString index="43">
            hlineto
            22 107 rlineto
            67 14 32 12 22 hhcurveto
            13 43 -5 -11 26 hvcurveto
            return
          </CharString>
          <CharString index="44">
            -6 82 -82 97 111 48 206 53 -53 100 hstemhm
            24 callsubr
            155 77 256 124 hintmask 10110111
            413 -26 callgsubr
            57 -310 rlineto
            -75 -66 -98 -39 -71 hhcurveto
            -56 -44 24 75 8 0 10 1 9 hvcurveto
            121 7 110 88 116 -43 callgsubr
            -243 -109 -121 81 -42 97 112 124 56 83 80 vhcurveto
            return
          </CharString>
          <CharString index="45">
            rmoveto
            54 47 28 63 21 vhcurveto
            -13 -58 11 callsubr
            -23 -65 callgsubr
          </CharString>
          <CharString index="46">
            -24 callgsubr
            -85 callsubr
            return
          </CharString>
          <CharString index="47">
            461 180 rmoveto
            -66 -36 -88 -36 -61 hhcurveto
            -68 -27 45 56 92 72 123 107 24 hvcurveto
            return
          </CharString>
          <CharString index="48">
            -115 -28 -70 -126 -105 vvcurveto
            -94 56 -82 128 119 122 70 118 52 vhcurveto
            return
          </CharString>
          <CharString index="49">
            rlineto
            -35 callgsubr
            return
          </CharString>
          <CharString index="50">
            hhcurveto
            -87 callsubr
            return
          </CharString>
          <CharString index="51">
            -16 callgsubr
            220 hmoveto
            -92 callgsubr
            endchar
          </CharString>
          <CharString index="52">
            rmoveto
            -60 -25 -55 -36 -38 27 -32 43 62 25 40 44 43 -23 34 -49 hvcurveto
            35 -80 rmoveto
            -28 -15 -18 -31 -24 -10 15 22 25 12 31 35 32 1 -28 -19 vhcurveto
            endchar
          </CharString>
          <CharString index="53">
            -43 21 -28 45 33 23 16 39 23 -7 26 -34 -4 -4 0 -1 -5 vhcurveto
            40 44 41 46 31 vhcurveto
            2 -7 rlineto
            return
          </CharString>
          <CharString index="54">
            -5 -24 -38 callsubr
            -84 -86 callsubr
            -63 callgsubr
            72 340 rlineto
            return
          </CharString>
          <CharString index="55">
            -56 callgsubr
            145 return
          </CharString>
          <CharString index="56">
            -67 callsubr
            -31 -44 -8 -48 -42 vhcurveto
            return
          </CharString>
          <CharString index="57">
            hvcurveto
            -9 49 rlineto
            101 109 42 67 65 vvcurveto
            48 -23 39 -47 -30 -24 -16 -35 -25 12 -27 34 6 6 1 1 6 vhcurveto
            -74 callgsubr
            -36 -36 -59 -59 -64 vhcurveto
            -27 callsubr
            -264 -85 rmoveto
            -84 -68 -77 -78 -4 vhcurveto
            93 20 50 113 51 -24 callsubr
            endchar
          </CharString>
          <CharString index="58">
            38 -32 32 -41 -41 -23 -28 -38 -52 45 -67 76 -49 vhcurveto
            7 4 2 5 5 vvcurveto
            -49 70 rlineto
            6 4 6 8 5 vhcurveto
            25 15 19 20 28 vvcurveto
            return
          </CharString>
          <CharString index="59">
            14 24 2 31 vhcurveto
            return
          </CharString>
          <CharString index="60">
            64 hhcurveto
            54 95 22 -106 callsubr
            -27 callsubr
            return
          </CharString>
          <CharString index="61">
            68 -26 callgsubr
            -36 callsubr
            return
          </CharString>
          <CharString index="62">
            -19 callgsubr
            hvcurveto
            -42 hlineto
            return
          </CharString>
          <CharString index="63">
            rmoveto
            132 110 113 143 143 -110 112 -132 -132 -110 -113 -143 -142 110 -113 132 hvcurveto
            -196 255 rmoveto
            120 90 93 108 107 90 -93 -120 -120 -90 -93 -107 -108 -90 93 120 vhcurveto
            return
          </CharString>
          <CharString index="64">
            -3 -6 -8 -3 -18 hhcurveto
            return
          </CharString>
          <CharString index="65">
            rlineto
            -10 46 48 -9 46 hhcurveto
            hintmask 11011000
            78 17 3 61 14 42 rrcurveto
            hintmask 11101000
            -9 -28 -31 -3 -31 hhcurveto
            hintmask 11011000
            -63 -63 12 -40 hhcurveto
            -247 -94 -127 -133 -72 38 -25 69 -85 callgsubr
            160 53 44 77 3 vhcurveto
            -144 -668 rlineto
            return
          </CharString>
          <CharString index="66">
            -76 -25 -88 -45 -84 vvcurveto
            -65 51 -32 61 66 84 -60 callgsubr
            15 71 34 7 32 3 31 1 rlinecurve
            -53 -252 151 36 45 211 rlineto
            -2 28 30 -1 34 hhcurveto
            194 52 218 135 119 -54 39 -68 -50 -38 -18 -25 -29 hvcurveto
            return
          </CharString>
          <CharString index="67">
            27 -14 21 -30 -37 -19 -25 -18 vhcurveto
            return
          </CharString>
          <CharString index="68">
            -26 callgsubr
            -68 -321 rlineto
            -50 -15 -26 -38 -39 hhcurveto
            return
          </CharString>
          <CharString index="69">
            -3 -22 -19 vvcurveto
            return
          </CharString>
          <CharString index="70">
            -43 callgsubr
            -241 -115 return
          </CharString>
          <CharString index="71">
            -11 callgsubr
            -84 -31 callgsubr
            return
          </CharString>
          <CharString index="72">
            -23 -88 -39 -84 vvcurveto
            -65 51 -32 61 66 84 -60 callgsubr
            15 73 73 21 94 36 73 81 rlinecurve
            return
          </CharString>
          <CharString index="73">
            68 -80 hhcurveto
            -134 -71 -178 -148 -31 hvcurveto
            42 hlineto
            165 35 60 79 39 hhcurveto
            18 10 -16 -67 10 hvcurveto
            16 -112 -202 -228 rlineto
            72 hlineto
            138 168 rlineto
            hintmask 10101000
            -122 20 return
          </CharString>
          <CharString index="74">
            89 155 97 369 40 return
          </CharString>
          <CharString index="75">
            230 636 rmoveto
            -136 -636 -58 callsubr
            return
          </CharString>
          <CharString index="76">
            34 149 rlineto
            35 hlineto
            12 39 rlineto
            -38 hlineto
            50 217 -86 -11 -47 -206 rlineto
            -90 hlineto
            29 51 56 46 69 vvcurveto
            34 -31 17 -34 vhcurveto
            3 -11 1 -11 -11 vvcurveto
            -79 -64 -85 -20 -59 vhcurveto
            return
          </CharString>
          <CharString index="77">
            -107 callgsubr
            66 callgsubr
            return
          </CharString>
          <CharString index="78">
            16 91 1 148 267 133 return
          </CharString>
          <CharString index="79">
            155 200 70 callsubr
            return
          </CharString>
          <CharString index="80">
            -39 216 rlineto
            return
          </CharString>
          <CharString index="81">
            2 12 1 13 16 vvcurveto
            65 -57 43 -61 return
          </CharString>
          <CharString index="82">
            rmoveto
            -15 -14 -24 -8 -25 hhcurveto
            return
          </CharString>
          <CharString index="83">
            hhcurveto
            19 6 -16 -25 hvcurveto
            return
          </CharString>
          <CharString index="84">
            100 132 100 return
          </CharString>
          <CharString index="85">
            18 callgsubr
            -68 -240 -115 -114 67 -44 93 123 102 117 188 15 hvcurveto
            48 15 46 32 41 49 28 -155 rcurveline
            -73 -47 -75 -87 -66 vvcurveto
            return
          </CharString>
          <CharString index="86">
            rmoveto
            194 -120 -240 -96 -14 -57 304 124 11 54 -246 150 rlineto
            return
          </CharString>
          <CharString index="87">
            -4 77 -77 90 -90 159 -155 -20 35 -21 141 87 133 154 -61 61 return
          </CharString>
          <CharString index="88">
            rmoveto
            -84 -68 -77 -78 -4 vhcurveto
            95 21 50 111 50 -24 callsubr
            endchar
          </CharString>
          <CharString index="89">
            -50 -15 -26 -38 -39 -57 callsubr
            return
          </CharString>
          <CharString index="90">
            hhcurveto
            -18 -32 1 77 94 55 180 85 hvcurveto
            return
          </CharString>
          <CharString index="91">
            hstemhm
            9 118 -43 120 return
          </CharString>
          <CharString index="92">
            68 -26 callgsubr
            -68 -321 rlineto
            -5 -24 -3 -21 -19 vvcurveto
            -83 47 -38 60 42 57 13 83 50 vhcurveto
            -60 10 50 -36 55 hhcurveto
            81 79 39 95 75 hvcurveto
            return
          </CharString>
          <CharString index="93">
            rmoveto
            -4 hlineto
            48 73 159 53 121 vvcurveto
            52 -31 34 -79 -88 -32 -2 callsubr
            vhcurveto
            -16 4 -6 20 13 vvcurveto
            return
          </CharString>
          <CharString index="94">
            28 -14 30 -37 -27 -33 -16 -42 -24 11 -7 7 vhcurveto
            return
          </CharString>
          <CharString index="95">
            -79 -68 -78 -78 -5 vhcurveto
            96 21 49 110 52 hhcurveto
            18 6 -16 -28 hvcurveto
            return
          </CharString>
          <CharString index="96">
            16 75 rlineto
            -54 -461 rmoveto
            -15 -15 0 -1 -14 hvcurveto
            65 309 rlineto
            32 19 28 17 22 hhcurveto
            18 32 -6 -77 -94 -35 -180 -105 hvcurveto
            return
          </CharString>
          <CharString index="97">
            10 1 11 1 11 hvcurveto
            10 callgsubr
            90 111 vvcurveto
            53 -20 return
          </CharString>
          <CharString index="98">
            hstemhm
            243 138 -93 141 return
          </CharString>
          <CharString index="99">
            -113 62 -46 return
          </CharString>
          <CharString index="100">
            -6 79 -79 97 44 87 210 71 197 29 callgsubr
            return
          </CharString>
          <CharString index="101">
            -131 24 29 -54 73 hhcurveto
            54 95 22 -45 callsubr
            return
          </CharString>
          <CharString index="102">
            155 -140 -21 361 145 return
          </CharString>
          <CharString index="103">
            144 511 rmoveto
            -31 -98 -36 -99 -56 -99 rrcurveto
            -27 -13 -26 -34 -46 vvcurveto
            -61 44 -67 102 82 118 43 130 vhcurveto
            return
          </CharString>
          <CharString index="104">
            -8 callsubr
            93 80 72 34 114 21 return
          </CharString>
          <CharString index="105">
            -42 -37 -32 18 -17 23 14 16 6 13 15 return
          </CharString>
          <CharString index="106">
            114 540 rlineto
            return
          </CharString>
          <CharString index="107">
            27 8 16 39 17 18 -18 -26 vhcurveto
            -144 -191 -53 -118 vvcurveto
            -6 1 -6 1 -6 vhcurveto
            4 11 21 12 14 return
          </CharString>
          <CharString index="108">
            -37 -52 -18 -36 vvcurveto
            -6 2 -6 7 -5 vhcurveto
            82 57 48 88 60 vvcurveto
            44 -24 32 -44 -44 -35 -36 -44 vhcurveto
            endchar
          </CharString>
          <CharString index="109">
            hhcurveto
            -76 callsubr
            return
          </CharString>
          <CharString index="110">
            112 322 -20 hstem
            378 17 callsubr
            -69 -322 rlineto
            -145 hlineto
            -24 -112 rlineto
            146 hlineto
            return
          </CharString>
          <CharString index="111">
            23 callsubr
            vhcurveto
            return
          </CharString>
          <CharString index="112">
            56 -308 -81 -93 -67 -35 -69 -25 rlinecurve
            98 461 rlineto
            return
          </CharString>
          <CharString index="113">
            20 18 -11 -23 -9 -1 -8 -1 -10 hvcurveto
            return
          </CharString>
          <CharString index="114">
            149 140 113 -82 82 return
          </CharString>
          <CharString index="115">
            122 58 122 return
          </CharString>
          <CharString index="116">
            -571 rlineto
            -95 -29 return
          </CharString>
          <CharString index="117">
            hstem
            24 callsubr
            return
          </CharString>
          <CharString index="118">
            rlineto
            -59 -13 return
          </CharString>
          <CharString index="119">
            -68 -321 rlineto
            -18 callsubr
            return
          </CharString>
          <CharString index="120">
            -98 callgsubr
            71 48 47 46 30 vhcurveto
            return
          </CharString>
          <CharString index="121">
            51 callsubr
            -26 70 callgsubr
          </CharString>
          <CharString index="122">
            -64 -6 84 266 165 -53 53 return
          </CharString>
          <CharString index="123">
            -11 6 -9 13 -1 vhcurveto
            endchar
          </CharString>
          <CharString index="124">
            750 rmoveto
            -72 hlineto
            return
          </CharString>
          <CharString index="125">
            -36 callgsubr
            161 88 hstemhm
            -208 55 412 145 -67 48 return
          </CharString>
          <CharString index="126">
            29 -99 callgsubr
            52 39 24 31 29 vhcurveto
            return
          </CharString>
          <CharString index="127">
            -158 222 79 hstem
            237 301 rmoveto
            -200 hlineto
            -18 -79 rlineto
            201 hlineto
            endchar
          </CharString>
          <CharString index="128">
            -6 30 callgsubr
            return
          </CharString>
          <CharString index="129">
            97 -97 161 -155 -20 return
          </CharString>
          <CharString index="130">
            -66 -86 -27 -143 -30 return
          </CharString>
          <CharString index="131">
            -13 148 return
          </CharString>
          <CharString index="132">
            vvcurveto
            43 -19 48 -37 -36 -32 -15 -34 -31 12 -25 35 5 6 1 1 6 vhcurveto
            -2 -37 return
          </CharString>
          <CharString index="133">
            rlineto
            1 8 7 0 8 177 126 -227 143 hhcurveto
            54 40 61 96 10 hvcurveto
            return
          </CharString>
          <CharString index="134">
            hlineto
            17 79 rlineto
            67 14 34 15 22 hhcurveto
            6 callsubr
            return
          </CharString>
          <CharString index="135">
            -18 -7 -13 -18 -28 vvcurveto
            -26 9 -14 18 -5 vhcurveto
            -117 -16 -51 -90 -49 hhcurveto
            return
          </CharString>
          <CharString index="136">
            -58 callsubr
            68 321 rlineto
            50 15 27 return
          </CharString>
          <CharString index="137">
            -5 -25 -38 callsubr
            -82 45 -37 61 92 return
          </CharString>
          <CharString index="138">
            -21 234 -20 hstem
            76 137 return
          </CharString>
          <CharString index="139">
            -250 89 621 40 161 88 hstem
            return
          </CharString>
          <CharString index="140">
            -31 -10 17 23 9 2 10 2 10 hvcurveto
            return
          </CharString>
          <CharString index="141">
            hstemhm
            -20 7 callsubr
            return
          </CharString>
          <CharString index="142">
            -332 hmoveto
            -39 callgsubr
            return
          </CharString>
          <CharString index="143">
            55 hhcurveto
            81 79 39 95 75 hvcurveto
            -95 23 30 -39 63 hhcurveto
            54 return
          </CharString>
          <CharString index="144">
            61 535 52 callsubr
            return
          </CharString>
          <CharString index="145">
            31 -20 19 -42 -15 -18 -3 -5 -20 return
          </CharString>
          <CharString index="146">
            -229 -21 1000 -20 hstem
            return
          </CharString>
          <CharString index="147">
            210 -6 81 629 46 return
          </CharString>
          <CharString index="148">
            54 51 32 71 5 hvcurveto
            return
          </CharString>
          <CharString index="149">
            27 14 16 38 24 13 -18 -24 -38 -32 -53 -67 -16 vhcurveto
            return
          </CharString>
          <CharString index="150">
            hlineto
            18 82 rlineto
            67 15 31 12 22 hhcurveto
            20 18 -11 -23 return
          </CharString>
          <CharString index="151">
            27 123 rlineto
            128 hlineto
            23 112 rlineto
            -127 hlineto
            return
          </CharString>
          <CharString index="152">
            rmoveto
            -39 callgsubr
            return
          </CharString>
          <CharString index="153">
            2 8 hvcurveto
            -85 callsubr
            endchar
          </CharString>
          <CharString index="154">
            537 rmoveto
            -101 -477 -33 -5 -33 -6 -34 -8 rlinecurve
            return
          </CharString>
          <CharString index="155">
            0 37 254 37 46 37 256 35 48 -20 hstem
            return
          </CharString>
          <CharString index="156">
            56 callsubr
            6 93 return
          </CharString>
          <CharString index="157">
            115 540 rlineto
            return
          </CharString>
          <CharString index="158">
            rmoveto
            54 48 29 63 21 vhcurveto
            -12 -59 11 callsubr
            return
          </CharString>
          <CharString index="159">
            31 callsubr
            83 137 vstem
            return
          </CharString>
          <CharString index="160">
            4 15 2 14 11 vvcurveto
            64 -58 3 -40 -79 -43 return
          </CharString>
          <CharString index="161">
            hstemhm
            6 93 259 138 -85 85 -85 134 return
          </CharString>
          <CharString index="162">
            196 -54 54 hstemhm
            -207 55 411 144 return
          </CharString>
          <CharString index="163">
            72 callgsubr
            -20 hstem
            return
          </CharString>
          <CharString index="164">
            hstemhm
            -8 145 return
          </CharString>
          <CharString index="165">
            204 81 279 160 44 -15 43 -48 return
          </CharString>
          <CharString index="166">
            64 73 65 vhcurveto
            -97 22 30 -40 64 hhcurveto
            54 return
          </CharString>
          <CharString index="167">
            rmoveto
            32 8 -26 -11 1 hvcurveto
            -51 -237 rlineto
            return
          </CharString>
          <CharString index="168">
            hlineto
            65 290 rlineto
            -88 hlineto
            -52 -290 rlineto
            return
          </CharString>
          <CharString index="169">
            226 -44 44 hstemhm
            11 175 -93 135 return
          </CharString>
          <CharString index="170">
            -250 141 849 -20 hstem
            6 93 vstem
            return
          </CharString>
          <CharString index="171">
            -57 rmoveto
            32 9 -26 -12 hvcurveto
            return
          </CharString>
          <CharString index="172">
            -209 55 427 144 return
          </CharString>
          <CharString index="173">
            hstemhm
            -20 148 156 76 return
          </CharString>
          <CharString index="174">
            -26 -31 -50 -29 -39 hhcurveto
            -34 -26 21 62 return
          </CharString>
          <CharString index="175">
            -107 -501 rlineto
            -5 -24 -38 callsubr
            return
          </CharString>
          <CharString index="176">
            34 -34 169 110 128 -29 29 return
          </CharString>
          <CharString index="177">
            145 -54 54 return
          </CharString>
          <CharString index="178">
            97 352 62 return
          </CharString>
        <CharString name=".notdef">
          -63 endchar
        </CharString>
        <CharString name="A">
          -48 callgsubr
          292 -20 -16 callsubr
          hintmask 11101100
          535 hmoveto
          -101 callgsubr
          hintmask 11011010
          -104 callsubr
          endchar
        </CharString>
        <CharString name="A.salt">
          142 -92 -21 113 -20 386 52 333 -20 hstem
          8 120 vstem
          459 hmoveto
          157 736 rlineto
          12 -30 -26 3 -24 hhcurveto
          -238 -290 -563 -189 -106 65 -2 69 -4 hvcurveto
          -1 9 -13 -4 51 vvcurveto
          97 42 172 64 154 vhcurveto
          158 hlineto
          -77 -366 rlineto
          -59 418 rmoveto
          58 126 72 106 73 32 -56 -264 rcurveline
          endchar
        </CharString>
        <CharString name="AE">
          316 -92 -21 113 106 171 178 -110 74 -20 56 185 91 -91 111 -16 callsubr
          hintmask 1101010100000000
          760 hmoveto
          21 106 rlineto
          -224 hlineto
          51 239 rlineto
          151 hlineto
          20 74 rlineto
          -155 hlineto
          54 253 rlineto
          -15 38 36 -17 50 hhcurveto
          83 10 67 43 14 hvcurveto
          -14 -44 -38 -5 -35 hhcurveto
          hintmask 1110001010000000
          -70 -55 20 -55 hhcurveto
          -118 -130 -137 -162 -101 hvcurveto
          2 -22 -20 1 -17 hhcurveto
          hintmask 1110010100000000
          -103 -92 -54 -61 -45 28 -18 29 43 18 18 21 14 -8 17 -5 hvcurveto
          hintmask 1100110010000000
          14 36 43 12 60 4 rrcurveto
          -88 -152 -59 -163 -85 vvcurveto
          -106 65 -2 69 -4 vhcurveto
          -1 9 -13 -4 51 vvcurveto
          104 54 190 75 162 vhcurveto
          43 -3 41 -11 51 -22 -77 -363 rcurveline
          86 407 rmoveto
          -39 15 -43 11 -42 8 56 112 65 93 61 33 rrcurveto
          endchar
        </CharString>
        <CharString name="Aacute">
          -48 callgsubr
          542 -20 -16 callsubr
          hintmask 11101100
          535 hmoveto
          -101 callgsubr
          hintmask 11011010
          -104 callsubr
          -49 132 -100 callsubr
        </CharString>
        <CharString name="Acircumflex">
          -48 callgsubr
          292 61 189 -20 -16 callsubr
          hintmask 11101110
          535 hmoveto
          -101 callgsubr
          hintmask 11011101
          -104 callsubr
          165 132 rmoveto
          -60 189 rlineto
          -21 hlineto
          -212 -189 rlineto
          44 hlineto
          157 80 60 -80 rlineto
          endchar
        </CharString>
        <CharString name="Adieresis">
          -48 callgsubr
          365 122 -16 callsubr
          226 8 callsubr
          hintmask 1110110110000000
          535 hmoveto
          -101 callgsubr
          hintmask 1101101110000000
          -104 callsubr
          -105 205 rmoveto
          -105 callgsubr
          180 hmoveto
          -105 callgsubr
          endchar
        </CharString>
        <CharString name="Agrave">
          -48 callgsubr
          353 189 -16 callsubr
          hintmask 11101100
          535 hmoveto
          -101 callgsubr
          hintmask 11011010
          -104 callsubr
          -39 132 -18 callgsubr
          -29 -32 callgsubr
        </CharString>
        <CharString name="Aogonek">
          220 -193 59 -59 193 277 181 -59 59 292 -20 -16 callsubr
          157 83 hintmask 01101101
          508 5 rmoveto
          -4 -2 -4 -1 -3 -2 rrcurveto
          38 hlineto
          -101 callgsubr
          hintmask 01011011
          13 34 42 14 62 4 rrcurveto
          -87 -153 -60 -164 -90 vvcurveto
          -104 80 -2 54 vhcurveto
          -6 9 -8 15 32 vvcurveto
          104 55 190 75 163 vhcurveto
          44 -4 39 -9 51 -23 -77 -363 rcurveline
          40 hlineto
          7 5 rlineto
          39 402 rmoveto
          -39 16 -43 11 -40 8 56 112 64 93 60 32 rrcurveto
          -174 -794 rmoveto
          -35 24 -43 55 52 32 39 23 25 vhcurveto
          12 1 7 1 12 vhcurveto
          hintmask 10101101
          -13 -20 -24 -21 -24 hhcurveto
          -28 -11 28 22 hvcurveto
          hintmask 01101101
          35 27 34 26 15 vhcurveto
          -66 hlineto
          -46 -37 -24 -42 -36 vvcurveto
          endchar
        </CharString>
        <CharString name="Aring">
          -48 callgsubr
          344 35 93 33 -16 callsubr
          281 40 80 37 hintmask 1110111011000000
          535 hmoveto
          -101 callgsubr
          hintmask 1101110111000000
          -104 callsubr
          35 284 -55 callsubr
        </CharString>
        <CharString name="Atilde">
          -48 callgsubr
          361 78 -41 74 -16 callsubr
          hintmask 11101010
          535 hmoveto
          -101 callgsubr
          hintmask 11011001
          -104 callsubr
          269 241 -25 callsubr
          hintmask 11100110
          -80 callgsubr
          hintmask 11101010
          -51 callgsubr
        </CharString>
        <CharString name="B">
          187 -17 96 -79 -20 406 48 270 46 hstemhm
          6 93 362 139 -119 101 -101 119 hintmask 01111100
          -32 callsubr
          82 383 rlineto
          2 18 20 1 8 hhcurveto
          73 22 -57 -70 hvcurveto
          hintmask 10111001
          -76 -26 -104 -73 -23 -19 10 26 -25 vhcurveto
          -9 -23 -4 -19 -16 vvcurveto
          -61 56 -13 43 167 52 192 96 75 -33 69 -85 17 vhcurveto
          hintmask 10111010
          65 37 35 63 59 vvcurveto
          82 -66 77 -147 -189 -174 -127 -138 61 callgsubr
          165 133 78 117 95 37 -51 -57 -75 -64 -87 -80 vhcurveto
          -6 hlineto
          47 222 rlineto
          endchar
        </CharString>
        <CharString name="B.salt">
          185 -28 92 -64 -20 413 41 270 46 hstemhm
          6 93 350 149 -119 105 -105 119 hintmask 01111100
          -32 callsubr
          6 30 rlineto
          hintmask 10111001
          -41 39 41 -17 39 hhcurveto
          125 110 175 136 72 -32 62 -82 15 hvcurveto
          hintmask 10111010
          64 38 36 61 58 vvcurveto
          83 -74 78 -144 -183 -177 -126 -139 61 callgsubr
          152 116 91 138 101 25 -49 -53 -81 -59 -87 -83 vhcurveto
          -6 hlineto
          47 222 rlineto
          -59 -592 rmoveto
          -20 -21 8 21 -20 hvcurveto
          62 290 rlineto
          2 18 20 1 7 hhcurveto
          hintmask 10111100
          63 21 -49 -57 -96 -58 -120 -72 hvcurveto
          endchar
        </CharString>
        <CharString name="C">
          15 callgsubr
          40 callgsubr
          hintmask 10111000
          500 180 rmoveto
          -71 callgsubr
          hintmask 11011000
          -70 callgsubr
          endchar
        </CharString>
        <CharString name="Cacute">
          15 callgsubr
          250 -20 40 callgsubr
          hintmask 10111100
          500 180 rmoveto
          -71 callgsubr
          hintmask 11011100
          -70 callgsubr
          -186 641 -100 callsubr
        </CharString>
        <CharString name="Ccaron">
          15 callgsubr
          250 -20 40 callgsubr
          hintmask 10111100
          500 180 rmoveto
          -71 callgsubr
          hintmask 11011100
          -70 callgsubr
          -231 830 rmoveto
          60 -189 rlineto
          21 hlineto
          212 189 rlineto
          -44 hlineto
          -157 -80 -60 80 rlineto
          endchar
        </CharString>
        <CharString name="Ccedilla">
          49 67 callgsubr
          42 96 444 226 -47 47 hstemhm
          19 166 94 83 92 81 hintmask 1011011110000000
          362 -108 rmoveto
          38 callsubr
          vhcurveto
          21 52 89 10 118 54 48 120 rlinecurve
          -23 10 rlineto
          -71 callgsubr
          hintmask 1011101110000000
          -22 19 22 -4 16 hhcurveto
          51 19 39 53 97 -73 37 -94 -262 -87 -339 -181 -175 67 -67 139 -4 hvcurveto
          -37 -103 rlineto
          2 callgsubr
          hintmask 0111101110000000
          -20 callgsubr
          hvcurveto
          endchar
        </CharString>
        <CharString name="Ccircumflex">
          15 callgsubr
          0 61 189 -20 40 callgsubr
          hintmask 10101110
          500 180 rmoveto
          -71 callgsubr
          hintmask 11001110
          -70 callgsubr
          hintmask 10011110
          -28 641 rmoveto
          -60 189 rlineto
          -21 hlineto
          -212 -189 rlineto
          44 hlineto
          157 80 60 -80 rlineto
          endchar
        </CharString>
        <CharString name="D">
          215 -13 88 -75 -20 724 46 hstemhm
          6 93 408 138 hintmask 01111000
          -32 callsubr
          8 40 rlineto
          hintmask 10111000
          68 callgsubr
          245 230 153 -73 135 -194 -203 -169 -127 -137 -68 41 -25 66 -85 callgsubr
          152 113 91 149 87 59 -53 -136 -202 -73 -238 -119 -19 -19 6 14 -19 vhcurveto
          120 561 rlineto
          endchar
        </CharString>
        <CharString name="E">
          -4 callgsubr
          6 callgsubr
          hintmask 11010100
          -60 callsubr
          hintmask 10101100
          -68 callgsubr
          hintmask 11001100
          -79 callgsubr
          hintmask 11010100
          -59 callsubr
          endchar
        </CharString>
        <CharString name="E.salt">
          106 0 101 244 74 211 108 -70 82 hstemhm
          9 93 hintmask 11101000
          322 419 rmoveto
          49 230 -42 callsubr
          369 hlineto
          20 101 rlineto
          -224 hlineto
          53 244 rlineto
          150 hlineto
          20 74 rlineto
          endchar
        </CharString>
        <CharString name="E_x">
          349 -16 93 -93 107 362 103 -33 229 -59 59 6 callgsubr
          165 124 hintmask 1010110110000000
          455 462 rmoveto
          50 -274 rlineto
          -66 -58 -92 -45 -72 hhcurveto
          -58 -44 30 72 92 72 123 107 24 hvcurveto
          hintmask 1010101110000000
          -68 callgsubr
          hintmask 1001001110000000
          -79 callgsubr
          hintmask 0110110110000000
          -115 -28 -70 -126 -105 vvcurveto
          -124 86 -50 104 113 135 58 84 73 vhcurveto
          -93 22 30 -39 63 hhcurveto
          54 95 22 -106 callsubr
          -32 178 rlineto
          endchar
        </CharString>
        <CharString name="Eacute">
          -4 callgsubr
          248 -20 -75 callsubr
          -154 641 -100 callsubr
        </CharString>
        <CharString name="Ecircumflex">
          -4 callgsubr
          0 59 189 -20 6 callgsubr
          hintmask 11001101
          -60 callsubr
          hintmask 10101011
          -68 callgsubr
          hintmask 11001011
          -79 callgsubr
          hintmask 10011101
          -59 callsubr
          11 641 rmoveto
          -60 189 rlineto
          -21 hlineto
          -212 -189 rlineto
          44 hlineto
          157 80 60 -80 rlineto
          endchar
        </CharString>
        <CharString name="Edieresis">
          -4 callgsubr
          71 122 23 callgsubr
          -21 122 56 77 -77 124 hintmask 1101101100000000
          -60 callsubr
          hintmask 1011010100000000
          -68 callgsubr
          hintmask 1101010100000000
          -79 callgsubr
          hintmask 1101101010000000
          -59 callsubr
          -246 714 rmoveto
          -105 callgsubr
          180 hmoveto
          -105 callgsubr
          endchar
        </CharString>
        <CharString name="Egrave">
          -4 callgsubr
          59 189 -75 callsubr
          -173 641 -18 callgsubr
          -29 -32 callgsubr
        </CharString>
        <CharString name="Eogonek">
          11 -193 59 128 90 440 62 callsubr
          -7 83 112 83 hintmask 11101011
          461 180 rmoveto
          -64 -37 -44 -32 -77 55 callgsubr
          hintmask 11010101
          27 callgsubr
          hintmask 11100101
          11 callgsubr
          hintmask 11101011
          56 callgsubr
          24 26 2 5 25 vhcurveto
          -47 -37 -25 -43 -36 -54 callgsubr
          125 134 -15 46 144 hvcurveto
          endchar
        </CharString>
        <CharString name="Eth">
          215 -13 88 -75 -20 365 74 285 46 hstemhm
          6 93 408 138 hintmask 01111100
          230 636 rmoveto
          -46 -217 rlineto
          -35 hlineto
          -20 -74 rlineto
          39 hlineto
          -74 -345 rlineto
          144 -7 callgsubr
          hintmask 10111100
          68 callgsubr
          235 258 141 -57 129 -231 -167 -184 -127 -133 -72 38 -25 69 -85 callgsubr
          152 108 91 162 115 23 -71 -125 -192 -73 -241 -119 -19 -19 6 14 -19 vhcurveto
          53 250 rlineto
          75 hlineto
          20 74 rlineto
          -79 hlineto
          51 237 rlineto
          endchar
        </CharString>
        <CharString name="Euro">
          125 -6 90 200 50 65 50 75 226 -47 47 hstemhm
          82 157 271 83 hintmask 11101110
          242 334 rmoveto
          2 21 3 22 4 22 rrcurveto
          198 hlineto
          14 50 rlineto
          -202 hlineto
          133 31 64 121 85 hhcurveto
          64 5 -55 -16 -25 -19 -50 -25 -7 hvcurveto
          hintmask 11110110
          -22 19 22 -4 16 hhcurveto
          51 19 39 53 97 -81 37 -93 -188 -91 -141 -160 -37 hvcurveto
          -67 hlineto
          -14 -50 rlineto
          71 hlineto
          -3 -22 -3 -22 -2 -21 rrcurveto
          -74 hlineto
          -14 -50 rlineto
          85 -35 hlineto
          -205 117 -50 102 94 72 22 79 60 vhcurveto
          -2 29 rlineto
          -31 -40 -37 -9 -77 hhcurveto
          -108 -24 56 131 hvcurveto
          13 185 vlineto
          14 50 rlineto
          endchar
        </CharString>
        <CharString name="F">
          11 21 -21 376 74 180 108 -70 82 hstemhm
          9 93 hintmask 11101000
          329 450 rmoveto
          42 199 -42 callsubr
          144 hlineto
          81 376 rlineto
          146 hlineto
          16 74 rlineto
          endchar
        </CharString>
        <CharString name="F_i">
          278 0 91 -76 -21 382 74 144 136 -62 82 hstemhm
          9 93 349 144 hintmask 10110110
          349 450 rmoveto
          43 200 rlineto
          -22 83 45 -34 82 hhcurveto
          80 30 84 71 14 hvcurveto
          -14 -54 -48 -5 -43 hhcurveto
          hintmask 10101110
          -90 -73 20 -68 hhcurveto
          -247 -94 -127 -133 -72 38 -25 69 -85 callgsubr
          166 58 41 81 vhcurveto
          11 hlineto
          -144 -668 -58 callsubr
          81 376 rlineto
          126 hlineto
          16 74 rlineto
          52 50 rmoveto
          -11 callgsubr
          hintmask 01110110
          -84 -86 callsubr
          hintmask 10110110
          -63 callgsubr
          72 340 rlineto
          endchar
        </CharString>
        <CharString name="G">
          130 -207 50 144 81 41 83 332 226 -47 47 hstemhm
          19 154 -104 84 -84 220 175 95 hintmask 1111000110000000
          417 419 rmoveto
          -43 -190 rlineto
          -28 -21 -27 -9 -37 hhcurveto
          hintmask 1110110010000000
          -83 -33 76 89 159 112 187 110 64 5 -55 -16 -25 -19 -50 -25 -7 hvcurveto
          hintmask 1111010010000000
          -22 19 34 -4 16 hhcurveto
          51 19 39 53 97 -93 37 -93 -223 -131 -194 -191 -138 52 -118 163 9 55 5 31 58 hvcurveto
          -40 -179 rlineto
          -103 -23 -32 -20 -45 hhcurveto
          hintmask 1111001010000000
          -42 -21 33 35 37 24 39 46 20 15 -5 -21 25 hvcurveto
          hintmask 1111000110000000
          53 callsubr
          -69 -68 -69 44 -69 95 164 59 96 153 33 vhcurveto
          82 376 rlineto
          endchar
        </CharString>
        <CharString name="H">
          217 21 -21 376 74 300 -20 hstem
          12 93 vstem
          403 -95 callsubr
          106 52 76 88 37 vhcurveto
          -145 -680 -58 callsubr
          80 376 rlineto
          147 hlineto
          -80 -376 -58 callsubr
          159 748 rlineto
          -144 hlineto
          -64 -298 rlineto
          -147 hlineto
          endchar
        </CharString>
        <CharString name="I">
          -73 49 callsubr
          vstem
          -94 callsubr
          107 53 75 87 36 vhcurveto
          -145 -679 -58 callsubr
          endchar
        </CharString>
        <CharString name="IJ">
          215 -207 50 157 -20 770 -20 hstemhm
          6 93 13 84 -84 205 hintmask 11111000
          -94 callsubr
          107 53 75 87 36 vhcurveto
          -145 -679 rlineto
          34 hlineto
          -11 -20 -5 -23 -27 vvcurveto
          -79 48 -58 113 155 66 109 138 29 vhcurveto
          150 710 -150 -33 -164 -751 rlineto
          -100 -22 -30 -23 -40 hhcurveto
          -44 -27 29 39 40 29 33 36 16 17 -7 -16 16 hvcurveto
          hintmask 11110100
          4 11 3 11 11 vvcurveto
          34 -26 24 -41 6 vhcurveto
          endchar
        </CharString>
        <CharString name="Iacute">
          -73 21 -21 1000 -20 hstem
          6 93 vstem
          -94 callsubr
          107 53 75 87 36 vhcurveto
          -145 -679 -58 callsubr
          31 811 -100 callsubr
        </CharString>
        <CharString name="Icircumflex">
          -73 72 callgsubr
          61 189 -20 hstem
          6 93 vstem
          -94 callsubr
          107 53 75 87 36 vhcurveto
          -145 -679 -58 callsubr
          206 811 rmoveto
          -60 189 rlineto
          -21 hlineto
          -212 -189 rlineto
          44 hlineto
          157 80 60 -80 rlineto
          endchar
        </CharString>
        <CharString name="Idieresis">
          -73 21 -21 823 122 hstem
          6 93 68 8 callsubr
          vstem
          -94 callsubr
          107 53 75 87 36 vhcurveto
          -145 -679 -58 callsubr
          -71 884 rmoveto
          -105 callgsubr
          180 hmoveto
          -105 callgsubr
          endchar
        </CharString>
        <CharString name="Igrave">
          -73 21 -21 811 189 hstem
          6 93 vstem
          -94 callsubr
          107 53 75 87 36 vhcurveto
          -145 -679 -58 callsubr
          -8 811 -18 callgsubr
          -29 -32 callgsubr
        </CharString>
        <CharString name="J">
          88 -207 50 144 81 682 -20 hstemhm
          17 84 -84 220 -50 93 hintmask 11110100
          538 750 rmoveto
          -167 -184 -127 -133 -72 38 -25 69 -85 callgsubr
          107 54 76 87 36 vhcurveto
          -157 -714 rlineto
          -103 -23 -27 -20 -45 hhcurveto
          -29 -39 18 52 37 24 37 46 20 15 -5 -21 25 hvcurveto
          hintmask 11101000
          53 callsubr
          -66 -68 -83 53 -58 95 164 67 94 153 32 vhcurveto
          150 710 rlineto
          endchar
        </CharString>
        <CharString name="K">
          153 0 -20 24 -21 398 45 324 -20 54 callsubr
          hintmask 10111010
          -94 callsubr
          106 52 76 88 37 vhcurveto
          -145 -680 -58 callsubr
          80 377 rlineto
          2 12 12 2 9 hhcurveto
          45 15 -28 -40 hvcurveto
          hintmask 01111100
          60 callgsubr
          hintmask 10111100
          53 callgsubr
          hintmask 10111001
          63 49 108 82 vvcurveto
          61 -27 46 -97 vhcurveto
          -11 -11 -1 -13 hhcurveto
          278 320 rlineto
          -105 hlineto
          1 -164 -218 -63 -86 vhcurveto
          endchar
        </CharString>
        <CharString name="L">
          -69 63 callsubr
          397 738 rmoveto
          -105 callsubr
          107 53 75 87 36 vhcurveto
          -149 -693 26 callsubr
          -12 -29 -28 -4 -27 hhcurveto
          -127 -105 106 23 -104 hvcurveto
          endchar
        </CharString>
        <CharString name="Lslash">
          -56 63 callsubr
          663 -93 rmoveto
          -12 -29 -28 -4 -27 hhcurveto
          -128 -104 106 23 -104 hvcurveto
          84 385 127 78 4 61 -116 -69 55 263 rlineto
          -105 callsubr
          107 53 75 87 36 vhcurveto
          -66 -311 -76 -49 -2 -53 65 39 -70 -319 26 callsubr
          endchar
        </CharString>
        <CharString name="M">
          339 56 callsubr
          69 93 142 147 vstem
          699 hmoveto
          105 736 rlineto
          -144 hlineto
          -220 -527 23 527 rlineto
          9 -24 -26 5 -26 hhcurveto
          -152 -166 -138 -128 -66 42 -25 65 hvcurveto
          -1 9 -13 7 53 vvcurveto
          114 60 78 99 33 vhcurveto
          -254 -687 rlineto
          80 hlineto
          167 451 -20 -451 rlineto
          137 hlineto
          188 449 -64 -449 rlineto
          endchar
        </CharString>
        <CharString name="N">
          220 49 callsubr
          vstem
          -83 callgsubr
          endchar
        </CharString>
        <CharString name="N.salt">
          221 -14 callgsubr
          679 91 hstemhm
          6 93 308 138 -40 141 hintmask 01110100
          -94 callsubr
          100 47 74 79 38 vhcurveto
          -144 -673 rlineto
          157 hlineto
          122 573 rlineto
          44 9 40 42 35 hhcurveto
          24 37 -8 -66 hvcurveto
          hintmask 10111000
          -64 -98 -346 -79 callsubr
          hintmask 10110100
          56 101 337 81 vvcurveto
          100 -72 43 -64 -32 -47 -8 -49 -46 vhcurveto
          endchar
        </CharString>
        <CharString name="Nacute">
          254 21 -21 1000 -20 hstem
          6 93 vstem
          -83 callgsubr
          -218 63 -100 callsubr
        </CharString>
        <CharString name="Ntilde">
          238 21 -21 819 78 -41 74 hstemhm
          6 93 hintmask 11010000
          -83 callgsubr
          -11 172 -25 callsubr
          hintmask 10110000
          -80 callgsubr
          hintmask 11010000
          -51 callgsubr
        </CharString>
        <CharString name="O">
          217 -6 81 629 46 hstem
          -29 callsubr
          vstem
          -103 callsubr
          endchar
        </CharString>
        <CharString name="OE">
          398 0 75 -75 106 -91 -21 351 74 211 108 -34 46 hstemhm
          -29 callsubr
          hintmask 1001101110000000
          651 419 rmoveto
          3 26 2 25 24 vvcurveto
          68 -14 60 -31 44 vhcurveto
          -7 67 63 -29 78 hhcurveto
          hintmask 1001011110000000
          78 17 3 61 14 42 rrcurveto
          hintmask 1001101110000000
          -9 -28 -31 -3 -31 hhcurveto
          hintmask 1001011110000000
          -63 -63 12 -40 hhcurveto
          -58 -37 -7 -12 -34 hvcurveto
          12 -30 -37 7 -43 hhcurveto
          -211 -192 -133 -140 -61 38 -23 63 hvcurveto
          8 -10 7 39 vvcurveto
          159 135 98 153 105 23 -59 -116 -202 -108 -252 -101 -41 -17 48 68 154 84 256 91 55 vhcurveto
          6 -18 -17 2 -17 hhcurveto
          -180 -91 -307 -162 hvcurveto
          hintmask 0011101110000000
          -146 74 -55 105 vhcurveto
          hintmask 1001101110000000
          25 25 3 3 21 hvcurveto
          387 hlineto
          hintmask 0101101110000000
          21 106 rlineto
          -243 hlineto
          57 66 37 87 20 86 rrcurveto
          127 hlineto
          20 74 rlineto
          endchar
        </CharString>
        <CharString name="Oacute">
          40 callsubr
          250 -20 hstem
          -29 callsubr
          vstem
          -103 callsubr
          -34 155 -100 callsubr
        </CharString>
        <CharString name="Ocircumflex">
          210 -6 81 589 40 0 46 0 61 189 -20 hstemhm
          -29 callsubr
          hintmask 11011111
          431 656 rmoveto
          6 -18 -17 2 -17 hhcurveto
          -180 -91 -307 -162 -146 74 -55 105 262 107 307 193 hvcurveto
          hintmask 10101111
          31 callgsubr
          vhcurveto
          8 -10 7 39 vvcurveto
          159 135 98 153 105 23 -59 -116 -202 -108 -252 -101 -41 -17 48 68 154 84 256 91 55 vhcurveto
          hintmask 11011111
          134 155 rmoveto
          -60 189 rlineto
          -21 hlineto
          -212 -189 rlineto
          44 hlineto
          157 80 60 -80 rlineto
          endchar
        </CharString>
        <CharString name="Odieresis">
          40 callsubr
          73 122 hstemhm
          16 91 1 148 32 8 callsubr
          -67 133 hintmask 11111101
          -103 callsubr
          -143 228 rmoveto
          -105 callgsubr
          hintmask 11111110
          180 hmoveto
          -105 callgsubr
          endchar
        </CharString>
        <CharString name="Ograve">
          40 callsubr
          61 189 hstem
          -29 callsubr
          vstem
          -103 callsubr
          -80 155 -18 callgsubr
          -29 -32 callgsubr
        </CharString>
        <CharString name="Oslash">
          210 -50 -21 730 43 48 -20 hstem
          15 88 1 143 257 128 vstem
          317 -71 rmoveto
          15 70 rlineto
          212 38 88 259 166 vvcurveto
          117 -41 89 -112 26 vhcurveto
          12 56 rlineto
          -52 hlineto
          -11 -49 rlineto
          1 -8 -8 0 -8 hhcurveto
          -203 -186 -124 -132 -57 37 -21 61 hvcurveto
          7 -10 7 36 vvcurveto
          149 130 92 148 14 13 -1 -2 11 vhcurveto
          -9 -41 rlineto
          5 -15 -15 2 -15 hhcurveto
          -173 -88 -288 -151 -137 71 -52 104 hvcurveto
          -14 -65 rlineto
          -18 250 rmoveto
          141 77 233 85 57 vhcurveto
          -114 -540 rlineto
          -34 6 -14 43 60 vvcurveto
          257 316 rmoveto
          -158 -73 -191 -80 -58 vhcurveto
          115 546 rlineto
          30 -26 8 -47 -66 vvcurveto
          endchar
        </CharString>
        <CharString name="Otilde">
          40 callsubr
          69 78 -41 74 hstemhm
          -29 callsubr
          hintmask 11101110
          -103 callsubr
          238 264 -25 callsubr
          hintmask 11011110
          -80 callgsubr
          hintmask 11101110
          -51 callgsubr
        </CharString>
        <CharString name="P">
          125 21 -21 285 37 382 46 hstem
          6 93 383 111 vstem
          -32 callsubr
          61 285 rlineto
          5 hlineto
          180 109 141 127 103 -72 94 -164 -167 -184 -127 -133 -72 38 -25 69 -85 callgsubr
          152 97 91 162 88 36 -62 -74 -107 -74 -131 -101 -8 vhcurveto
          71 334 rlineto
          endchar
        </CharString>
        <CharString name="Q">
          217 -113 84 23 163 -37 37 547 46 hstemhm
          -29 callsubr
          hintmask 11011110
          431 656 rmoveto
          6 -18 -17 2 -17 hhcurveto
          -180 -91 -307 -162 -146 74 -55 105 34 31 5 9 28 hvcurveto
          -59 18 23 -62 88 hhcurveto
          43 34 17 69 26 hvcurveto
          -1 -8 -7 -1 -7 hhcurveto
          -63 -32 39 42 -30 hvcurveto
          133 99 58 202 141 vvcurveto
          31 callgsubr
          vhcurveto
          8 -10 7 39 vvcurveto
          159 135 98 153 105 23 -59 -116 -144 -55 -169 -68 -86 vhcurveto
          16 -21 -25 11 -34 hhcurveto
          -18 -20 -3 -6 -24 hvcurveto
          -2 13 0 14 16 vvcurveto
          154 84 256 91 55 vhcurveto
          -117 -581 rmoveto
          -24 -15 15 26 -9 hvcurveto
          hintmask 10111110
          3 11 9 1 9 hhcurveto
          28 17 -14 -20 12 hvcurveto
          -8 -12 -14 -3 -12 hhcurveto
          endchar
        </CharString>
        <CharString name="R">
          153 0 -20 24 -21 398 44 279 46 54 callsubr
          -66 105 hintmask 1011101000000000
          -32 callsubr
          80 377 rlineto
          2 13 11 2 9 hhcurveto
          45 15 -28 -40 hvcurveto
          hintmask 0111110000000000
          60 callgsubr
          hintmask 1011110000000000
          53 callgsubr
          hintmask 1011100100000000
          63 49 108 82 vvcurveto
          47 -16 38 -53 15 vhcurveto
          hintmask 1011100010000000
          69 41 39 69 61 vvcurveto
          82 -69 78 -158 -167 -184 -127 -133 -72 38 -25 69 vhcurveto
          -80 callsubr
          152 108 91 162 78 32 -49 -56 -76 -59 -98 -83 vhcurveto
          -8 hlineto
          49 231 rlineto
          endchar
        </CharString>
        <CharString name="S">
          122 -21 80 190 66 214 221 -47 47 hstemhm
          27 118 7 110 -110 143 62 163 -59 83 hintmask 1101110010000000
          544 630 rmoveto
          110 -114 10 -47 -129 -102 -75 -104 vhcurveto
          hintmask 1110110100000000
          -147 205 -61 -171 vvcurveto
          -84 -49 -49 -67 -64 -32 46 50 69 63 25 54 vhcurveto
          52 -3 -50 14 -35 hhcurveto
          -70 -77 -56 -108 -122 98 -50 114 145 136 82 168 hvcurveto
          hintmask 1101101010000000
          216 -225 20 147 vvcurveto
          60 37 31 55 55 19 -32 -35 -33 -18 -37 -27 -16 vhcurveto
          hintmask 1110110010000000
          -15 13 15 -6 18 hhcurveto
          50 32 43 58 hvcurveto
          endchar
        </CharString>
        <CharString name="Sacute">
          -84 callgsubr
          -186 181 -100 callsubr
        </CharString>
        <CharString name="Scaron">
          -84 callgsubr
          -246 370 rmoveto
          60 -189 rlineto
          21 hlineto
          212 189 rlineto
          -44 hlineto
          -157 -80 -60 80 rlineto
          endchar
        </CharString>
        <CharString name="T">
          33 21 -21 620 106 -64 87 hstemhm
          6 93 hintmask 11010000
          594 620 rmoveto
          80 43 40 87 2 hvcurveto
          -11 -27 -43 -10 -46 hhcurveto
          hintmask 10110000
          -98 -37 23 -121 hhcurveto
          -247 -94 -127 -133 -72 38 -25 69 -85 callgsubr
          161 82 41 106 vhcurveto
          12 hlineto
          -142 -662 -58 callsubr
          138 642 rlineto
          hintmask 11010000
          -12 54 52 -10 49 hhcurveto
          endchar
        </CharString>
        <CharString name="T_h">
          523 0 91 -76 -21 419 91 160 85 hstemhm
          6 93 610 138 -93 93 -93 141 hintmask 10111010
          99 460 rmoveto
          157 89 43 112 4 vhcurveto
          -143 -664 -58 callsubr
          141 655 46 -6 45 -8 41 -3 rlinecurve
          -137 -638 -58 callsubr
          24 133 20 107 17 87 rrcurveto
          47 15 26 39 35 hhcurveto
          24 12 -18 -33 hvcurveto
          hintmask 01111100
          -64 -45 -123 -68 vvcurveto
          -57 31 -56 87 53 77 21 164 56 vhcurveto
          -42 hlineto
          hintmask 10111100
          -52 -22 -18 -36 -44 hhcurveto
          -30 -10 17 25 hvcurveto
          hintmask 10111001
          -67 callsubr
          -32 -44 -9 -49 -43 vhcurveto
          46 228 14 29 24 44 rrcurveto
          -18 -28 -44 -6 -49 -102 -122 26 -46 hhcurveto
          -247 -105 -127 -133 -72 38 -25 69 -85 callgsubr
          endchar
        </CharString>
        <CharString name="T_i">
          296 0 91 -76 -21 587 152 -59 75 hstemhm
          6 93 370 144 hintmask 10101100
          157 hmoveto
          -35 callgsubr
          137 637 rlineto
          -29 85 58 -27 46 hhcurveto
          36 67 19 81 19 -3 22 -8 25 hvcurveto
          -11 -27 -42 -3 -46 hhcurveto
          hintmask 10011100
          -98 -118 16 -41 hhcurveto
          -247 -94 -127 -133 -72 38 -25 69 -85 callgsubr
          165 70 49 92 13 13 -1 -2 14 vhcurveto
          244 -171 rmoveto
          -11 callgsubr
          hintmask 01101100
          -84 -86 callsubr
          hintmask 10101100
          -63 callgsubr
          72 340 rlineto
          endchar
        </CharString>
        <CharString name="Thorn">
          135 21 -21 175 37 382 46 110 -20 hstem
          6 93 383 111 vstem
          250 730 rmoveto
          -25 -114 rlineto
          -119 -43 -100 -95 -98 vvcurveto
          -72 38 -25 69 vhcurveto
          -80 callsubr
          99 41 73 74 39 vhcurveto
          -120 -562 -58 callsubr
          37 175 rlineto
          29 hlineto
          180 109 141 127 99 -67 91 -152 7 hvcurveto
          24 110 rlineto
          -115 -538 rmoveto
          82 382 rlineto
          83 -3 34 -61 -72 vvcurveto
          -110 -79 -136 -106 vhcurveto
          endchar
        </CharString>
        <CharString name="U">
          268 -7 98 659 -20 hstem
          0 93 62 136 -104 callgsubr
          endchar
        </CharString>
        <CharString name="Uacute">
          271 -7 98 909 -20 hstem
          0 93 62 136 -104 callgsubr
          -310 63 -100 callsubr
        </CharString>
        <CharString name="Ucircumflex">
          271 -7 98 659 61 189 -20 hstem
          0 93 62 136 -104 callgsubr
          -105 63 rmoveto
          -60 189 rlineto
          -21 hlineto
          -212 -189 rlineto
          44 hlineto
          157 80 60 -80 rlineto
          endchar
        </CharString>
        <CharString name="Udieresis">
          271 -7 98 732 122 hstem
          0 93 62 136 82 8 callsubr
          -104 callgsubr
          -388 136 rmoveto
          -105 callgsubr
          180 hmoveto
          -105 callgsubr
          endchar
        </CharString>
        <CharString name="Ugrave">
          271 -7 98 720 189 hstem
          0 93 62 136 -104 callgsubr
          -292 63 -18 callgsubr
          -29 -32 callgsubr
        </CharString>
        <CharString name="V">
          167 49 callsubr
          157 145 vstem
          -94 callsubr
          110 48 78 109 34 vhcurveto
          -683 152 vlineto
          278 745 rlineto
          -70 hlineto
          -210 -612 rlineto
          endchar
        </CharString>
        <CharString name="W">
          514 49 callsubr
          162 140 205 141 vstem
          -94 callsubr
          110 53 78 109 34 vhcurveto
          -683 147 vlineto
          198 509 rlineto
          -509 148 vlineto
          278 745 rlineto
          -70 hlineto
          -215 -612 rlineto
          612 -131 vlineto
          -210 -612 rlineto
          endchar
        </CharString>
        <CharString name="X">
          172 49 callsubr
          vstem
          552 hmoveto
          -94 454 168 291 rlineto
          -70 hlineto
          -116 -205 -43 208 -70 callsubr
          74 -351 -188 -332 rlineto
          61 hlineto
          145 250 53 -250 rlineto
          endchar
        </CharString>
        <CharString name="Y">
          172 49 callsubr
          -78 callgsubr
          endchar
        </CharString>
        <CharString name="Yacute">
          172 21 -21 1000 -20 hstem
          6 93 -78 callgsubr
          175 811 -100 callsubr
        </CharString>
        <CharString name="Ydieresis">
          172 21 -21 823 122 hstem
          6 93 280 8 callsubr
          -78 callgsubr
          101 884 rmoveto
          -105 callgsubr
          180 hmoveto
          -105 callgsubr
          endchar
        </CharString>
        <CharString name="Z">
          94 -2 callgsubr
          hstemhm
          86 110 193 111 hintmask 10101100
          407 85 -73 callgsubr
          hintmask 10011100
          -44 callgsubr
          hintmask 01101100
          -13 callsubr
          endchar
        </CharString>
        <CharString name="Zacute">
          -74 callsubr
          -44 726 -100 callsubr
        </CharString>
        <CharString name="Zcaron">
          -74 callsubr
          -103 915 rmoveto
          60 -189 rlineto
          21 hlineto
          212 189 rlineto
          -44 hlineto
          -157 -80 -60 80 rlineto
          endchar
        </CharString>
        <CharString name="Zdotaccent">
          82 -2 callgsubr
          73 122 hstemhm
          86 110 103 122 -32 111 hintmask 10101110
          421 884 rmoveto
          33 -28 28 -33 -34 -27 -28 -33 -34 27 -27 34 33 28 27 34 vhcurveto
          -14 -799 -73 callgsubr
          hintmask 10011101
          -44 callgsubr
          hintmask 01101101
          -13 callsubr
          endchar
        </CharString>
        <CharString name="a">
          24 callgsubr
          10 callsubr
          vstem
          -107 callsubr
          endchar
        </CharString>
        <CharString name="a.end">
          19 -6 71 callsubr
          10 callsubr
          vstem
          336 -68 callsubr
          endchar
        </CharString>
        <CharString name="a_x">
          451 -50 callgsubr
          95 22 -45 callsubr
          -77 callsubr
          -8 50 38 -7 hvcurveto
          -9 50 rlineto
          98 104 45 69 65 vvcurveto
          hintmask 10111000
          -93 callsubr
          -205 64 callsubr
          -48 -226 rlineto
          -58 -12 -42 -30 -29 hhcurveto
          -18 -32 1 77 94 55 180 85 hvcurveto
          endchar
        </CharString>
        <CharString name="a_x.end">
          436 -50 callgsubr
          51 32 71 5 hvcurveto
          25 callgsubr
          hintmask 10111000
          -93 callsubr
          -205 64 callsubr
          -48 -226 rlineto
          -58 -12 -42 -30 -29 hhcurveto
          -18 -32 1 77 94 55 180 85 hvcurveto
          endchar
        </CharString>
        <CharString name="a_z">
          458 21 callsubr
          150 -62 62 hstemhm
          24 callsubr
          398 -23 callsubr
          hintmask 0010101110000000
          -94 callgsubr
          48 47 46 30 vhcurveto
          -58 8 36 -35 54 hhcurveto
          54 19 31 70 27 hvcurveto
          hintmask 0100101110000000
          -3 -7 -6 -1 -9 2 callsubr
          304 -409 rmoveto
          hintmask 1000101110000000
          -30 callsubr
          hintmask 0001101110000000
          -255 -446 rlineto
          265 hlineto
          77 45 61 46 hvcurveto
          hintmask 0010101110000000
          -40 callsubr
          hintmask 0100011110000000
          -11 6 -9 13 -1 vhcurveto
          -509 352 rmoveto
          32 9 -26 -12 hvcurveto
          -48 -226 rlineto
          -58 -12 -42 -30 -29 -17 callsubr
          endchar
        </CharString>
        <CharString name="aacute">
          24 callgsubr
          245 -20 10 callsubr
          vstem
          -107 callsubr
          -30 118 -100 callsubr
        </CharString>
        <CharString name="aacute.end">
          13 -6 71 callsubr
          245 -20 hstem
          -19 148 vstem
          330 -68 callsubr
          -21 118 -100 callsubr
        </CharString>
        <CharString name="acircumflex">
          24 callgsubr
          0 56 64 callgsubr
          hintmask 11011000
          -107 callsubr
          hintmask 10111000
          164 118 rmoveto
          -60 189 rlineto
          -21 hlineto
          -212 -189 rlineto
          44 hlineto
          157 80 60 -80 rlineto
          endchar
        </CharString>
        <CharString name="acute">
          -132 22 callgsubr
          120 561 -100 callsubr
        </CharString>
        <CharString name="adieresis">
          24 callgsubr
          68 122 10 callsubr
          45 8 callsubr
          vstem
          -107 callsubr
          -95 191 rmoveto
          -105 callgsubr
          180 hmoveto
          -105 callgsubr
          endchar
        </CharString>
        <CharString name="ae">
          202 58 callgsubr
          155 64 hstemhm
          -8 141 423 77 hintmask 00110111
          119 -6 rmoveto
          80 35 45 51 27 hvcurveto
          hintmask 10010111
          -67 19 55 -27 73 hhcurveto
          136 84 93 90 56 hvcurveto
          -34 hlineto
          -61 -55 -38 -40 -96 hhcurveto
          -36 -24 17 75 -10 callsubr
          46 -89 -54 -45 -17 -27 -36 vhcurveto
          28 -34 -46 12 -50 hhcurveto
          -56 -52 -2 -76 -74 hvcurveto
          28 -29 rlineto
          26 29 32 21 60 hhcurveto
          42 19 -31 -40 -28 -8 -32 -13 -28 hvcurveto
          hintmask 00101111
          2 -12 -16 2 -24 hhcurveto
          -126 -96 -42 -124 -106 69 -24 58 hvcurveto
          437 418 rmoveto
          hintmask 10010111
          -12 callsubr
          hintmask 01001111
          -314 -183 rmoveto
          6 5 0 -1 6 hvcurveto
          -109 -20 -27 -28 -33 hhcurveto
          -12 -34 4 46 53 44 35 65 hvcurveto
          endchar
        </CharString>
        <CharString name="agrave">
          24 callgsubr
          56 189 10 callsubr
          vstem
          -107 callsubr
          118 vmoveto
          75 hlineto
          -29 -32 callgsubr
        </CharString>
        <CharString name="ampersand">
          234 -6 90 194 97 149 62 callsubr
          188 83 hintmask 11101010
          676 413 rmoveto
          -30 -17 -41 -13 -37 -25 -23 5 -28 hhcurveto
          -103 -70 -59 -82 -20 hvcurveto
          7 -1 rlineto
          30 19 32 15 43 hhcurveto
          23 23 -4 -2 25 hvcurveto
          -146 -31 -81 -42 -69 55 callgsubr
          hintmask 11010110
          27 callgsubr
          hintmask 11100110
          11 callgsubr
          hintmask 11101010
          56 callgsubr
          98 138 6 274 76 vhcurveto
          83 14 69 69 56 vvcurveto
          endchar
        </CharString>
        <CharString name="aogonek">
          78 -193 59 128 91 358 62 10 callsubr
          154 83 vstem
          -94 callgsubr
          47 46 46 31 vhcurveto
          5 -55 31 -31 48 -5 rrcurveto
          -42 -37 -22 -39 -34 -54 callgsubr
          40 34 39 22 10 hvcurveto
          47 21 54 43 39 110 rrcurveto
          -42 hlineto
          -50 -15 -27 -44 -39 hhcurveto
          -28 -13 15 28 9 1 10 3 13 -100 callgsubr
          endchar
        </CharString>
        <CharString name="aring">
          24 callgsubr
          47 35 93 33 10 callsubr
          99 40 80 37 vstem
          -107 callsubr
          44 270 -55 callsubr
        </CharString>
        <CharString name="asciicircum">
          -27 22 callgsubr
          343 561 rmoveto
          -60 189 rlineto
          -21 hlineto
          -212 -189 rlineto
          44 hlineto
          157 80 60 -80 rlineto
          endchar
        </CharString>
        <CharString name="asciitilde">
          -17 569 78 -41 74 hstemhm
          hintmask 10000000
          444 670 -25 callsubr
          hintmask 01000000
          -80 callgsubr
          hintmask 10000000
          -51 callgsubr
        </CharString>
        <CharString name="asterisk">
          67 397 -21 376 -20 hstem
          223 64 vstem
          223 752 rmoveto
          -135 vlineto
          -107 62 -30 -52 109 -63 -109 -63 30 -52 107 62 rlineto
          -135 64 135 vlineto
          107 -62 30 52 -109 63 109 63 -30 52 -107 -62 rlineto
          135 vlineto
          endchar
        </CharString>
        <CharString name="at">
          114 -38 90 68 70 -54 54 200 42 61 64 hstemhm
          -8 110 52 65 -65 243 27 67 hintmask 1101110110000000
          195 -38 rmoveto
          125 77 48 63 16 -5 21 -18 8 hvcurveto
          -44 -33 -43 -22 -74 hhcurveto
          -98 -24 38 80 152 87 171 147 73 15 -43 -36 -56 -36 -168 -41 -8 -5 6 13 7 2 8 2 8 hvcurveto
          45 192 -55 6 -4 -16 rlineto
          9 -7 -13 9 -18 hhcurveto
          -84 -48 -175 -68 -44 20 -25 44 25 21 21 18 13 hvcurveto
          hintmask 1011111010000000
          -14 8 13 -9 23 hhcurveto
          85 85 134 130 138 -97 19 -61 -186 -155 -175 -218 -154 78 -48 125 hvcurveto
          78 254 rmoveto
          -2 -7 -1 -7 -7 vvcurveto
          -8 -12 -12 -6 -9 hhcurveto
          -11 -7 9 22 41 21 137 58 6 7 -2 -6 5 hvcurveto
          endchar
        </CharString>
        <CharString name="atilde">
          24 callgsubr
          64 78 -41 74 hstemhm
          24 callsubr
          hintmask 11101000
          -107 callsubr
          222 227 -25 callsubr
          hintmask 11011000
          -80 callgsubr
          hintmask 11101000
          -51 callgsubr
        </CharString>
        <CharString name="b">
          -4 -6 97 341 71 197 -20 hstem
          -7 143 170 101 vstem
          179 vmoveto
          -5 -21 -2 -19 -17 vvcurveto
          -80 48 -48 92 212 62 221 117 127 -48 44 -70 -20 -21 -3 -25 -41 vhcurveto
          48 225 -148 -20 rlineto
          199 -344 rmoveto
          -105 -52 -140 -65 -36 -17 17 29 7 1 8 2 8 vhcurveto
          55 254 rlineto
          13 11 34 5 14 hhcurveto
          36 17 -47 -49 hvcurveto
          endchar
        </CharString>
        <CharString name="b_s">
          351 -7 callsubr
          123 -123 145 hintmask 1011111100010000
          799 179 rmoveto
          -19 -15 -25 -19 -27 -15 rrcurveto
          2 11 1 13 13 vvcurveto
          hintmask 1011111101000000
          -73 callsubr
          -107 -501 rlineto
          -52 callgsubr
          hintmask 1011111100100000
          -96 callsubr
          hintmask 0111111011000000
          -91 callsubr
          54 59 18 50 34 hvcurveto
          43 27 49 36 47 54 rrcurveto
          -553 159 -69 callsubr
        </CharString>
        <CharString name="b_s.end">
          283 -7 callsubr
          145 hintmask 1011111101000000
          179 vmoveto
          -52 callgsubr
          hintmask 1011111100100000
          -96 callsubr
          hintmask 0111111010100000
          -64 callgsubr
          hintmask 0111111101000000
          -73 callsubr
          rlineto
          181 -342 -69 callsubr
        </CharString>
        <CharString name="b_s_x">
          696 -6 79 -79 97 44 87 210 71 -50 103 144 29 callgsubr
          123 -123 145 274 124 hintmask 1011011110001100
          795 -26 callgsubr
          36 callgsubr
          hintmask 1011011110100100
          -73 callsubr
          -107 -501 rlineto
          -52 callgsubr
          hintmask 1011011110010100
          -96 callsubr
          hintmask 1011011101100100
          -30 callgsubr
          hintmask 0110111110100100
          -106 callgsubr
          -27 callsubr
          -648 -162 rmoveto
          -20 5 -13 11 -7 vhcurveto
          -98 -10 -48 -109 -57 hhcurveto
          -36 -17 17 29 7 1 8 2 8 hvcurveto
          55 254 rlineto
          hintmask 1011011110100100
          13 11 34 5 14 hhcurveto
          25 16 -23 -30 7 hvcurveto
          -8 -10 -5 -13 -18 vvcurveto
          endchar
        </CharString>
        <CharString name="b_s_z">
          710 -6 79 -79 22 callsubr
          155 87 133 145 -68 68 -54 54 200 29 callgsubr
          145 54 -23 callsubr
          hintmask 100011001111010110000000
          179 vmoveto
          -52 callgsubr
          hintmask 100011001111001110000000
          -96 callsubr
          hintmask 010011001110101110000000
          -64 callgsubr
          hintmask 010011001111010110000000
          -73 callsubr
          rlineto
          929 -589 rmoveto
          -107 callgsubr
          hintmask 000110011111010110000000
          -102 callgsubr
          hintmask 001001001111010110000000
          -40 callsubr
          hintmask 010010101111010110000000
          -11 6 -9 13 -1 vhcurveto
          -748 247 -69 callsubr
        </CharString>
        <CharString name="backslash">
          -86 39 callsubr
          254 -250 rmoveto
          72 hlineto
          -212 1000 rlineto
          -72 hlineto
          endchar
        </CharString>
        <CharString name="bar">
          45 callgsubr
          751 rmoveto
          -93 -1001 93 hlineto
          endchar
        </CharString>
        <CharString name="braceleft">
          -96 -249 45 432 51 471 -20 hstemhm
          30 66 -66 185 -35 60 hintmask 11110100
          383 750 rmoveto
          -43 hlineto
          -119 -41 -125 -76 hvcurveto
          -51 7 -53 -55 vvcurveto
          -47 -3 -64 -64 -9 -10 1 2 -12 vhcurveto
          -12 -57 rlineto
          2 13 10 1 9 hhcurveto
          32 9 -13 -18 -6 -1 -8 -2 -8 hvcurveto
          -26 -114 -91 -107 -94 vvcurveto
          -23 5 -23 14 -21 vhcurveto
          -41 26 28 -1 60 hhcurveto
          9 hlineto
          9 45 rlineto
          -62 -23 32 48 hvcurveto
          hintmask 11101000
          100 119 153 89 vvcurveto
          16 -5 12 -7 8 vhcurveto
          24 20 14 33 2 58 -6 171 rcurveline
          1 54 9 44 36 40 rrcurveto
          24 22 28 2 41 hhcurveto
          endchar
        </CharString>
        <CharString name="braceright">
          -96 -228 -21 471 51 432 45 hstemhm
          173 60 -35 185 -66 66 hintmask 11110100
          30 -249 rmoveto
          43 hlineto
          119 41 125 76 hvcurveto
          51 -7 53 55 vvcurveto
          47 3 64 64 9 10 -1 -2 12 vhcurveto
          12 57 rlineto
          -2 -13 -10 -1 -9 hhcurveto
          -32 -9 13 18 6 1 8 2 8 hvcurveto
          26 114 91 107 94 vvcurveto
          23 -5 23 -14 21 vhcurveto
          41 -26 -28 1 -60 hhcurveto
          -9 hlineto
          -9 -45 rlineto
          62 23 -32 -48 hvcurveto
          hintmask 11101000
          -100 -119 -153 -89 vvcurveto
          -16 5 -12 7 -8 vhcurveto
          -24 -20 -14 -33 -2 -58 6 -171 rcurveline
          -1 -54 -9 -44 -36 -40 rrcurveto
          -24 -22 -28 -2 -41 hhcurveto
          endchar
        </CharString>
        <CharString name="bracketleft">
          -48 -250 62 876 62 hstem
          182 -188 rmoveto
          -121 hlineto
          186 876 rlineto
          121 hlineto
          13 62 rlineto
          -193 hlineto
          -212 -1000 rlineto
          193 hlineto
          endchar
        </CharString>
        <CharString name="bracketright">
          -48 -250 62 876 62 hstem
          175 688 rmoveto
          121 hlineto
          -186 -876 rlineto
          -121 hlineto
          -13 -62 rlineto
          193 hlineto
          212 1000 rlineto
          -193 hlineto
          endchar
        </CharString>
        <CharString name="brokenbar">
          45 callgsubr
          222 rmoveto
          -93 -472 93 hlineto
          551 vmoveto
          450 -93 -450 vlineto
          endchar
        </CharString>
        <CharString name="bullet">
          -13 callgsubr
        </CharString>
        <CharString name="c">
          15 callsubr
          hstemhm
          24 callsubr
          156 76 hintmask 11011000
          -88 callgsubr
          hintmask 10111000
          -29 callgsubr
          endchar
        </CharString>
        <CharString name="c.end">
          -107 -6 93 257 165 -53 53 66 callsubr
          hintmask 11011000
          272 356 rmoveto
          -8 11 12 -4 12 hhcurveto
          27 26 21 51 47 -22 46 -89 -203 -66 -240 -116 -3 callsubr
          hvcurveto
          67 callsubr
          hvcurveto
          hintmask 10111000
          99 65 187 33 callgsubr
          vhcurveto
          endchar
        </CharString>
        <CharString name="c_x">
          307 -6 82 -82 97 253 165 -53 53 -53 100 66 callsubr
          256 124 hintmask 10100111
          272 356 rmoveto
          -8 11 12 -4 12 hhcurveto
          27 26 21 51 47 -22 46 -89 -204 -65 -243 -108 -121 81 -43 97 106 126 52 86 84 hvcurveto
          -97 22 30 -41 68 69 callgsubr
          hintmask 01001111
          -77 callsubr
          -8 50 38 -7 hvcurveto
          -9 49 rlineto
          101 109 42 67 65 vvcurveto
          48 -23 39 -47 -30 -24 -16 -35 -25 12 -27 34 6 6 1 1 6 vhcurveto
          -74 callgsubr
          -36 -36 -59 -59 -64 vhcurveto
          -27 callsubr
          -141 hlineto
          57 -310 rlineto
          hintmask 10010111
          -75 -66 -97 -39 -71 hhcurveto
          -57 -44 25 74 91 65 190 33 callgsubr
          hvcurveto
          endchar
        </CharString>
        <CharString name="c_z">
          321 0 65 -65 87 -87 -5 callsubr
          -44 44 9 -20 66 callsubr
          56 100 112 100 hintmask 1000100111100000
          647 91 rmoveto
          -20 -4 -12 -6 -16 -29 -25 12 -37 hhcurveto
          245 423 rlineto
          -237 hlineto
          -71 -45 -60 -41 -29 23 -15 23 26 28 16 37 hvcurveto
          23 -11 -6 5 vvcurveto
          -48 callsubr
          36 hlineto
          -255 -446 rlineto
          265 hlineto
          77 45 61 46 hvcurveto
          hintmask 0010001111100000
          -86 callgsubr
          -375 265 rmoveto
          -8 11 12 -4 12 hhcurveto
          27 26 21 51 47 -22 46 -89 -203 -66 -240 -116 hvcurveto
          hintmask 0001100111100000
          -3 callsubr
          vhcurveto
          hintmask 0100010111100000
          67 callsubr
          99 65 187 33 callgsubr
          hvcurveto
          endchar
        </CharString>
        <CharString name="cacute">
          15 callsubr
          241 -20 hstemhm
          24 callsubr
          156 76 hintmask 11011100
          -88 callgsubr
          hintmask 10111100
          -29 callgsubr
          -35 205 -100 callsubr
        </CharString>
        <CharString name="caron">
          -154 22 callgsubr
          100 750 rmoveto
          60 -189 rlineto
          21 hlineto
          212 189 rlineto
          -44 hlineto
          -157 -80 -60 80 rlineto
          endchar
        </CharString>
        <CharString name="ccaron">
          15 callsubr
          241 -20 hstemhm
          24 callsubr
          156 76 hintmask 11011100
          -88 callgsubr
          hintmask 10111100
          -29 callgsubr
          -73 394 rmoveto
          60 -189 rlineto
          21 hlineto
          212 189 rlineto
          -44 hlineto
          -157 -80 -60 80 rlineto
          endchar
        </CharString>
        <CharString name="ccedilla">
          -64 67 callgsubr
          52 84 266 165 -53 53 hstemhm
          24 callsubr
          87 83 -14 76 hintmask 1011101100000000
          131 -119 rmoveto
          2 callgsubr
          hintmask 0111011100000000
          -20 callgsubr
          38 callsubr
          hvcurveto
          28 71 91 27 63 74 46 73 rlinecurve
          -34 hlineto
          -57 -50 -48 -44 -79 hhcurveto
          -48 -24 16 68 111 65 183 63 hvcurveto
          hintmask 1011101010000000
          19 9 -16 -25 -17 -4 -20 -8 -22 hvcurveto
          -8 12 12 -4 11 hhcurveto
          29 24 24 49 46 -22 46 -89 -203 -66 -240 -116 -8 callsubr
          94 10 9 0 2 10 hvcurveto
          endchar
        </CharString>
        <CharString name="ccircumflex">
          15 callsubr
          0 52 64 callgsubr
          156 76 hintmask 11001110
          -88 callgsubr
          hintmask 10101110
          -29 callgsubr
          hintmask 10011110
          121 205 rmoveto
          -60 189 rlineto
          -21 hlineto
          -212 -189 rlineto
          44 hlineto
          157 80 60 -80 rlineto
          endchar
        </CharString>
        <CharString name="cedilla">
          -221 67 callgsubr
          87 -20 hstemhm
          144 83 hintmask 10111000
          227 -108 rmoveto
          38 callsubr
          vhcurveto
          29 72 -35 23 -53 -148 rlineto
          2 callgsubr
          hintmask 01111000
          -20 callgsubr
          hvcurveto
          endchar
        </CharString>
        <CharString name="cent">
          -45 -6 -21 172 68 505 -20 hstem
          31 105 189 57 vstem
          127 -27 rmoveto
          27 hlineto
          38 172 98 4 50 48 14 84 rlinecurve
          -34 -39 -39 -34 -54 hhcurveto
          -6 -4 0 1 -5 hvcurveto
          76 343 rlineto
          5 hlineto
          22 15 -10 -24 -8 -2 -9 -3 -11 hvcurveto
          57 hlineto
          4 13 1 9 11 vvcurveto
          48 -43 17 -47 3 vhcurveto
          27 122 rlineto
          -58 hlineto
          -22 -123 rlineto
          -135 -18 -73 -126 -135 vvcurveto
          -102 58 -58 69 -10 vhcurveto
          -22 173 rmoveto
          80 38 93 54 42 vhcurveto
          -55 -305 rlineto
          -26 20 -11 37 33 vvcurveto
          endchar
        </CharString>
        <CharString name="circumflex">
          -155 22 callgsubr
          293 561 rmoveto
          -60 189 rlineto
          -21 hlineto
          -212 -189 rlineto
          44 hlineto
          157 80 60 -80 rlineto
          endchar
        </CharString>
        <CharString name="circunflex">
          -155 22 callgsubr
          293 561 rmoveto
          -60 189 rlineto
          -21 hlineto
          -212 -189 rlineto
          44 hlineto
          157 80 60 -80 rlineto
          endchar
        </CharString>
        <CharString name="colon">
          56 159 81 159 hstemhm
          41 159 -109 159 hintmask 11100000
          41 135 rmoveto
          -102 callsubr
          hintmask 11010000
          50 240 rmoveto
          -102 callsubr
          endchar
        </CharString>
        <CharString name="comma">
          -232 -105 -21 281 -20 hstemhm
          32 139 -87 87 hintmask 11010000
          24 75 rmoveto
          -33 21 -23 26 -17 vhcurveto
          9 -6 4 -7 -7 vvcurveto
          hintmask 11100000
          1 callsubr
        </CharString>
        <CharString name="copyright">
          139 76 42 64 52 198 52 60 43 hstem
          51 46 55 55 285 43 vstem
          300 484 rmoveto
          -81 -67 -63 -85 -83 65 -71 81 49 46 26 42 28 hvcurveto
          -44 29 rlineto
          -28 -15 -29 -17 -31 hhcurveto
          -53 -42 47 60 62 45 29 50 57 11 -37 -24 7 hvcurveto
          47 18 -13 53 -49 39 -62 3 rlinecurve
          -7 -408 -44 callsubr
          endchar
        </CharString>
        <CharString name="currency">
          52 185 -21 26 56 200 56 27 -20 hstem
          96 57 200 56 vstem
          68 492 rmoveto
          57 -57 rlineto
          -18 -25 -11 -31 -34 vvcurveto
          -33 11 -31 18 -25 vhcurveto
          -56 -56 36 -36 56 56 rlineto
          -19 26 32 -11 34 hhcurveto
          34 31 11 18 25 hvcurveto
          55 -55 36 36 -55 55 rlineto
          19 26 11 31 34 vvcurveto
          34 -11 32 -19 26 vhcurveto
          55 55 -36 36 -56 -56 rlineto
          18 -25 -31 11 -33 hhcurveto
          -34 -31 -11 -19 -26 hvcurveto
          -56 56 rlineto
          147 -82 rmoveto
          55 45 -45 -55 -55 -45 -45 -55 -55 -45 45 55 55 45 45 55 hvcurveto
          endchar
        </CharString>
        <CharString name="d">
          77 -14 callgsubr
          463 62 195 -20 hstemhm
          24 callsubr
          hintmask 10111000
          374 680 rmoveto
          -49 -230 rlineto
          4 -98 callgsubr
          71 47 46 46 30 vhcurveto
          hintmask 01111000
          -56 44 callgsubr
          hintmask 10111000
          -50 -15 -27 -67 callgsubr
          50 callsubr
          -255 -526 rmoveto
          -55 -13 -41 -28 -28 hhcurveto
          -18 -32 1 77 94 55 180 85 30 9 -23 -12 2 hvcurveto
          -49 -229 rlineto
          endchar
        </CharString>
        <CharString name="d.end">
          28 -6 71 callsubr
          195 -20 10 callsubr
          vstem
          522 700 rmoveto
          -148 -20 -49 -230 rlineto
          4 -98 callgsubr
          66 46 40 43 30 vhcurveto
          -58 12 41 -25 51 hhcurveto
          52 callgsubr
          33 callsubr
          -144 3 rmoveto
          -49 -11 -41 -23 -26 hhcurveto
          -18 -32 1 77 94 55 180 85 30 9 -23 -12 2 hvcurveto
          endchar
        </CharString>
        <CharString name="dagger">
          47 -229 -21 566 3 callsubr
          -120 -566 rlineto
          72 hlineto
          120 566 49 callgsubr
        </CharString>
        <CharString name="daggerdbl">
          47 -229 -21 351 112 103 3 callsubr
          -22 -103 rlineto
          -144 hlineto
          -24 -112 -58 callsubr
          -74 -351 rlineto
          72 hlineto
          74 351 rlineto
          153 hlineto
          23 112 rlineto
          -152 hlineto
          22 103 49 callgsubr
        </CharString>
        <CharString name="degree">
          -134 374 37 256 35 hstem
          37 72 112 60 vstem
          199 702 rmoveto
          -100 -62 -96 -118 -72 18 -42 78 96 52 130 85 73 -24 40 -58 hvcurveto
          -88 -183 rmoveto
          97 8 49 51 28 hhcurveto
          21 4 -28 -35 -101 -32 -92 -53 -22 -5 33 32 16 1 15 1 12 hvcurveto
          endchar
        </CharString>
        <CharString name="dieresis">
          -56 573 122 hstem
          56 8 callsubr
          vstem
          56 634 rmoveto
          -105 callgsubr
          180 hmoveto
          -105 callgsubr
          endchar
        </CharString>
        <CharString name="divide">
          24 1 159 46 79 51 159 hstemhm
          147 159 -99 159 hintmask 11110000
          147 80 rmoveto
          -102 callsubr
          hintmask 11101000
          60 335 rmoveto
          -102 callsubr
          212 -130 -5 callgsubr
        </CharString>
        <CharString name="dollar">
          -45 -6 -21 745 -20 hstemhm
          24 75 -28 95 75 105 -45 63 hintmask 11011000
          110 -27 rmoveto
          27 hlineto
          29 134 rlineto
          104 2 76 51 95 vvcurveto
          82 -62 38 -51 33 vhcurveto
          36 161 rlineto
          hintmask 11010100
          22 -9 10 -20 -15 vvcurveto
          -21 -7 -21 -17 -10 vhcurveto
          -16 13 10 -7 16 hhcurveto
          30 18 30 46 56 -44 20 -43 7 hvcurveto
          25 109 rlineto
          -58 hlineto
          -19 -106 rlineto
          -74 -3 -80 -54 -74 vvcurveto
          -64 58 -33 48 -40 vhcurveto
          -36 -196 rlineto
          hintmask 11101000
          -22 10 -20 22 29 vvcurveto
          40 12 29 28 5 vhcurveto
          13 -15 12 -28 -39 -33 -34 -52 -79 49 -30 61 -5 vhcurveto
          107 126 rmoveto
          -44 -18 -40 -48 -6 vhcurveto
          37 166 rlineto
          17 -21 12 -24 -31 vvcurveto
          hintmask 11011000
          -75 266 rmoveto
          30 13 36 39 8 vhcurveto
          -24 -135 rlineto
          -17 17 -11 19 25 vvcurveto
          endchar
        </CharString>
        <CharString name="dotlessi">
          -6 97 409 -20 71 callgsubr
          vstem
          68 500 rmoveto
          -68 -321 rlineto
          -22 callgsubr
        </CharString>
        <CharString name="dotlessi.end">
          -239 -6 97 409 -20 hstemhm
          -8 -23 callgsubr
          hintmask 11010000
          68 500 rmoveto
          -68 -321 rlineto
          -59 callgsubr
          hintmask 11100000
          -76 callsubr
          endchar
        </CharString>
        <CharString name="e">
          16 callgsubr
          10 callsubr
          155 77 vstem
          -97 callgsubr
          endchar
        </CharString>
        <CharString name="e.end">
          -82 -6 95 113 48 206 53 hstem
          -14 148 155 77 vstem
          134 -72 callgsubr
          155 243 -19 callsubr
        </CharString>
        <CharString name="e_x">
          314 -63 callsubr
          -101 24 30 -38 66 69 callgsubr
          hintmask 01101111
          -77 callsubr
          -8 50 38 -7 -50 callsubr
        </CharString>
        <CharString name="e_x.end">
          299 -63 callsubr
          -99 23 30 -40 64 hhcurveto
          41 callsubr
          hintmask 01101111
          -3 -6 -8 -3 -18 hhcurveto
          -44 -8 29 59 -11 -50 callsubr
        </CharString>
        <CharString name="e_z">
          340 -6 77 -77 95 -95 161 -155 -20 222 48 105 154 -63 63 hstemhm
          -20 148 155 77 55 -23 callsubr
          hintmask 0100110111100000
          128 -72 callgsubr
          538 -81 rmoveto
          hintmask 1000110111100000
          -107 callgsubr
          hintmask 0001101111100000
          -102 callgsubr
          hintmask 0010110111100000
          -86 callgsubr
          -383 324 -19 callsubr
        </CharString>
        <CharString name="eacute">
          16 callgsubr
          241 -20 10 callsubr
          155 77 vstem
          -97 callgsubr
          -96 146 -100 callsubr
        </CharString>
        <CharString name="eacute.end">
          -81 -6 95 113 48 206 53 241 -20 10 callsubr
          155 77 vstem
          135 -72 callgsubr
          73 389 -18 callgsubr
          121 189 rlineto
          -105 hlineto
          -9 -335 -19 callsubr
        </CharString>
        <CharString name="eacute_x">
          312 -6 82 -82 97 111 48 206 53 -53 100 194 -20 hstemhm
          -15 148 155 77 256 124 hintmask 1011011110000000
          411 -26 callgsubr
          57 -310 rlineto
          -75 -66 -98 -39 -68 hhcurveto
          -59 -44 26 68 -10 callsubr
          46 -89 -206 -65 -240 -115 -117 81 -43 100 105 127 55 84 81 vhcurveto
          -98 43 callgsubr
          hintmask 0110111110000000
          5 callgsubr
          hintmask 1011011110000000
          -98 callsubr
          hvcurveto
          -74 callgsubr
          -36 -36 -59 -59 -64 vhcurveto
          -27 callsubr
          -328 61 -18 callgsubr
          121 189 rlineto
          -105 hlineto
          -27 -338 rmoveto
          -12 callsubr
          endchar
        </CharString>
        <CharString name="ecircumflex">
          -64 -6 84 0 124 48 206 0 53 0 52 64 callgsubr
          155 77 hintmask 01010111
          135 162 rmoveto
          12 1 14 1 14 42 callgsubr
          89 115 -37 callsubr
          vhcurveto
          hintmask 10101111
          -17 callgsubr
          vhcurveto
          -34 hlineto
          -57 -50 -48 -44 -79 hhcurveto
          -48 -24 16 68 hvcurveto
          155 253 rmoveto
          -83 -68 -77 -77 -5 vhcurveto
          99 20 49 107 51 -24 callsubr
          108 146 rmoveto
          -60 189 rlineto
          -21 hlineto
          -212 -189 rlineto
          44 hlineto
          157 80 60 -80 rlineto
          endchar
        </CharString>
        <CharString name="edieresis">
          16 callgsubr
          64 122 hstemhm
          24 callsubr
          -16 122 49 77 -77 131 hintmask 11111010
          -97 callgsubr
          hintmask 11110101
          -171 219 rmoveto
          -105 callgsubr
          180 hmoveto
          -105 callgsubr
          endchar
        </CharString>
        <CharString name="egrave">
          16 callgsubr
          52 189 10 callsubr
          155 77 vstem
          -97 callgsubr
          -58 146 -18 callgsubr
          -29 -32 callgsubr
        </CharString>
        <CharString name="eight">
          51 -5 72 634 48 57 callsubr
          -50 131 105 157 -108 127 hintmask 11101000
          208 67 rmoveto
          -47 -24 41 55 71 40 94 83 55 hvcurveto
          44 -38 19 -56 -54 vvcurveto
          -86 -47 -82 -68 vhcurveto
          -5 -72 rmoveto
          161 116 144 122 68 -36 62 -85 26 hvcurveto
          hintmask 11010100
          93 45 47 75 67 vvcurveto
          78 -63 67 -126 -132 -91 -100 -96 -52 26 -50 59 -34 vhcurveto
          hintmask 11101000
          -122 -34 -58 -96 -91 vvcurveto
          -103 74 -98 137 vhcurveto
          68 456 rmoveto
          hintmask 11011000
          -36 30 -17 45 44 vvcurveto
          67 39 64 66 vhcurveto
          hintmask 11100100
          32 17 -30 -40 -57 -34 -79 -67 -44 hvcurveto
          endchar
        </CharString>
        <CharString name="ellipsis">
          254 -4 159 hstem
          31 159 76 159 86 159 vstem
          31 75 rmoveto
          -102 callsubr
          235 hmoveto
          -102 callsubr
          245 hmoveto
          -102 callsubr
          endchar
        </CharString>
        <CharString name="emdash">
          -4 222 79 hstem
          387 301 -5 callgsubr
        </CharString>
        <CharString name="endash">
          -96 222 79 hstem
          297 301 rmoveto
          -260 hlineto
          -18 -79 rlineto
          261 hlineto
          endchar
        </CharString>
        <CharString name="eogonek">
          -64 -193 59 128 84 124 48 206 53 hstemhm
          24 callsubr
          -17 83 89 77 hintmask 11110110
          201 -84 rmoveto
          115 112 -30 105 178 vhcurveto
          -34 hlineto
          -57 -50 -48 -44 -79 hhcurveto
          hintmask 11111010
          -48 -24 16 68 12 1 14 1 14 hvcurveto
          10 callgsubr
          89 115 -37 callsubr
          -8 callsubr
          94 15 14 1 2 13 vhcurveto
          hintmask 11110110
          -44 -37 -23 -40 -35 -54 callgsubr
          hvcurveto
          89 499 rmoveto
          -83 -68 -77 -77 -5 vhcurveto
          99 20 49 107 51 -24 callsubr
          endchar
        </CharString>
        <CharString name="equal">
          67 101 112 103 112 hstem
          468 428 59 callgsubr
          -21 -103 59 callgsubr
          endchar
        </CharString>
        <CharString name="eth">
          90 -14 callgsubr
          463 62 56 40 99 -20 hstemhm
          -1 148 hintmask 10111100
          474 415 rmoveto
          7 35 4 31 27 vvcurveto
          19 -2 18 -4 16 vhcurveto
          42 -7 callgsubr
          -63 hlineto
          -23 48 -41 27 -43 24 rrcurveto
          -45 hlineto
          25 -33 13 -31 4 -35 rrcurveto
          -69 hlineto
          -8 -40 rlineto
          77 hlineto
          -1 -22 -4 -26 -6 -28 -8 -37 rcurveline
          6 13 callsubr
          hintmask 01111100
          -57 44 callgsubr
          hintmask 10111100
          -50 -15 -27 -67 callgsubr
          -140 19 rmoveto
          -58 -12 -42 -30 -29 hhcurveto
          -18 -32 1 77 94 55 180 85 33 8 -27 -11 hvcurveto
          endchar
        </CharString>
        <CharString name="exclam">
          -191 0 159 541 -20 hstem
          34 159 vstem
          183 231 rmoveto
          130 469 rlineto
          -144 hlineto
          -71 -469 rlineto
          95 -151 28 callgsubr
        </CharString>
        <CharString name="exclamdown">
          -229 -227 -21 541 159 hstem
          59 159 vstem
          69 221 rmoveto
          -130 -469 -58 callsubr
          71 469 rlineto
          -95 151 rmoveto
          -102 callsubr
          endchar
        </CharString>
        <CharString name="f">
          32 callsubr
          -208 55 490 48 vstem
          382 600 rmoveto
          -81 callgsubr
          74 hlineto
          7 40 rlineto
          -73 27 callsubr
          -488 -728 -62 callsubr
        </CharString>
        <CharString name="f_f_t">
          332 -250 75 -75 -33 callsubr
          176 73 hstemhm
          -209 61 653 144 hintmask 10111110
          -91 -250 rmoveto
          41 49 11 43 38 hvcurveto
          -34 20 39 -20 50 hhcurveto
          63 84 32 138 29 hvcurveto
          50 callsubr
          135 hlineto
          -59 -281 rlineto
          -5 -24 -38 callsubr
          -84 -86 callsubr
          -63 callgsubr
          63 300 rlineto
          61 -7 callgsubr
          -60 hlineto
          38 180 -37 callgsubr
          465 464 rmoveto
          -136 -64 callsubr
          -546 -812 -65 callsubr
        </CharString>
        <CharString name="f_i_x">
          450 -36 callgsubr
          -40 96 -3 55 callsubr
          -52 139 -97 97 269 124 hintmask 1110011001100000
          411 553 -90 callgsubr
          -45 callgsubr
          hintmask 1110101010100000
          -6 callgsubr
          hintmask 1101011100100000
          -5 -25 -38 callsubr
          -82 45 -37 61 93 95 65 73 65 vhcurveto
          -97 22 30 -41 64 hhcurveto
          54 95 22 -106 callsubr
          hintmask 1110101100100000
          -27 callsubr
          -141 hlineto
          51 callgsubr
          -43 -65 -39 -51 hhcurveto
          -26 -18 11 25 -89 callsubr
          -85 callsubr
          -631 -621 -40 callgsubr
          endchar
        </CharString>
        <CharString name="f_i_z">
          456 -10 callgsubr
          -40 12 callgsubr
          41 -23 callsubr
          hintmask 1100001101000111
          -152 -121 -40 callgsubr
          563 674 -90 callgsubr
          hintmask 1100100011000111
          -45 callgsubr
          hintmask 1100100101001011
          -6 callgsubr
          hintmask 1010100101010011
          -59 callgsubr
          hintmask 1010100101100011
          -76 callsubr
          303 -409 rmoveto
          hintmask 1100100101100011
          -107 callgsubr
          hintmask 1100010101010011
          -102 callgsubr
          hintmask 1001100101100011
          -40 callsubr
          hintmask 1010100101100011
          16 callsubr
        </CharString>
        <CharString name="f_l_x">
          464 -36 callgsubr
          -40 96 130 63 hstemhm
          65 callsubr
          356 124 hintmask 11101111
          531 680 rmoveto
          36 -90 -85 33 -90 hhcurveto
          -65 -87 -87 callgsubr
          66 86 27 143 30 57 callgsubr
          93 -7 callgsubr
          -93 -64 callsubr
          -104 -491 rlineto
          -5 -25 -38 callsubr
          -82 45 -37 61 93 95 65 73 65 vhcurveto
          -97 22 30 -41 64 hhcurveto
          54 95 22 -45 callsubr
          -77 callsubr
          -8 50 38 -7 hvcurveto
          -9 50 rlineto
          98 104 45 69 65 vvcurveto
          hintmask 11011111
          -96 callgsubr
          hintmask 11101111
          -27 callsubr
          -141 hlineto
          51 callgsubr
          -43 -65 -39 -51 hhcurveto
          -26 -18 11 25 -89 callsubr
          -575 -288 -25 callgsubr
          -59 -13 -25 -65 callgsubr
        </CharString>
        <CharString name="f_l_z">
          490 -10 callgsubr
          -40 40 186 63 hstemhm
          65 callsubr
          -144 217 75 -23 callsubr
          hintmask 1010001110111000
          -95 callgsubr
          51 32 71 5 vhcurveto
          -3 -6 -8 -3 -18 hhcurveto
          hintmask 1010100111011000
          -28 -13 9 -24 callgsubr
          395 -69 rmoveto
          hintmask 1100100111011000
          -107 callgsubr
          hintmask 1100010111011000
          -102 callgsubr
          hintmask 1001100111011000
          -40 callsubr
          hintmask 1010100111011000
          16 callsubr
        </CharString>
        <CharString name="f_t">
          19 callgsubr
          484 460 rmoveto
          61 -7 callgsubr
          -60 hlineto
          38 180 rlineto
          36 -90 -85 33 -90 hhcurveto
          -65 -87 -87 callgsubr
          66 86 27 143 30 57 callgsubr
          135 hlineto
          -59 -281 rlineto
          -5 -24 -38 callsubr
          -84 -86 callsubr
          -63 callgsubr
          -72 340 rmoveto
          -136 -64 callsubr
          -539 -798 -25 callgsubr
          -59 -13 -25 -65 callgsubr
        </CharString>
        <CharString name="f_u">
          324 18 callsubr
          hintmask 11111100
          582 -39 callsubr
          -22 -8 18 23 9 1 9 2 10 hvcurveto
          -85 callsubr
          -267 hlineto
          17 79 rlineto
          67 14 34 15 22 hhcurveto
          hintmask 11111010
          6 callsubr
          47 hlineto
          -81 callgsubr
          122 hlineto
          -59 -281 rlineto
          hintmask 11111100
          -5 -24 -38 callsubr
          -84 -31 callgsubr
          42 56 13 82 50 vhcurveto
          -62 6 36 -33 57 hhcurveto
          54 90 22 -45 callsubr
          -50 -15 -27 -38 -39 2 callsubr
          -879 -628 -62 callsubr
        </CharString>
        <CharString name="f_u.end">
          276 18 callsubr
          hintmask 11111010
          212 -26 callgsubr
          17 79 rlineto
          67 14 34 15 22 hhcurveto
          6 callsubr
          47 hlineto
          -81 callgsubr
          122 hlineto
          -59 -281 rlineto
          hintmask 11111100
          -88 callsubr
          -632 -628 -62 callsubr
        </CharString>
        <CharString name="f_x">
          215 -250 89 132 104 -81 97 369 40 -40 96 105 88 hstemhm
          -208 52 369 122 2 48 139 124 hintmask 1101011111000000
          212 -26 callgsubr
          17 79 rlineto
          67 14 34 15 22 hhcurveto
          6 callsubr
          47 hlineto
          -81 callgsubr
          117 hlineto
          40 -218 rlineto
          -73 -47 -75 -87 -66 vvcurveto
          -54 callsubr
          hintmask 1010111111000000
          -6 callsubr
          -77 callsubr
          -8 50 38 -7 hvcurveto
          -12 66 rlineto
          102 92 44 64 66 vvcurveto
          -77 callgsubr
          -38 -36 -47 -62 -56 vhcurveto
          hintmask 1101011111000000
          -36 198 rlineto
          -611 -628 -62 callsubr
        </CharString>
        <CharString name="ff">
          60 32 callsubr
          -209 61 728 48 vstem
          -91 -250 rmoveto
          44 53 12 51 39 hvcurveto
          -38 16 35 -25 57 hhcurveto
          66 86 27 143 30 hvcurveto
          113 540 rlineto
          99 hlineto
          9 40 rlineto
          -100 43 callsubr
          -9 -1 -8 -1 -10 hvcurveto
          47 hlineto
          -26 callsubr
          -44 -53 -12 -51 -40 vhcurveto
          39 -19 -43 24 -45 hhcurveto
          -66 -86 -87 callgsubr
          vhcurveto
          295 710 rmoveto
          99 hlineto
          -85 -405 -103 -18 rlineto
          -43 -178 rmoveto
          7 17 7 21 5 23 19 92 rcurveline
          103 19 -24 -114 11 callsubr
          -25 -19 -21 hhcurveto
          -26 -23 4 16 -9 hvcurveto
          264 768 rmoveto
          -8 0 -6 -2 -8 vhcurveto
          -23 -105 rlineto
          -99 43 callsubr
          hvcurveto
          -484 -755 -25 callgsubr
          -59 -13 -25 -65 callgsubr
        </CharString>
        <CharString name="ffi">
          316 -250 75 -75 -33 callsubr
          53 196 -73 73 -54 54 hstemhm
          -209 61 637 144 -53 139 -97 97 hintmask 1011001100100000
          444 -26 callgsubr
          17 82 rlineto
          -45 callgsubr
          hintmask 1011100101000000
          -21 -13 -27 -22 -43 31 -11 29 41 38 21 60 97 -99 18 -80 -49 -55 -10 -42 -47 hvcurveto
          35 -27 -41 17 -55 hhcurveto
          -66 -86 -87 callgsubr
          41 49 11 42 38 vhcurveto
          -33 20 40 -20 49 hhcurveto
          63 84 32 138 29 hvcurveto
          -1 callsubr
          120 hlineto
          -59 -281 rlineto
          hintmask 1011010110000000
          -53 callsubr
          -503 -40 rmoveto
          84 hlineto
          -86 -409 -88 -15 rlineto
          -8 -211 rmoveto
          -10 -23 5 27 -4 hvcurveto
          8 18 7 21 5 24 19 88 rcurveline
          89 18 -23 -109 rlineto
          -67 -14 -27 -25 -27 hhcurveto
          191 675 rmoveto
          -85 hlineto
          16 82 rlineto
          43 8 22 51 56 hhcurveto
          19 12 -7 -10 9 hvcurveto
          -21 -31 -18 -40 -11 -54 rrcurveto
          -454 -662 -25 callgsubr
          hintmask 0111100110000000
          -59 -12 -27 70 callgsubr
        </CharString>
        <CharString name="ffl">
          332 -250 75 -75 -33 callsubr
          176 73 hstemhm
          -209 61 653 144 hintmask 10111110
          -91 -250 rmoveto
          41 49 11 43 38 hvcurveto
          -34 20 39 -20 50 hhcurveto
          63 84 32 138 29 hvcurveto
          50 callsubr
          93 -7 callgsubr
          -93 -64 callsubr
          -104 -491 rlineto
          -5 -24 -38 callsubr
          -84 -86 callsubr
          -63 callgsubr
          110 520 -37 callgsubr
          -45 -178 -65 callsubr
        </CharString>
        <CharString name="fi">
          86 -36 callgsubr
          53 55 callsubr
          -52 139 -97 97 hintmask 1110110010000000
          411 553 -90 callgsubr
          -45 callgsubr
          hintmask 1111010100000000
          -21 -13 -27 -22 -43 31 -11 29 hvcurveto
          -563 -674 -40 callgsubr
          487 621 rmoveto
          -68 -321 rlineto
          hintmask 1111011000000000
          -22 callgsubr
        </CharString>
        <CharString name="fi.end">
          31 -250 89 155 97 369 12 callgsubr
          hintmask 1111010001000000
          -152 -121 -40 callgsubr
          563 674 -90 callgsubr
          hintmask 1110110001000000
          -45 callgsubr
          hintmask 1111010010000000
          -6 callgsubr
          hintmask 1111010100000000
          -59 callgsubr
          hintmask 1111011000000000
          -76 callsubr
          endchar
        </CharString>
        <CharString name="five">
          69 -5 67 329 84 125 117 32 -20 hstem
          15 111 209 146 vstem
          500 749 rmoveto
          -24 -61 -50 -8 -51 hhcurveto
          -55 -55 9 8 -70 hvcurveto
          -82 -399 rlineto
          24 38 57 32 54 hhcurveto
          67 43 -49 -96 -87 -44 -97 -83 -37 -45 14 58 60 38 30 52 6 hvcurveto
          35 -7 -25 16 -39 hhcurveto
          -60 -70 -37 -105 -124 98 -20 78 204 86 135 138 111 -55 96 -121 -37 -42 -9 -22 -46 hvcurveto
          40 181 rlineto
          -5 41 73 -20 53 hhcurveto
          85 30 52 64 11 -1 11 -1 11 hvcurveto
          endchar
        </CharString>
        <CharString name="fl">
          19 callgsubr
          -95 callgsubr
          99 22 -19 callgsubr
          vhcurveto
          -42 hlineto
          -63 callgsubr
          endchar
        </CharString>
        <CharString name="fl.end">
          42 -36 callgsubr
          186 63 hstemhm
          65 callsubr
          -144 217 hintmask 11111010
          -95 callgsubr
          51 32 71 5 vhcurveto
          -3 -6 -8 -3 -18 hhcurveto
          hintmask 11111100
          -28 -13 9 -24 callgsubr
          endchar
        </CharString>
        <CharString name="florin">
          -177 32 callsubr
          -202 55 490 48 vstem
          209 460 rmoveto
          75 -7 callgsubr
          -74 27 callsubr
          47 hlineto
          -26 callsubr
          4 callsubr
          -17 -79 rlineto
          -60 hlineto
          -8 -40 rlineto
          60 hlineto
          -96 -452 rlineto
          -95 -29 -77 7 callgsubr
          83 -60 callgsubr
          -242 -48 -62 callsubr
        </CharString>
        <CharString name="four">
          28 21 -21 275 74 401 -20 hstem
          154 104 vstem
          252 275 rmoveto
          -59 -275 -58 callsubr
          58 275 rlineto
          60 hlineto
          20 74 rlineto
          -64 hlineto
          86 401 -148 -20 -81 -381 rlineto
          -156 hlineto
          51 95 95 84 127 vvcurveto
          63 -53 32 -58 vhcurveto
          5 -20 2 -20 -20 vvcurveto
          -146 -110 -159 -36 -110 vhcurveto
          endchar
        </CharString>
        <CharString name="g">
          59 9 callgsubr
          71 callsubr
          hstemhm
          -13 133 -55 70 hintmask 11110000
          336 -26 callgsubr
          -11 -52 rlineto
          6 vlineto
          19 callsubr
          -12 -53 rlineto
          hintmask 11101000
          -75 callgsubr
          -205 -57 60 callsubr
          -51 -14 -39 -27 -27 -17 callsubr
          hintmask 11110000
          -155 -582 -61 callgsubr
        </CharString>
        <CharString name="g.end">
          32 -250 89 155 71 callsubr
          hstemhm
          -13 126 -55 77 hintmask 11110000
          325 0 callgsubr
          hintmask 11101000
          -95 -83 callsubr
          -60 -57 3 callgsubr
          hintmask 11110000
          -162 -571 51 callsubr
          -25 -65 callgsubr
        </CharString>
        <CharString name="g_p">
          527 9 callgsubr
          82 -82 71 callsubr
          -62 94 hstemhm
          -13 133 -55 70 678 137 hintmask 11001101
          583 47 callsubr
          98 459 rlineto
          -144 hlineto
          -11 -52 rlineto
          6 vlineto
          hintmask 11010101
          19 callsubr
          -11 -48 rlineto
          hintmask 11010011
          -41 callsubr
          hintmask 11001101
          -11 callsubr
          -398 367 60 callsubr
          hintmask 10110011
          -51 -14 -39 -27 -27 -17 callsubr
          hintmask 11010101
          -155 -582 -61 callgsubr
        </CharString>
        <CharString name="g_x">
          444 9 callgsubr
          71 callsubr
          -62 113 hstemhm
          -13 133 -55 70 618 124 hintmask 11101010
          543 -26 callgsubr
          5 callsubr
          -144 hlineto
          -11 -53 rlineto
          7 vlineto
          29 26 callgsubr
          -12 -57 rlineto
          hintmask 11010110
          -75 -35 callsubr
          -97 22 30 -40 -47 callsubr
          -409 64 callsubr
          -50 -233 rlineto
          -54 -12 -41 -27 -28 -17 callsubr
          hintmask 11101010
          -155 -582 rmoveto
          41 47 26 51 19 vhcurveto
          -6 4 callgsubr
        </CharString>
        <CharString name="g_z">
          459 -250 89 155 30 callgsubr
          150 -62 62 hstemhm
          -14 126 -55 77 400 -23 callsubr
          hintmask 1001010101100000
          324 0 callgsubr
          hintmask 1010010011100000
          -95 -83 callsubr
          451 -409 rmoveto
          hintmask 1100010101100000
          -30 callsubr
          hintmask 1000110101100000
          -255 -446 rlineto
          265 hlineto
          77 45 61 46 hvcurveto
          hintmask 1001010101100000
          -40 callsubr
          hintmask 1010001011100000
          -11 6 -9 13 -1 vhcurveto
          -511 352 3 callgsubr
          hintmask 1100010101100000
          -162 -571 51 callsubr
          -25 -65 callgsubr
        </CharString>
        <CharString name="germandbls">
          2 -229 -21 250 61 551 88 hstemhm
          304 101 -72 72 hintmask 11101000
          225 530 rmoveto
          67 14 34 15 22 hhcurveto
          26 12 -11 -39 -59 -42 -35 -41 -17 hvcurveto
          -18 -58 rlineto
          hintmask 11110000
          54 -14 18 -29 -44 vvcurveto
          -91 -26 -154 -83 vhcurveto
          -13 -59 rlineto
          -1 11 11 -1 11 hhcurveto
          72 118 81 204 60 -26 58 -71 24 hvcurveto
          60 28 32 61 57 vvcurveto
          66 -44 61 -93 4 callsubr
          -166 -780 151 36 rlineto
          endchar
        </CharString>
        <CharString name="grave">
          -247 561 189 hstem
          83 561 -18 callgsubr
          -29 -32 callgsubr
        </CharString>
        <CharString name="greater">
          -104 122 -21 328 -20 hstem
          75 374 -21 callsubr
          endchar
        </CharString>
        <CharString name="guillemotleft">
          141 122 -21 328 -20 hstem
          336 429 -21 callgsubr
          220 55 -21 callgsubr
          endchar
        </CharString>
        <CharString name="guillemotright">
          138 122 -21 328 -20 hstem
          75 374 -21 callsubr
          213 -55 -21 callsubr
          endchar
        </CharString>
        <CharString name="guilsinglleft">
          -89 102 -21 368 -20 hstem
          336 449 rmoveto
          -307 -170 -9 -41 247 -157 12 57 -194 116 241 140 rlineto
          endchar
        </CharString>
        <CharString name="guilsinglright">
          -104 102 -21 368 -20 hstem
          75 394 rmoveto
          194 -140 -240 -116 -14 -57 304 144 11 54 -246 170 rlineto
          endchar
        </CharString>
        <CharString name="h">
          50 callgsubr
          196 -20 -9 callsubr
          hintmask 10110100
          288 362 rmoveto
          hintmask 10111000
          -64 -45 -123 -79 callsubr
          hintmask 01110100
          -51 callsubr
          54 252 -148 -20 -145 -680 -58 callsubr
          69 325 rlineto
          27 6 31 61 39 hhcurveto
          25 12 -18 -33 hvcurveto
          endchar
        </CharString>
        <CharString name="h.end">
          5 -14 callgsubr
          433 91 196 -20 hstemhm
          242 138 -93 141 hintmask 10110100
          287 362 rmoveto
          hintmask 10111000
          -72 callsubr
          hintmask 01110100
          -67 callsubr
          -31 -43 -8 -47 -43 vhcurveto
          54 251 -148 -20 -145 -680 -58 callsubr
          71 333 rlineto
          45 15 27 35 33 hhcurveto
          24 12 -18 -33 hvcurveto
          endchar
        </CharString>
        <CharString name="hyphen">
          20 callsubr
        </CharString>
        <CharString name="i">
          -6 97 463 39 callgsubr
          hintmask 11010000
          88 633 rmoveto
          -102 callsubr
          -20 -133 rmoveto
          -68 -321 rlineto
          hintmask 11100000
          -22 callgsubr
        </CharString>
        <CharString name="i.end">
          -239 -6 97 463 159 hstemhm
          -8 -23 callgsubr
          -121 159 hintmask 11001000
          88 633 rmoveto
          -102 callsubr
          -20 -133 rmoveto
          -68 -321 rlineto
          hintmask 11010000
          -59 callgsubr
          hintmask 11100000
          -76 callsubr
          endchar
        </CharString>
        <CharString name="i_x">
          183 -6 97 362 103 -2 39 callgsubr
          245 124 hintmask 11010100
          68 -26 callgsubr
          -68 -321 rlineto
          -5 -25 -38 callsubr
          -82 45 -37 61 93 95 65 73 65 vhcurveto
          -97 22 30 -41 -47 callsubr
          -141 hlineto
          51 callgsubr
          -43 -65 -39 -51 hhcurveto
          -26 -18 11 25 -89 callsubr
          -85 callsubr
          hintmask 10101100
          -124 133 rmoveto
          -102 callsubr
          endchar
        </CharString>
        <CharString name="i_x.end">
          168 -6 97 362 103 -2 39 callgsubr
          245 124 hintmask 11010100
          68 -26 callgsubr
          -68 -321 rlineto
          30 callsubr
          96 64 73 65 vhcurveto
          -97 22 30 -40 64 hhcurveto
          54 51 32 71 5 hvcurveto
          25 callgsubr
          -96 callgsubr
          -27 callsubr
          -141 hlineto
          51 callgsubr
          -43 -65 -39 -51 hhcurveto
          -26 -18 11 25 -89 callsubr
          -85 callsubr
          hintmask 10101100
          -124 133 rmoveto
          -102 callsubr
          endchar
        </CharString>
        <CharString name="i_z">
          189 0 71 -71 91 -91 -5 callsubr
          -54 54 54 159 hstemhm
          -8 -23 callgsubr
          -121 159 17 -23 callsubr
          hintmask 1000101001110000
          88 633 rmoveto
          -102 callsubr
          -20 -133 rmoveto
          -68 -321 rlineto
          hintmask 0001101010110000
          -5 -24 -38 callsubr
          -84 -31 callgsubr
          54 51 32 71 5 vhcurveto
          hintmask 0100101100110000
          -3 -6 -8 -3 -18 2 callsubr
          303 -409 rmoveto
          hintmask 1000101100110000
          -107 callgsubr
          hintmask 1000011010110000
          -102 callgsubr
          hintmask 0010101100110000
          -40 callsubr
          hintmask 0100101100110000
          16 callsubr
        </CharString>
        <CharString name="iacute">
          -6 97 659 -20 71 callgsubr
          vstem
          68 500 rmoveto
          -68 -321 rlineto
          -53 callsubr
          -91 61 -100 callsubr
        </CharString>
        <CharString name="iacute.end">
          -239 -6 97 659 -20 hstemhm
          -8 -23 callgsubr
          hintmask 11010000
          68 500 rmoveto
          -68 -321 rlineto
          -59 callgsubr
          hintmask 11100000
          -76 callsubr
          -101 61 -100 callsubr
        </CharString>
        <CharString name="iacute_x">
          183 -6 97 362 103 194 -20 71 callgsubr
          356 124 vstem
          68 -26 callgsubr
          -68 -321 rlineto
          -5 -25 -38 callsubr
          -82 45 -37 61 93 95 65 73 65 vhcurveto
          -97 22 30 -41 -47 callsubr
          -141 hlineto
          51 callgsubr
          -43 -65 -39 -51 hhcurveto
          -26 -18 11 25 -89 callsubr
          -85 callsubr
          -100 61 -100 callsubr
        </CharString>
        <CharString name="iacute_z">
          189 0 71 -71 91 -91 -5 callsubr
          -54 54 250 -20 hstemhm
          -8 -23 callgsubr
          55 -23 callsubr
          hintmask 0001101011100000
          -46 callsubr
          54 51 32 71 5 vhcurveto
          hintmask 0100101101100000
          -3 -6 -8 -3 -18 2 callsubr
          303 -409 rmoveto
          hintmask 1000101101100000
          -107 callgsubr
          hintmask 1000011011100000
          -102 callgsubr
          hintmask 0010101101100000
          -40 callsubr
          hintmask 0100101101100000
          -11 6 -9 13 -1 vhcurveto
          -404 470 -100 callsubr
        </CharString>
        <CharString name="icircumflex">
          -6 97 659 -20 71 callgsubr
          vstem
          68 500 rmoveto
          -68 -321 rlineto
          -53 callsubr
          87 61 rmoveto
          -60 189 rlineto
          -21 hlineto
          -212 -189 rlineto
          44 hlineto
          157 80 60 -80 rlineto
          endchar
        </CharString>
        <CharString name="idieresis">
          -6 97 482 122 hstemhm
          -8 144 -119 119 61 122 hintmask 11101000
          68 500 rmoveto
          -68 -321 rlineto
          -53 callsubr
          hintmask 11011000
          -195 134 rmoveto
          -105 callgsubr
          180 hmoveto
          -105 callgsubr
          endchar
        </CharString>
        <CharString name="igrave">
          -6 97 470 189 71 callgsubr
          vstem
          68 500 rmoveto
          -68 -321 rlineto
          -53 callsubr
          -87 61 -18 callgsubr
          -29 -32 callgsubr
        </CharString>
        <CharString name="ij">
          59 9 callgsubr
          97 463 159 1 -20 hstemhm
          -8 144 -71 55 -55 144 -121 159 100 159 hintmask 1110000110000000
          88 633 rmoveto
          -102 callsubr
          -20 -133 rmoveto
          -68 -321 rlineto
          hintmask 1110100010000000
          -5 -24 -38 callsubr
          -84 -31 callgsubr
          vhcurveto
          hintmask 1110001010000000
          52 callgsubr
          hintmask 1110100010000000
          -76 callsubr
          124 hmoveto
          -107 -504 rlineto
          hintmask 1101010010000000
          -66 callgsubr
        </CharString>
        <CharString name="ij.end">
          32 -250 89 155 97 463 159 1 -20 hstemhm
          -8 121 -55 78 -78 151 -121 159 104 159 hintmask 1110001010000000
          231 8 rmoveto
          -95 -83 callsubr
          -267 hmoveto
          -68 -321 rlineto
          hintmask 1110100010000000
          -5 -24 -38 callsubr
          -84 -31 callgsubr
          vhcurveto
          hintmask 1110001010000000
          52 callgsubr
          hintmask 1110010010000000
          -76 callsubr
          hintmask 1110000110000000
          -124 133 rmoveto
          -102 callsubr
          263 1 rmoveto
          -44 35 -35 44 44 36 35 44 vhcurveto
          hintmask 1101100010000000
          44 -36 36 -44 -44 -35 -36 -44 vhcurveto
          -238 -762 51 callsubr
          -25 -65 callgsubr
        </CharString>
        <CharString name="j">
          -208 -250 78 727 159 hstem
          -202 55 227 159 vstem
          69 -26 callgsubr
          -107 -504 rlineto
          -66 callgsubr
        </CharString>
        <CharString name="j.end">
          -235 -250 89 716 159 hstem
          -209 55 238 159 vstem
          -35 8 rmoveto
          -96 -83 callsubr
          16 134 rmoveto
          -102 callsubr
          -238 -762 rmoveto
          54 48 29 64 21 vhcurveto
          -13 -59 11 callsubr
          -25 -65 callgsubr
        </CharString>
        <CharString name="j_x">
          176 9 callgsubr
          97 362 103 -1 159 hstemhm
          -203 55 227 159 247 124 hintmask 11101110
          275 -26 callgsubr
          5 callsubr
          -144 hlineto
          -107 -507 rlineto
          -76 -35 callsubr
          -97 22 30 -40 -47 callsubr
          -337 134 rmoveto
          hintmask 11011110
          -102 callsubr
          -227 -773 rmoveto
          41 47 26 52 19 vhcurveto
          -7 4 callgsubr
        </CharString>
        <CharString name="j_z">
          170 65 callgsubr
          -28 callsubr
          55 159 hstemhm
          -206 55 238 159 -1 -23 callsubr
          hintmask 1101011011000000
          -32 8 rmoveto
          -96 -83 callsubr
          425 -409 rmoveto
          -107 callgsubr
          hintmask 1100111101000000
          -102 callgsubr
          hintmask 1011011101000000
          -86 callgsubr
          -409 543 rmoveto
          -102 callsubr
          -238 -762 rmoveto
          54 48 29 64 21 vhcurveto
          -13 -59 11 callsubr
          -25 -65 callgsubr
        </CharString>
        <CharString name="k">
          70 38 callgsubr
          -127 147 hintmask 01110100
          373 -26 callgsubr
          -193 -152 75 352 -46 callgsubr
          hintmask 10111000
          -4 -19 -2 -17 -16 vvcurveto
          -73 44 -41 82 46 81 17 168 57 vhcurveto
          -42 hlineto
          -52 -22 -18 -36 -44 hhcurveto
          -31 -8 17 20 11 3 11 2 10 hvcurveto
          11 50 rlineto
          hintmask 10110100
          14 callgsubr
        </CharString>
        <CharString name="k.end">
          24 38 callgsubr
          -145 219 -201 147 hintmask 01110010
          373 -26 callgsubr
          -193 -152 75 352 -46 callgsubr
          hintmask 10110100
          -4 -19 -2 -17 -16 vvcurveto
          -73 44 -41 82 26 62 32 71 5 vhcurveto
          -3 -7 -4 -3 -24 hhcurveto
          hintmask 10111000
          -31 -8 17 20 11 3 11 2 10 hvcurveto
          11 50 rlineto
          hintmask 10110010
          14 callgsubr
        </CharString>
        <CharString name="k.salt">
          70 -14 callgsubr
          304 81 31 110 -96 96 194 -20 hstemhm
          250 145 -127 147 hintmask 10101101
          411 210 rmoveto
          3 13 1 13 12 vvcurveto
          64 -36 53 -74 -28 -28 -8 -12 -26 vhcurveto
          41 53 35 24 29 hhcurveto
          hintmask 01110101
          16 11 -14 17 hhcurveto
          28 37 28 32 15 -11 35 -28 -56 -13 -16 -127 -158 hvcurveto
          72 337 -46 callgsubr
          hintmask 10110110
          -4 -19 -2 -17 -16 vvcurveto
          -73 44 -41 82 46 81 17 168 57 vhcurveto
          -42 hlineto
          -52 -22 -18 -36 -44 hhcurveto
          -31 -8 17 20 11 3 11 2 10 hvcurveto
          endchar
        </CharString>
        <CharString name="l">
          -6 97 609 -20 71 callgsubr
          vstem
          107 680 rmoveto
          68 callsubr
          -84 -86 callsubr
          -63 callgsubr
          50 callsubr
          endchar
        </CharString>
        <CharString name="l.end">
          -241 -6 99 609 -20 hstemhm
          -10 -23 callgsubr
          hintmask 11010000
          1 callgsubr
          -3 -6 -8 -3 -18 hhcurveto
          hintmask 11100000
          33 callsubr
          endchar
        </CharString>
        <CharString name="l_x">
          183 -6 97 362 103 144 -20 hstem
          -7 144 355 124 vstem
          1 179 rmoveto
          30 callsubr
          95 64 73 65 vhcurveto
          -97 22 30 -40 -47 callsubr
          -141 hlineto
          58 -315 rlineto
          -55 -44 -65 -38 -50 hhcurveto
          -26 -18 11 25 -89 callsubr
          114 540 -148 -20 rlineto
          endchar
        </CharString>
        <CharString name="l_z">
          187 0 71 -71 93 -93 -5 callsubr
          -54 54 202 -20 hstemhm
          -10 -23 callgsubr
          55 -23 callsubr
          hintmask 0001101011100000
          1 callgsubr
          hintmask 0100101101100000
          -43 callsubr
          33 callsubr
          375 -71 rmoveto
          hintmask 1000101101100000
          -107 callgsubr
          hintmask 1000011011100000
          -102 callgsubr
          hintmask 0010101101100000
          -3 callgsubr
        </CharString>
        <CharString name="less">
          -89 122 -21 328 -20 hstem
          336 429 -21 callgsubr
          endchar
        </CharString>
        <CharString name="logicalnot">
          -4 51 250 -79 79 hstemhm
          hintmask 01000000
          399 301 rmoveto
          -362 hlineto
          -18 -79 rlineto
          251 hlineto
          hintmask 10000000
          -35 -171 rlineto
          113 hlineto
          endchar
        </CharString>
        <CharString name="lslash">
          -162 -6 97 609 -20 71 callgsubr
          vstem
          179 vmoveto
          -5 -24 -3 -21 -19 vvcurveto
          -85 -86 callsubr
          -63 callgsubr
          50 235 36 23 46 29 47 26 rlinecurve
          4 61 -118 -71 50 237 -148 -20 -70 -330 -71 -43 rlineto
          -58 vlineto
          57 37 rlineto
          endchar
        </CharString>
        <CharString name="m">
          304 -14 callgsubr
          434 90 34 callgsubr
          hintmask 10100100
          535 362 rmoveto
          hintmask 10101000
          -64 -45 -123 -79 callsubr
          hintmask 10100100
          -67 callsubr
          -37 -54 -11 -74 -48 vhcurveto
          hintmask 01011000
          -62 callgsubr
          hintmask 01100100
          -76 callgsubr
          endchar
        </CharString>
        <CharString name="m.end">
          253 -14 callgsubr
          434 90 34 callgsubr
          hintmask 10100100
          535 362 rmoveto
          hintmask 10101000
          -72 callsubr
          hintmask 10100100
          -67 callsubr
          -37 -54 -11 -74 -48 vhcurveto
          hintmask 01011000
          -62 callgsubr
          hintmask 01100100
          -76 callgsubr
          endchar
        </CharString>
        <CharString name="m_x">
          676 0 91 -76 -21 420 90 -51 103 hstemhm
          490 138 -93 93 -93 141 309 124 hintmask 10100101
          775 -26 callgsubr
          51 callgsubr
          -45 -69 -40 -46 hhcurveto
          -30 -14 17 25 hvcurveto
          hintmask 10100011
          -67 callsubr
          -37 -54 -11 -74 -48 vhcurveto
          -62 callgsubr
          -76 callgsubr
          hintmask 01101001
          -64 -45 -123 -68 vvcurveto
          -57 25 -56 87 71 102 65 73 68 vhcurveto
          -97 43 callgsubr
          hintmask 10011001
          -106 callgsubr
          -27 callsubr
          endchar
        </CharString>
        <CharString name="m_z">
          677 21 callsubr
          149 -90 90 -58 58 34 callgsubr
          76 -23 callsubr
          hintmask 1000100001110000
          535 362 rmoveto
          hintmask 0100100010110000
          -72 callsubr
          hintmask 1000010001110000
          -67 callsubr
          -37 -54 -11 -74 -48 vhcurveto
          hintmask 0001000110110000
          -62 callgsubr
          hintmask 0001010001110000
          -76 callgsubr
          hintmask 0100100010110000
          468 -271 rmoveto
          hintmask 1000100010110000
          -107 callgsubr
          hintmask 0001001010110000
          -102 callgsubr
          hintmask 0010100010110000
          -40 callsubr
          hintmask 0100100010110000
          16 callsubr
        </CharString>
        <CharString name="minus">
          -4 222 79 hstem
          387 301 -5 callgsubr
        </CharString>
        <CharString name="mu">
          57 -145 -21 166 91 409 -20 hstem
          68 -26 callgsubr
          -141 -666 151 36 27 130 41 1 54 13 48 76 rlinecurve
          -59 6 37 -31 55 hhcurveto
          54 90 16 -45 callsubr
          -50 -15 -27 -38 -39 2 callsubr
          -144 -38 callgsubr
          -22 -8 21 23 9 1 8 46 callsubr
        </CharString>
        <CharString name="multiply">
          67 121 -21 320 -20 hstem
          98 355 rmoveto
          95 -95 -95 -95 65 -64 94 94 96 -95 64 65 -95 95 95 95 -64 65 -96 -96 -94 95 rlineto
          endchar
        </CharString>
        <CharString name="n">
          50 callgsubr
          -9 callsubr
          hintmask 10101000
          288 362 rmoveto
          hintmask 10110000
          -64 -45 -123 -79 callsubr
          hintmask 01101000
          -92 callsubr
          endchar
        </CharString>
        <CharString name="n.end">
          6 -14 callgsubr
          433 91 -9 callsubr
          hintmask 10101000
          288 362 rmoveto
          hintmask 10110000
          -72 callsubr
          hintmask 01101000
          -92 callsubr
          endchar
        </CharString>
        <CharString name="n_z">
          434 21 callsubr
          149 -91 91 -58 58 -9 callsubr
          80 -23 callsubr
          hintmask 1000100011100000
          288 362 rmoveto
          hintmask 0100100101100000
          -72 callsubr
          hintmask 0001010011100000
          -92 callsubr
          hintmask 0100100101100000
          472 -271 rmoveto
          hintmask 1000100101100000
          -107 callgsubr
          hintmask 0001001101100000
          -102 callgsubr
          hintmask 0010100101100000
          -40 callsubr
          hintmask 0100100101100000
          16 callsubr
        </CharString>
        <CharString name="nacute">
          50 callgsubr
          246 -20 -9 callsubr
          hintmask 10110100
          288 362 rmoveto
          hintmask 10111000
          -64 -45 -123 -79 callsubr
          hintmask 01110100
          -92 callsubr
          -24 199 -100 callsubr
        </CharString>
        <CharString name="nine">
          41 -5 79 -79 169 118 82 320 66 hstemhm
          34 67 -67 114 213 125 hintmask 10110110
          288 424 rmoveto
          -47 -18 -29 -13 -37 hhcurveto
          -46 -10 61 42 104 62 113 65 53 35 -21 -124 -16 -1 -17 -1 -19 hvcurveto
          -409 -30 -149 -4 -28 hhcurveto
          hintmask 01111010
          -30 -23 28 28 12 4 12 10 10 hvcurveto
          -71 -15 -35 -39 -46 42 -49 76 211 128 219 301 126 -38 109 -155 -145 -114 -127 -166 -80 41 -95 100 74 60 42 50 16 -7 17 -14 17 hvcurveto
          endchar
        </CharString>
        <CharString name="ntilde">
          50 callgsubr
          65 78 -41 74 -9 callsubr
          hintmask 10110010
          288 362 rmoveto
          hintmask 10110100
          -64 -45 -123 -79 callsubr
          hintmask 01110010
          -92 callsubr
          195 308 -25 callsubr
          hintmask 10101100
          -80 callgsubr
          hintmask 10110100
          -51 callgsubr
        </CharString>
        <CharString name="numbersign">
          211 -27 240 -102 102 113 102 290 -20 hstemhm
          hintmask 10110000
          307 -27 rmoveto
          57 hlineto
          hintmask 01110000
          30 138 rlineto
          110 hlineto
          20 102 rlineto
          -107 hlineto
          25 113 rlineto
          106 hlineto
          20 102 rlineto
          -104 61 callsubr
          -105 61 callsubr
          -99 hlineto
          -21 -102 rlineto
          102 hlineto
          -21 -113 rlineto
          -104 hlineto
          -21 -102 rlineto
          107 hlineto
          hintmask 10110000
          -25 -138 rlineto
          57 hlineto
          hintmask 01110000
          30 138 rlineto
          118 hlineto
          hintmask 10110000
          -70 215 rmoveto
          109 hlineto
          -21 -113 rlineto
          -113 hlineto
          endchar
        </CharString>
        <CharString name="o">
          -9 17 callgsubr
          hstemhm
          -14 7 callsubr
          hintmask 11101000
          260 -103 callgsubr
          hintmask 11110000
          -66 callsubr
          endchar
        </CharString>
        <CharString name="o.end">
          39 17 callgsubr
          hstemhm
          -14 149 140 109 -81 81 hintmask 11110000
          257 -41 callgsubr
          hintmask 11101000
          25 11 -15 -42 2 hvcurveto
          hintmask 11110000
          -17 -8 -11 -17 -27 vvcurveto
          -25 8 -14 16 -6 vhcurveto
          -118 -15 -49 -90 -49 hhcurveto
          endchar
        </CharString>
        <CharString name="o_ae">
          641 58 callgsubr
          156 63 hstemhm
          -12 149 137 112 -81 81 45 141 423 77 hintmask 1000111011100000
          259 18 callgsubr
          -65 -240 -115 -114 67 -44 93 127 100 123 194 11 hvcurveto
          47 141 18 86 114 hhcurveto
          50 18 -31 -39 -28 -9 -33 -13 -29 hvcurveto
          2 -11 -15 2 -20 hhcurveto
          -133 -95 -42 -123 hvcurveto
          hintmask 0011011101100000
          -107 65 -24 68 73 38 49 47 25 vhcurveto
          -68 19 55 -28 73 hhcurveto
          136 84 95 90 56 hvcurveto
          -34 hlineto
          hintmask 1001011011100000
          -61 -55 -38 -40 -96 hhcurveto
          -36 -24 17 75 -10 callsubr
          42 -89 -53 -44 -16 -25 -35 vhcurveto
          29 -33 -49 12 -67 hhcurveto
          -131 -44 -98 -49 -120 hvcurveto
          99 -3 -42 52 -83 hhcurveto
          -71 -27 callgsubr
          59 183 71 24 11 -14 -38 3 hvcurveto
          hintmask 0101011101100000
          -18 -7 -13 -18 -28 vvcurveto
          -26 9 -18 18 -4 vhcurveto
          -118 -14 -50 -91 -49 hhcurveto
          807 326 rmoveto
          -12 callsubr
          -296 -184 rmoveto
          -108 -19 -32 -29 -25 hhcurveto
          -18 -33 5 42 hvcurveto
          hintmask 1000111101100000
          61 48 30 59 6 8 0 -1 6 vhcurveto
          endchar
        </CharString>
        <CharString name="o_s">
          338 -4 77 -77 90 -71 -21 141 87 226 61 22 -20 hstemhm
          -14 -81 callsubr
          hintmask 1001111011010000
          548 -91 callgsubr
          endchar
        </CharString>
        <CharString name="o_s.end">
          270 -4 77 -77 90 -71 -21 141 87 226 61 22 -20 hstemhm
          -14 -81 callsubr
          hintmask 1001111011010000
          548 -101 callsubr
          hintmask 1001111101001000
          -96 callsubr
          hintmask 0011111100101000
          -64 callgsubr
          -89 callgsubr
          endchar
        </CharString>
        <CharString name="o_s_x">
          684 -4 77 -77 95 -76 -21 141 87 226 61 -61 108 hstemhm
          -13 -81 callsubr
          274 124 hintmask 1001101011010100
          549 -101 callsubr
          hintmask 1001101101001100
          -96 callsubr
          hintmask 0011101100110100
          -30 callgsubr
          hintmask 0101011101010100
          5 callgsubr
          hintmask 1001101101001100
          -98 callsubr
          hvcurveto
          -74 callgsubr
          -36 -36 -59 -59 -64 vhcurveto
          -27 callsubr
          -141 hlineto
          36 callgsubr
          hintmask 1001101011010100
          66 -10 39 -12 259 vhcurveto
          -510 -445 -55 callgsubr
          59 183 71 25 11 -16 -42 2 hvcurveto
          hintmask 1001101101010100
          -17 -8 -11 -17 -27 vvcurveto
          -25 8 -14 16 -6 vhcurveto
          -117 -15 -49 -90 -49 hhcurveto
          endchar
        </CharString>
        <CharString name="o_s_z">
          691 -20 callsubr
          22 -20 hstemhm
          -14 -81 callsubr
          48 -23 callsubr
          hintmask 100001101101101011000000
          548 -101 callsubr
          hintmask 100001101110100111000000
          -96 callsubr
          hintmask 000011101110010111000000
          -64 callgsubr
          hintmask 000101101110101011000000
          66 -10 39 -12 259 vhcurveto
          321 -440 rmoveto
          -30 callsubr
          -255 -446 rlineto
          265 hlineto
          77 45 61 46 hvcurveto
          hintmask 001000101110101011000000
          -86 callgsubr
          hintmask 010001011101101011000000
          -831 -5 -55 callgsubr
          59 183 71 25 11 -16 -42 2 hvcurveto
          hintmask 010001101110101011000000
          -17 -8 -11 -17 -27 vvcurveto
          -25 8 -14 16 -6 vhcurveto
          -117 -15 -49 -90 -49 hhcurveto
          endchar
        </CharString>
        <CharString name="o_x">
          403 54 callgsubr
          hstemhm
          -15 37 callgsubr
          hintmask 0101010111000000
          259 -22 callsubr
          hintmask 1001011011000000
          -54 callsubr
          -6 callsubr
          hintmask 0010111011000000
          -77 callsubr
          -8 50 38 -7 hvcurveto
          -12 66 rlineto
          102 92 44 64 66 vvcurveto
          -34 callgsubr
          vhcurveto
          hintmask 1001010111000000
          -47 callgsubr
          hintmask 1001011011000000
          28 callsubr
          endchar
        </CharString>
        <CharString name="oacute">
          -15 17 callgsubr
          241 -20 34 callsubr
          hintmask 11110100
          254 -103 callgsubr
          hintmask 11111000
          -66 callsubr
          39 475 -100 callsubr
        </CharString>
        <CharString name="oacute.end">
          39 17 callgsubr
          241 -20 hstemhm
          -13 149 140 109 -81 81 hintmask 11111000
          258 -41 callgsubr
          hintmask 11110100
          25 11 -15 -42 2 hvcurveto
          hintmask 11111000
          -17 -8 -11 -17 -27 vvcurveto
          -25 8 -14 16 -6 vhcurveto
          -118 -15 -49 -90 -49 hhcurveto
          32 475 -100 callsubr
        </CharString>
        <CharString name="oacute_s">
          339 -4 77 -77 90 -71 -21 141 87 226 61 241 -20 hstemhm
          -13 -81 callsubr
          hintmask 1001111011010000
          549 -91 callgsubr
          32 475 -100 callsubr
        </CharString>
        <CharString name="oacute_s.end">
          271 -4 77 -77 90 -71 -21 141 87 226 61 241 -20 hstemhm
          -13 -81 callsubr
          hintmask 1001111011010000
          549 -101 callsubr
          hintmask 1001111101001000
          -96 callsubr
          hintmask 0011111100101000
          -64 callgsubr
          -89 callgsubr
          32 475 -100 callsubr
        </CharString>
        <CharString name="oacute_s_x">
          693 -20 callsubr
          241 -20 hstemhm
          -12 -81 callsubr
          48 -23 callsubr
          hintmask 100001101101101011000000
          550 -101 callsubr
          hintmask 100001101110100111000000
          -96 callsubr
          hintmask 000011101110010111000000
          -64 callgsubr
          hintmask 000101101110101011000000
          66 -10 39 -12 259 vhcurveto
          321 -440 rmoveto
          -30 callsubr
          -255 -446 rlineto
          265 hlineto
          77 45 61 46 hvcurveto
          hintmask 001000101110101011000000
          -86 callgsubr
          hintmask 010001011101101011000000
          -831 -5 -55 callgsubr
          59 183 71 25 11 -16 -42 2 hvcurveto
          hintmask 010001101110101011000000
          -17 -8 -11 -17 -27 vvcurveto
          -25 8 -14 16 -6 vhcurveto
          -117 -15 -49 -90 -49 hhcurveto
          32 475 -100 callsubr
        </CharString>
        <CharString name="oacute_s_z">
          692 -20 callsubr
          241 -20 hstemhm
          -13 -81 callsubr
          48 -23 callsubr
          hintmask 100001101101101011000000
          549 -101 callsubr
          hintmask 100001101110100111000000
          -96 callsubr
          hintmask 000011101110010111000000
          -64 callgsubr
          hintmask 000101101110101011000000
          66 -10 39 -12 259 vhcurveto
          321 -440 rmoveto
          -30 callsubr
          -255 -446 rlineto
          265 hlineto
          77 45 61 46 hvcurveto
          hintmask 001000101110101011000000
          -86 callgsubr
          hintmask 010001011101101011000000
          -831 -5 -55 callgsubr
          59 183 71 25 11 -16 -42 2 hvcurveto
          hintmask 010001101110101011000000
          -17 -8 -11 -17 -27 vvcurveto
          -25 8 -14 16 -6 vhcurveto
          -117 -15 -49 -90 -49 hhcurveto
          32 475 -100 callsubr
        </CharString>
        <CharString name="oacute_x">
          404 54 callgsubr
          194 -20 hstemhm
          -14 37 callgsubr
          hintmask 0101011011100000
          260 -22 callsubr
          hintmask 1001011101100000
          -54 callsubr
          -6 callsubr
          hintmask 0010111101100000
          -77 callsubr
          -8 50 38 -7 hvcurveto
          -12 66 rlineto
          102 92 44 64 66 vvcurveto
          -34 callgsubr
          vhcurveto
          hintmask 1001011011100000
          -47 callgsubr
          hintmask 1001011101100000
          28 callsubr
          32 475 -100 callsubr
        </CharString>
        <CharString name="ocircumflex">
          -15 17 callgsubr
          0 52 189 -20 34 callsubr
          hintmask 11011010
          254 -103 callgsubr
          hintmask 10111100
          -66 callsubr
          208 475 rmoveto
          -60 189 rlineto
          -21 hlineto
          -212 -189 rlineto
          44 hlineto
          157 80 60 -80 rlineto
          endchar
        </CharString>
        <CharString name="odieresis">
          -15 17 callgsubr
          64 122 hstemhm
          -20 149 -24 122 42 113 -97 122 -107 82 hintmask 11110001
          254 -103 callgsubr
          hintmask 11101100
          -66 callsubr
          -75 548 rmoveto
          -105 callgsubr
          hintmask 11110010
          180 hmoveto
          -105 callgsubr
          endchar
        </CharString>
        <CharString name="oe">
          215 -6 78 -78 97 -91 -20 304 225 -58 58 1 -20 hstemhm
          -7 133 470 60 hintmask 10000111
          256 510 rmoveto
          -138 -125 -106 -246 -119 46 -45 107 56 59 31 62 44 hvcurveto
          hintmask 00110011
          -51 21 46 -36 68 hhcurveto
          129 96 101 103 57 hvcurveto
          -45 hlineto
          hintmask 10001011
          -74 -35 -84 -58 -49 hhcurveto
          -39 -43 20 66 12 1 15 2 16 hvcurveto
          95 12 131 70 122 vvcurveto
          70 -46 34 -82 -72 -51 -34 -50 -37 vhcurveto
          hintmask 01000111
          48 -13 -32 37 -67 hhcurveto
          -63 -419 rmoveto
          -39 -28 16 60 hvcurveto
          hintmask 10001011
          80 40 204 94 28 11 -19 -33 3 vhcurveto
          -27 -10 -17 -31 -29 vvcurveto
          hintmask 01010011
          -24 13 -21 29 vhcurveto
          -97 -12 -34 -96 -61 hhcurveto
          403 309 rmoveto
          -1 -71 -65 -79 -92 -1 rrcurveto
          94 21 46 113 56 hhcurveto
          30 5 -35 -21 hvcurveto
          endchar
        </CharString>
        <CharString name="ogonek">
          -157 -193 59 -59 198 hstemhm
          45 83 hintmask 10100000
          122 5 rmoveto
          -50 -39 -27 -44 -37 -54 callgsubr
          hvcurveto
          hintmask 01100000
          40 35 38 29 11 vhcurveto
          endchar
        </CharString>
        <CharString name="ograve">
          -15 17 callgsubr
          52 189 34 callsubr
          hintmask 11110100
          254 -103 callgsubr
          hintmask 11111000
          -66 callsubr
          58 475 -18 callgsubr
          -29 -32 callgsubr
        </CharString>
        <CharString name="one">
          -131 21 -21 624 46 78 -20 hstem
          324 748 rmoveto
          -72 -121 -78 -6 -55 hhcurveto
          -12 -46 rlineto
          95 hlineto
          -132 -624 -58 callsubr
          endchar
        </CharString>
        <CharString name="onehalf">
          227 -144 -21 184 47 314 29 341 -20 hstemhm
          411 64 82 69 -69 84 hintmask 11111010
          470 21 callgsubr
          40 794 -12 callgsubr
          284 -149 -14 callsubr
          0 callsubr
          59 21 -20 63 hhcurveto
          hintmask 11111100
          32 callgsubr
        </CharString>
        <CharString name="onequarter">
          241 -144 -21 315 39 561 -20 hstem
          458 61 vstem
          475 21 callgsubr
          304 315 rmoveto
          -34 -149 rlineto
          83 hlineto
          -31 callsubr
          -128 479 -12 callgsubr
          endchar
        </CharString>
        <CharString name="onesuperior">
          -231 366 -21 404 -20 hstem
          198 749 -12 callgsubr
          endchar
        </CharString>
        <CharString name="ordfeminine">
          -103 467 45 197 30 1 -20 hstemhm
          43 78 hintmask 10110000
          320 740 rmoveto
          -83 hlineto
          -3 -15 rlineto
          hintmask 11010000
          8 -11 -15 6 -13 hhcurveto
          -116 -36 -111 -93 -32 16 -36 55 35 26 21 22 18 hvcurveto
          -24 6 18 -16 34 hhcurveto
          20 24 3 47 16 hvcurveto
          -2 -5 -6 0 -4 hhcurveto
          -16 -5 9 11 6 2 6 1 6 hvcurveto
          hintmask 10110000
          -87 -18 rmoveto
          -15 -11 -12 -11 -13 hhcurveto
          -15 -19 6 32 hvcurveto
          hintmask 11010000
          73 35 86 43 9 11 -2 -8 9 vhcurveto
          endchar
        </CharString>
        <CharString name="ordmasculine">
          -119 466 53 -53 224 24 31 hstemhm
          42 77 85 45 -45 58 hintmask 01111000
          262 671 rmoveto
          15 -5 4 -14 -19 -20 -22 -19 -11 4 -8 11 -3 vhcurveto
          hintmask 10111000
          -49 -6 -17 -59 -36 hhcurveto
          -24 -17 9 32 43 21 111 57 13 8 -7 -12 5 hvcurveto
          12 4 14 6 16 vvcurveto
          14 -27 10 -28 -79 -73 -58 -132 -64 29 -25 62 vhcurveto
          hintmask 10110100
          54 69 57 112 6 hvcurveto
          23 13 10 25 6 19 -6 11 rcurveline
          -13 -14 -5 -9 -15 -9 rrcurveto
          endchar
        </CharString>
        <CharString name="oslash">
          -20 -82 -21 551 60 97 -20 hstemhm
          -14 149 137 111 -80 80 hintmask 11110100
          170 -103 rmoveto
          22 105 103 26 77 112 11 166 rlinecurve
          78 20 75 49 29 42 rrcurveto
          -32 hlineto
          -32 -23 -65 -35 -51 -2 -2 81 -28 50 -56 15 21 102 rcurveline
          -52 hlineto
          -20 -97 rlineto
          -199 -7 -63 -234 -113 vvcurveto
          -112 64 -44 89 -2 vhcurveto
          -21 -99 rlineto
          68 189 -55 callgsubr
          59 183 71 24 11 -14 -38 3 hvcurveto
          hintmask 11111000
          -18 -7 -13 -18 -28 vvcurveto
          -27 10 -14 18 -5 vhcurveto
          -119 -15 -50 -92 -49 hhcurveto
          endchar
        </CharString>
        <CharString name="otilde">
          -15 17 callgsubr
          60 78 -41 74 34 callsubr
          hintmask 11101010
          254 -103 callgsubr
          hintmask 11101100
          -66 callsubr
          255 584 -25 callsubr
          hintmask 11011100
          -80 callgsubr
          hintmask 11101100
          -51 callgsubr
        </CharString>
        <CharString name="p">
          20 -229 -21 244 87 352 72 -72 104 hstemhm
          306 137 hintmask 11011000
          76 537 rmoveto
          -167 -787 151 36 52 244 rlineto
          -19 11 24 -17 50 hhcurveto
          194 52 218 135 hvcurveto
          hintmask 11101000
          119 -54 39 -68 -50 -38 -18 -25 -29 vhcurveto
          hintmask 11011000
          16 75 rlineto
          -54 -456 rmoveto
          -23 -11 12 11 -4 hvcurveto
          59 280 rlineto
          32 19 28 17 22 hhcurveto
          18 32 -6 -77 -94 -35 -175 -105 hvcurveto
          endchar
        </CharString>
        <CharString name="p.salt">
          34 -229 -21 663 91 -91 124 hstemhm
          318 116 hintmask 11010000
          534 282 rmoveto
          -33 -6 -37 -7 -37 -9 rrcurveto
          4 27 3 28 28 vvcurveto
          88 -38 73 -74 -35 -44 -8 -48 -42 vhcurveto
          hintmask 10110000
          19 89 rlineto
          -144 hlineto
          -167 -787 151 36 114 535 rlineto
          50 15 26 42 39 hhcurveto
          48 16 -46 -56 -28 -4 -31 -6 -29 hvcurveto
          -88 -34 -69 -49 -71 vvcurveto
          -47 24 -28 57 77 72 95 118 34 vhcurveto
          37 9 37 6 32 2 rrcurveto
          -309 -138 rmoveto
          25 33 27 47 24 vhcurveto
          -6 -17 rlineto
          -57 -21 -23 -16 -15 hhcurveto
          -9 -6 7 7 hvcurveto
          endchar
        </CharString>
        <CharString name="paragraph">
          94 -60 -21 830 -20 hstem
          422 85 vstem
          239 -81 rmoveto
          77 369 14 3 14 3 15 5 rlinecurve
          -81 -380 rlineto
          94 hlineto
          127 593 rlineto
          5 26 3 24 22 vvcurveto
          121 -85 44 -100 -165 -85 -134 -124 -94 49 -89 101 -20 vhcurveto
          -77 -369 rlineto
          182 420 rmoveto
          72 343 rlineto
          14 -13 9 -19 -31 vvcurveto
          -14 -2 -16 -4 -19 vhcurveto
          -48 -227 rlineto
          -3 -11 -12 -1 -12 hhcurveto
          endchar
        </CharString>
        <CharString name="parenleft">
          -11 39 callsubr
          138 73 vstem
          464 750 rmoveto
          -198 -95 -128 -294 -261 vvcurveto
          -136 35 -128 78 -86 vhcurveto
          33 29 rlineto
          -51 75 -22 105 114 vvcurveto
          260 117 303 149 74 vhcurveto
          endchar
        </CharString>
        <CharString name="parenright">
          -35 39 callsubr
          237 73 vstem
          -16 -250 rmoveto
          198 95 128 293 262 vvcurveto
          136 -35 128 -78 86 vhcurveto
          -33 -29 rlineto
          51 -75 22 -106 -113 vvcurveto
          -261 -117 -302 -149 -74 vhcurveto
          endchar
        </CharString>
        <CharString name="percent">
          196 48 callsubr
          107 72 112 60 4 67 109 78 vstem
          579 -78 callsubr
          endchar
        </CharString>
        <CharString name="period">
          -185 -4 159 hstem
          31 159 vstem
          31 75 rmoveto
          -102 callsubr
          endchar
        </CharString>
        <CharString name="periodcentered">
          -13 callgsubr
        </CharString>
        <CharString name="perthousand">
          463 48 callsubr
          90 72 112 60 4 67 109 78 34 67 109 78 vstem
          562 -78 callsubr
          381 183 rmoveto
          -100 -62 -96 -118 -72 18 -42 78 116 42 130 85 73 -34 40 -58 hvcurveto
          -93 -183 rmoveto
          97 8 43 49 28 hhcurveto
          21 7 -33 -35 -101 -29 -85 -53 -22 -5 33 32 16 1 15 1 12 hvcurveto
          endchar
        </CharString>
        <CharString name="plus">
          67 82 63 callgsubr
          hintmask 00100000
          345 439 rmoveto
          -113 hlineto
          hintmask 10000000
          -27 -122 rlineto
          -128 hlineto
          hintmask 01000000
          -24 -112 rlineto
          128 hlineto
          hintmask 10000000
          -27 -123 rlineto
          113 hlineto
          hintmask 01000000
          44 callsubr
          endchar
        </CharString>
        <CharString name="plusminus">
          85 68 79 39 63 callgsubr
          hintmask 10010000
          375 543 rmoveto
          -113 hlineto
          hintmask 11000000
          -27 -122 rlineto
          -128 hlineto
          hintmask 10100000
          -24 -112 rlineto
          128 hlineto
          hintmask 11000000
          -27 -123 rlineto
          113 hlineto
          hintmask 10100000
          44 callsubr
          hintmask 10010000
          68 -274 rmoveto
          -367 hlineto
          -18 -79 rlineto
          368 hlineto
          endchar
        </CharString>
        <CharString name="q">
          38 -229 -21 244 71 callsubr
          10 callsubr
          vstem
          335 -26 callgsubr
          -10 -48 rlineto
          31 -99 callgsubr
          51 39 24 31 29 vhcurveto
          -63 -299 151 36 152 714 rlineto
          -204 -57 rmoveto
          29 10 -22 -12 2 hvcurveto
          -53 -247 rlineto
          -47 -16 -36 -24 -26 -17 callsubr
          endchar
        </CharString>
        <CharString name="question">
          -7 0 159 296 245 -54 54 hstemhm
          55 111 -111 152 -88 47 135 124 hintmask 11010010
          425 579 rmoveto
          67 -23 54 -137 -151 -59 -93 -68 -56 37 -28 39 28 28 14 28 17 vhcurveto
          -28 8 -10 35 23 vvcurveto
          hintmask 10100110
          50 42 33 38 29 26 -20 -49 vhcurveto
          -152 -182 -52 -141 vvcurveto
          66 hlineto
          49 149 191 5 193 vvcurveto
          hintmask 11001010
          -218 -499 28 callgsubr
        </CharString>
        <CharString name="questiondown">
          -9 -247 54 -54 245 295 160 hstemhm
          12 125 94 152 -111 47 -47 111 hintmask 01110010
          12 -128 rmoveto
          -62 34 -57 127 151 59 93 68 56 -37 28 -39 -28 -28 -14 -28 -17 vhcurveto
          28 -8 10 -35 -23 vvcurveto
          hintmask 10110100
          -50 -42 -33 -38 -29 -26 20 49 vhcurveto
          152 182 52 141 vvcurveto
          -66 hlineto
          -64 -152 -177 -11 -186 vvcurveto
          hintmask 10111000
          219 -26 callgsubr
          -44 35 -35 44 44 36 35 44 45 -36 36 -44 -44 -35 -36 -45 vhcurveto
          endchar
        </CharString>
        <CharString name="quotedbl">
          -28 561 189 hstem
          62 62 callgsubr
          96 -189 -18 callgsubr
          91 -32 callgsubr
        </CharString>
        <CharString name="quotedblbase">
          61 -67 52 callsubr
          76 76 -56 callsubr
        </CharString>
        <CharString name="quotedblleft">
          37 callsubr
          433 678 rmoveto
          -49 callsubr
          -220 hmoveto
          -49 callsubr
          endchar
        </CharString>
        <CharString name="quotedblright">
          37 callsubr
          76 678 -56 callsubr
        </CharString>
        <CharString name="quoteleft">
          48 callgsubr
          221 678 rmoveto
          -49 callsubr
          endchar
        </CharString>
        <CharString name="quoteright">
          48 callgsubr
          84 678 -16 callgsubr
          endchar
        </CharString>
        <CharString name="quotesinglbase">
          -165 -67 31 callsubr
          vstem
          76 76 -16 callgsubr
          endchar
        </CharString>
        <CharString name="quotesingle">
          -180 561 189 hstem
          102 62 callgsubr
          endchar
        </CharString>
        <CharString name="r">
          -72 21 -21 418 82 hstemhm
          68 -26 callgsubr
          -8 callgsubr
          80 380 rlineto
          23 25 18 15 30 hhcurveto
          hintmask 11000000
          13 callgsubr
        </CharString>
        <CharString name="r_x">
          336 -29 104 -81 97 -91 -20 372 148 -82 82 -47 103 hstemhm
          334 122 189 124 hintmask 10010011
          422 -26 callgsubr
          58 -260 rlineto
          -73 -47 -73 -85 -66 vvcurveto
          -54 callsubr
          hintmask 01000111
          -130 29 27 -55 73 hhcurveto
          54 92 22 -45 callsubr
          -77 callsubr
          -6 50 38 -9 hvcurveto
          -15 64 rlineto
          105 93 44 64 67 vvcurveto
          -77 callgsubr
          -39 -38 -48 -64 -58 vhcurveto
          hintmask 00110011
          -45 202 rlineto
          -495 hmoveto
          -8 callgsubr
          80 380 rlineto
          hintmask 10001011
          23 25 18 15 30 hhcurveto
          13 callgsubr
        </CharString>
        <CharString name="r_z">
          206 0 65 -65 77 -77 155 197 148 -82 82 -57 57 hstemhm
          513 100 hintmask 10001010
          259 418 rmoveto
          hintmask 10010010
          30 -28 -66 56 hhcurveto
          45 26 34 42 hvcurveto
          hintmask 10000110
          5 0 5 -1 5 vhcurveto
          93 hlineto
          -254 -443 rlineto
          265 hlineto
          77 45 61 46 hvcurveto
          hintmask 00110010
          -86 callgsubr
          hintmask 10010010
          -20 -4 -12 -6 -16 hhcurveto
          hintmask 01010010
          -29 -25 12 -37 hhcurveto
          245 423 rlineto
          -334 hlineto
          -48 -38 -32 -30 -35 hvcurveto
          13 62 rlineto
          -144 hlineto
          -8 callgsubr
          80 380 rlineto
          hintmask 10001010
          23 25 18 15 30 hhcurveto
          endchar
        </CharString>
        <CharString name="registered">
          105 79 42 194 38 89 41 64 43 hstem
          34 46 96 46 123 46 84 43 vstem
          276 79 -44 callsubr
          96 -142 rmoveto
          46 123 66 hlineto
          62 -125 47 7 -65 125 rlineto
          35 10 24 30 37 vvcurveto
          54 -50 30 -70 vhcurveto
          -94 hlineto
          45 -41 rmoveto
          50 hlineto
          33 40 -10 -35 -37 -42 -7 -29 hvcurveto
          -52 hlineto
          endchar
        </CharString>
        <CharString name="ring">
          -292 552 35 93 33 hstem
          0 40 80 37 vstem
          85 713 -55 callsubr
        </CharString>
        <CharString name="s">
          -66 -6 79 0 57 401 -20 -53 callgsubr
          hintmask 10110001
          382 179 rmoveto
          -19 -16 -26 -18 -27 -16 rrcurveto
          3 12 1 12 14 vvcurveto
          hintmask 10110100
          -69 callgsubr
          46 27 55 38 52 60 rrcurveto
          hintmask 10101100
          35 callsubr
          hintmask 01110010
          -71 callsubr
          hintmask 10101100
          26 18 25 24 hvcurveto
          endchar
        </CharString>
        <CharString name="s.end">
          -132 -6 79 0 57 401 -20 -53 callgsubr
          hintmask 10110001
          -4 callsubr
          hintmask 10101100
          66 -10 39 -12 259 vhcurveto
          -200 -352 45 callsubr
          hintmask 01110010
          -71 callsubr
          hintmask 10101100
          26 18 25 24 hvcurveto
          endchar
        </CharString>
        <CharString name="s_x">
          279 -6 79 -79 97 362 103 -53 callgsubr
          274 124 hintmask 1011000110000000
          378 -26 callgsubr
          56 -305 -34 -30 -50 -26 -41 -17 rlinecurve
          3 14 2 15 16 vvcurveto
          hintmask 1011010010000000
          -69 callgsubr
          41 22 77 27 55 39 rrcurveto
          -104 23 30 -44 66 hhcurveto
          54 95 22 -45 callsubr
          hintmask 0110110010000000
          -106 callgsubr
          -27 callsubr
          -427 -321 45 callsubr
          hintmask 1011001010000000
          -71 callsubr
          hintmask 1010110010000000
          26 18 25 24 hvcurveto
          endchar
        </CharString>
        <CharString name="s_z">
          296 -6 77 -77 161 -155 -20 466 54 31 -20 -53 callgsubr
          57 -23 callsubr
          hintmask 1001110001110000
          -4 callsubr
          hintmask 1001110100110000
          66 -10 39 -12 259 vhcurveto
          330 -440 rmoveto
          -30 callsubr
          hintmask 0011110100110000
          -255 -446 rlineto
          265 hlineto
          77 45 61 46 hvcurveto
          hintmask 0101101100110000
          -86 callgsubr
          -530 88 45 callsubr
          hintmask 1001110010110000
          -71 callsubr
          hintmask 1001101100110000
          26 18 25 24 hvcurveto
          endchar
        </CharString>
        <CharString name="sacute">
          -66 -82 callgsubr
          121 382 -100 callsubr
        </CharString>
        <CharString name="scaron">
          -79 -82 callgsubr
          46 571 rmoveto
          60 -189 rlineto
          21 hlineto
          212 189 rlineto
          -44 hlineto
          -157 -80 -60 80 rlineto
          endchar
        </CharString>
        <CharString name="section">
          94 -54 50 578 176 -37 37 hstemhm
          8 94 -18 106 -7 125 -44 44 -44 126 13 103 -48 48 -48 67 hintmask 1011010000100000
          525 655 rmoveto
          88 -93 7 -37 -101 -111 -54 -119 -15 2 -14 3 -13 vhcurveto
          hintmask 1100100110000000
          -60 -23 -44 -50 -64 -129 180 -13 -163 vvcurveto
          -68 -31 -29 -49 vhcurveto
          hintmask 1101010010000000
          -59 -23 26 52 50 22 21 59 5 hvcurveto
          22 -17 -22 28 -40 hhcurveto
          -54 -42 -50 -73 -117 106 -14 59 hvcurveto
          hintmask 1101000101000000
          136 81 72 118 hvcurveto
          74 15 42 76 76 vvcurveto
          hintmask 1011010000100000
          165 -198 14 124 vvcurveto
          56 40 51 54 39 17 -26 -28 -26 -14 -30 -22 -13 vhcurveto
          hintmask 1101010000100000
          -13 12 13 -3 12 hhcurveto
          41 25 35 46 hvcurveto
          hintmask 1100101010000000
          -122 -409 rmoveto
          -25 -7 -23 -12 -15 vhcurveto
          -32 139 -162 46 83 vvcurveto
          19 8 10 11 6 vhcurveto
          59 -90 135 -34 -116 vvcurveto
          endchar
        </CharString>
        <CharString name="semicolon">
          -172 -89 -21 281 81 0 159 hstemhm
          54 139 -99 159 -147 87 hintmask 10101000
          94 331 rmoveto
          -102 callsubr
          -48 -240 rmoveto
          -33 21 -23 26 -17 vhcurveto
          hintmask 11000100
          9 -6 4 -7 -7 vvcurveto
          hintmask 11010000
          1 callsubr
        </CharString>
        <CharString name="seven">
          16 21 -21 663 87 hstem
          33 146 vstem
          512 750 rmoveto
          -328 hlineto
          -98 -38 -35 -65 -17 3 -20 5 -21 hvcurveto
          50 45 75 21 87 hhcurveto
          27 29 -2 -4 29 hvcurveto
          -168 -194 -147 -175 -163 vvcurveto
          -102 43 -23 60 42 38 7 32 12 vhcurveto
          -36 30 -13 27 40 vvcurveto
          36 10 43 22 50 vhcurveto
          28 65 221 343 52 77 rrcurveto
          endchar
        </CharString>
        <CharString name="six">
          49 -5 78 308 82 137 150 -60 60 hstemhm
          17 132 217 115 -65 65 hintmask 11011100
          225 305 rmoveto
          47 23 28 29 37 hhcurveto
          43 10 -56 -41 -107 -73 -104 -64 -47 -33 10 99 21 2 25 3 30 hvcurveto
          416 43 146 16 23 hhcurveto
          hintmask 11101010
          29 21 -27 -27 -13 -5 -13 -11 -10 hvcurveto
          61 3 28 31 33 vvcurveto
          40 -40 43 -75 -222 -115 -219 -301 -20 vhcurveto
          -1 -13 0 -12 -12 vvcurveto
          -106 35 -92 160 143 127 129 174 78 -40 87 -95 -76 -65 -42 -58 -18 6 -20 14 -20 vhcurveto
          endchar
        </CharString>
        <CharString name="slash">
          -137 39 callsubr
          295 17 callsubr
          -212 -1000 rlineto
          72 hlineto
          endchar
        </CharString>
        <CharString name="space">
          -231 endchar
        </CharString>
        <CharString name="sterling">
          17 21 -21 322 78 350 -20 hstem
          420 423 -25 callsubr
          -32 -25 10 9 -28 hvcurveto
          80 331 -150 -31 -72 -295 -46 -14 -37 -30 -22 -45 rlinecurve
          6 -2 rlineto
          17 18 22 9 26 6 6 -1 5 hhcurveto
          -86 -358 rlineto
          295 hlineto
          54 40 62 96 10 hvcurveto
          -108 -80 -56 22 -70 -9 56 231 rcurveline
          16 hlineto
          76 74 53 47 11 hvcurveto
          endchar
        </CharString>
        <CharString name="t">
          -6 97 369 40 158 -20 71 callgsubr
          vstem
          98 638 rmoveto
          -1 callgsubr
          -60 -281 rlineto
          -5 -24 -38 callsubr
          -84 -86 callsubr
          -63 callgsubr
          64 300 rlineto
          60 -7 callgsubr
          -60 hlineto
          34 158 rlineto
          endchar
        </CharString>
        <CharString name="t.end">
          -172 15 -21 466 40 158 -20 hstem
          -6 145 vstem
          -49 callgsubr
          endchar
        </CharString>
        <CharString name="t_x">
          183 -6 97 362 47 -47 103 102 -20 hstemhm
          -7 144 355 124 hintmask 10111100
          1 179 rmoveto
          30 callsubr
          95 59 callsubr
          95 22 -106 callsubr
          hintmask 11011100
          -27 callsubr
          -210 hlineto
          34 158 -148 -20 -1 callgsubr
          144 hmoveto
          84 hlineto
          51 -275 rlineto
          -55 -44 -65 -38 -50 hhcurveto
          -26 -18 11 25 -89 callsubr
          endchar
        </CharString>
        <CharString name="t_z">
          256 0 71 -71 -5 callsubr
          -54 54 -40 40 158 -20 hstemhm
          -6 145 192 -23 callsubr
          hintmask 0010011111000000
          -49 callgsubr
          438 -69 rmoveto
          hintmask 1001001111000000
          -107 callgsubr
          hintmask 1000101111000000
          -102 callgsubr
          hintmask 0101001111000000
          -3 callgsubr
        </CharString>
        <CharString name="thorn">
          25 -229 -21 244 87 352 72 195 -20 hstem
          76 128 102 137 vstem
          -92 -250 rmoveto
          151 36 52 245 rlineto
          -19 10 24 -18 52 hhcurveto
          194 52 218 135 119 -54 39 -68 -52 -40 -20 -26 -29 hvcurveto
          3 18 1 16 15 vvcurveto
          113 -61 43 -65 36 vhcurveto
          -45 hlineto
          30 -40 13 -36 -46 vvcurveto
          -26 -4 -31 -8 -36 vhcurveto
          102 -404 rmoveto
          -24 -11 13 12 -4 hvcurveto
          59 275 rlineto
          34 18 30 18 22 hhcurveto
          18 32 -6 -77 -94 -35 -175 -105 hvcurveto
          endchar
        </CharString>
        <CharString name="three">
          66 -5 65 197 51 204 237 -54 54 hstemhm
          6 111 -12 110 117 155 -117 117 hintmask 11101001
          205 257 rmoveto
          38 -8 -33 13 -37 hhcurveto
          -80 -41 -60 -83 -154 141 -16 58 171 111 136 121 71 -38 65 -88 29 hvcurveto
          92 46 45 74 66 vvcurveto
          78 -63 68 -123 vhcurveto
          hintmask 11100110
          -116 -91 -61 -91 -54 32 -31 40 24 27 11 23 25 hvcurveto
          -28 8 -10 36 27 vvcurveto
          hintmask 11011001
          47 31 31 48 51 25 -36 -46 -70 -58 -94 -113 -31 vhcurveto
          hintmask 11101010
          93 -33 40 -80 -76 vvcurveto
          -87 -53 -82 -86 -37 -39 13 76 40 10 62 78 6 vhcurveto
          endchar
        </CharString>
        <CharString name="threequarters">
          371 -144 -21 166 188 -39 39 33 69 callsubr
          121 -20 hstemhm
          61 65 -7 64 65 91 -67 67 238 61 hintmask 1011010110101000
          591 21 callgsubr
          307 315 rmoveto
          hintmask 1101010110101000
          -34 -149 rlineto
          83 hlineto
          hintmask 1010110110011000
          -31 callsubr
          -316 214 -15 callgsubr
          hintmask 1101010101101000
          -87 -38 -2 callsubr
          hvcurveto
          -16 4 -6 20 13 vvcurveto
          hintmask 1101001110011000
          42 callsubr
          hintmask 1101010110101000
          20 callgsubr
        </CharString>
        <CharString name="threesuperior">
          -132 342 69 callsubr
          hstemhm
          13 65 -7 64 65 91 -67 67 hintmask 01101001
          129 484 -15 callgsubr
          hintmask 10100110
          -87 -38 -2 callsubr
          hvcurveto
          -16 4 -6 20 13 vvcurveto
          hintmask 10011001
          42 callsubr
          hintmask 10101010
          20 callgsubr
        </CharString>
        <CharString name="tilde">
          -45 569 78 -41 74 hstemhm
          hintmask 10000000
          433 670 -25 callsubr
          hintmask 01000000
          -80 callgsubr
          hintmask 10000000
          -51 callgsubr
        </CharString>
        <CharString name="trademark">
          -69 433 221 -35 35 -22 22 4 -20 hstemhm
          -23 28 208 45 hintmask 10001100
          333 433 rmoveto
          38 221 rlineto
          -47 hlineto
          -66 -174 rlineto
          169 vlineto
          -41 -6 -68 -210 rlineto
          24 hlineto
          40 131 rlineto
          -131 41 vlineto
          63 156 -27 -156 rlineto
          -183 195 rmoveto
          hintmask 01001100
          -3 22 21 -6 16 hhcurveto
          hintmask 00011100
          17 6 27 12 2 hvcurveto
          -4 -9 -13 -1 -15 -29 -34 5 -12 hhcurveto
          -74 -28 -38 -40 -21 11 -8 21 hvcurveto
          -1 3 -3 2 15 vvcurveto
          hintmask 00101100
          47 26 13 34 1 vhcurveto
          hintmask 10001100
          -43 -199 rlineto
          43 hlineto
          endchar
        </CharString>
        <CharString name="two">
          44 -11 125 -89 89 -89 107 380 237 -54 54 hstemhm
          66 110 142 119 -119 144 hintmask 00110101
          111 132 rmoveto
          -5 hlineto
          83 135 273 98 223 vvcurveto
          97 -53 64 -137 -151 -55 -79 -68 -58 31 -32 41 24 26 11 23 26 vhcurveto
          -28 8 -10 37 23 vvcurveto
          hintmask 01001110
          50 14 31 67 29 32 -33 -49 vhcurveto
          -266 -329 -98 -219 vvcurveto
          -11 0 -11 2 -11 vhcurveto
          7 20 36 21 23 hhcurveto
          hintmask 10010110
          102 37 -36 109 hhcurveto
          99 20 52 98 14 0 14 -1 16 hvcurveto
          -44 -47 -17 -25 -70 hhcurveto
          hintmask 00110110
          -75 -57 18 -59 hhcurveto
          endchar
        </CharString>
        <CharString name="twosuperior">
          -148 339 67 -47 47 215 128 -29 29 hstemhm
          48 64 82 69 -69 84 hintmask 10101010
          75 416 -14 callsubr
          hintmask 01011100
          0 callsubr
          hhcurveto
          hintmask 10101100
          59 21 -20 63 hhcurveto
          32 callgsubr
        </CharString>
        <CharString name="u">
          57 -6 97 409 -20 hstem
          -8 145 vstem
          315 -39 callsubr
          -22 -8 18 23 9 1 9 2 10 hvcurveto
          -85 callsubr
          -144 hlineto
          -36 callsubr
          42 56 13 82 50 vhcurveto
          -62 6 36 -33 57 hhcurveto
          54 90 22 -45 callsubr
          -50 -15 -27 -38 -39 2 callsubr
          endchar
        </CharString>
        <CharString name="u.end">
          11 -6 97 409 -20 hstem
          -8 145 vstem
          68 500 rmoveto
          -68 -321 rlineto
          -88 callsubr
          endchar
        </CharString>
        <CharString name="u_v">
          475 -14 callgsubr
          435 105 57 callsubr
          358 144 140 121 -58 58 hintmask 10111100
          -46 callsubr
          34 44 9 48 43 vhcurveto
          hintmask 01111100
          -11 -51 rlineto
          143 hlineto
          106 500 rlineto
          -143 hlineto
          -68 -321 rlineto
          hintmask 10111100
          -18 callsubr
          624 20 rmoveto
          -33 -24 -28 -21 -28 13 -28 29 hvcurveto
          hintmask 10111010
          6 9 2 2 6 hvcurveto
          -16 vlineto
          -113 -77 -199 -88 -29 -9 13 19 11 3 12 3 14 vhcurveto
          73 340 rlineto
          -176 hlineto
          -8 -41 26 -13 -59 -286 rlineto
          -4 -19 -2 -17 -15 vvcurveto
          -75 47 -40 77 202 79 280 156 52 -21 38 -43 vhcurveto
          endchar
        </CharString>
        <CharString name="u_x">
          430 -6 97 362 103 hstem
          -8 145 602 124 vstem
          -15 callsubr
          -95 23 30 -39 63 hhcurveto
          54 95 22 163 57 hvcurveto
          -42 hlineto
          -50 -15 -36 -38 -39 hhcurveto
          -44 -8 50 38 -7 hvcurveto
          -9 50 rlineto
          98 104 45 69 65 vvcurveto
          -93 callsubr
          -144 hlineto
          12 callsubr
          endchar
        </CharString>
        <CharString name="u_x.end">
          415 -14 callgsubr
          473 103 57 callsubr
          602 124 hintmask 10111000
          -15 callsubr
          hintmask 01111000
          -94 23 30 -34 63 hhcurveto
          54 51 26 71 5 hvcurveto
          hintmask 10111000
          25 callgsubr
          -93 callsubr
          -144 hlineto
          12 callsubr
          endchar
        </CharString>
        <CharString name="uacute">
          57 -6 97 659 -20 hstem
          -8 145 vstem
          315 -39 callsubr
          -22 -8 18 23 9 1 9 2 10 hvcurveto
          -85 callsubr
          -144 hlineto
          -36 callsubr
          42 56 13 82 50 vhcurveto
          -62 6 36 -33 57 hhcurveto
          54 90 22 -45 callsubr
          -50 -15 -27 -38 -39 2 callsubr
          -220 61 -100 callsubr
        </CharString>
        <CharString name="uacute.end">
          11 -6 97 659 -20 hstem
          -8 145 vstem
          68 500 rmoveto
          -68 -321 rlineto
          -88 callsubr
          7 61 -100 callsubr
        </CharString>
        <CharString name="ucircumflex">
          57 -6 97 409 61 189 -20 hstem
          -8 145 vstem
          315 -39 callsubr
          -22 -8 18 23 9 1 9 2 10 hvcurveto
          -85 callsubr
          -144 hlineto
          -36 callsubr
          42 56 13 82 50 vhcurveto
          -62 6 36 -33 57 hhcurveto
          54 90 22 -45 callsubr
          -50 -15 -27 -38 -39 2 callsubr
          -40 61 rmoveto
          -60 189 rlineto
          -21 hlineto
          -212 -189 rlineto
          44 hlineto
          157 80 60 -80 rlineto
          endchar
        </CharString>
        <CharString name="udieresis">
          57 -6 97 482 122 57 callsubr
          -1 8 callsubr
          hintmask 11101000
          315 -39 callsubr
          -22 -8 18 23 9 1 9 2 10 hvcurveto
          -85 callsubr
          -144 hlineto
          -36 callsubr
          42 56 13 82 50 vhcurveto
          -62 6 36 -33 57 hhcurveto
          54 90 22 -45 callsubr
          -50 -15 -27 -38 -39 2 callsubr
          hintmask 11011000
          -323 134 rmoveto
          -105 callgsubr
          180 hmoveto
          -105 callgsubr
          endchar
        </CharString>
        <CharString name="ugrave">
          57 -6 97 470 189 hstem
          -8 145 vstem
          315 -39 callsubr
          -22 -8 18 23 9 1 9 2 10 hvcurveto
          -85 callsubr
          -144 hlineto
          -36 callsubr
          42 56 13 82 50 vhcurveto
          -62 6 36 -33 57 hhcurveto
          54 90 22 -45 callsubr
          -50 -15 -27 -38 -39 2 callsubr
          -215 61 -18 callgsubr
          -29 -32 callgsubr
        </CharString>
        <CharString name="underscore">
          -4 0 79 hstem
          404 79 -5 callgsubr
        </CharString>
        <CharString name="uni00AD">
          20 callsubr
        </CharString>
        <CharString name="v">
          -34 -6 97 324 105 hstemhm
          -9 144 139 125 -57 57 hintmask 11110000
          336 520 rmoveto
          -42 -20 -23 -31 -22 12 -29 24 hvcurveto
          hintmask 11101000
          8 21 3 7 3 hvcurveto
          -110 -75 -224 -98 -24 -10 13 20 9 2 13 3 14 vhcurveto
          -85 callsubr
          -144 hlineto
          -72 -340 rlineto
          -4 -19 -1 -18 -11 vvcurveto
          -79 47 -39 76 58 callsubr
          vhcurveto
          endchar
        </CharString>
        <CharString name="w">
          213 -6 97 324 105 57 callsubr
          384 125 -57 57 hintmask 11110000
          -46 callsubr
          40 53 12 72 49 vhcurveto
          -56 12 43 -28 65 hhcurveto
          58 callsubr
          -42 -20 -23 -31 -22 12 -29 24 hvcurveto
          hintmask 11101000
          8 21 3 7 3 hvcurveto
          -110 -75 -224 -98 -24 -10 13 20 9 2 13 3 14 vhcurveto
          -85 callsubr
          -144 hlineto
          12 callsubr
          endchar
        </CharString>
        <CharString name="x">
          74 35 callgsubr
          361 248 rmoveto
          93 102 46 53 63 25 callsubr
          -30 -45 -55 -62 -9 76 rcurveline
          hintmask 01101000
          51 -6 -22 -34 callsubr
          43 -52 59 hhcurveto
          58 92 30 155 54 hvcurveto
          -42 hlineto
          -50 -15 -36 -38 -39 hhcurveto
          -35 -19 22 65 -8 hvcurveto
          endchar
        </CharString>
        <CharString name="x.end">
          52 35 callgsubr
          366 254 rmoveto
          90 98 44 52 62 25 callsubr
          -29 -43 -53 -61 -12 73 rcurveline
          hintmask 01101000
          51 -9 -19 -34 callsubr
          39 -52 59 hhcurveto
          55 58 30 73 5 hvcurveto
          -4 -11 -7 -2 -19 hhcurveto
          -35 -12 22 65 -11 hvcurveto
          endchar
        </CharString>
        <CharString name="y">
          38 9 callgsubr
          97 409 -82 callsubr
          endchar
        </CharString>
        <CharString name="y.end">
          12 -250 89 155 97 409 -20 hstemhm
          -8 101 -101 145 -99 55 hintmask 11101000
          -46 callsubr
          34 45 9 49 43 vhcurveto
          -10 -44 rlineto
          hintmask 11100100
          -95 -83 callsubr
          -68 -321 rlineto
          -50 -15 -26 -38 -39 hhcurveto
          hintmask 11101000
          -87 callsubr
          hintmask 11110000
          -119 -628 14 callsubr
        </CharString>
        <CharString name="y_p">
          506 9 callgsubr
          82 -82 97 342 67 -67 104 57 callsubr
          -93 55 693 137 hintmask 11001101
          562 47 callsubr
          hintmask 10110101
          98 459 rlineto
          -144 hlineto
          -70 -327 rlineto
          -47 -15 -26 -35 -37 -57 callgsubr
          hintmask 11001011
          41 callgsubr
          47 42 vhcurveto
          -11 -49 rlineto
          -41 callsubr
          -11 callsubr
          -553 -215 -61 callgsubr
        </CharString>
        <CharString name="y_x">
          423 -250 78 167 96 362 103 57 callsubr
          -93 55 633 124 hintmask 11110100
          315 500 rmoveto
          -68 -321 rlineto
          -50 -15 -26 -38 -39 -57 callgsubr
          hintmask 11101100
          -84 47 -35 60 34 44 8 48 43 vhcurveto
          -13 -58 rlineto
          -75 -35 callsubr
          -96 22 30 -40 64 hhcurveto
          54 95 21 -106 callsubr
          -27 callsubr
          -141 hlineto
          5 callsubr
          -360 -639 rmoveto
          41 47 26 51 19 vhcurveto
          -6 4 callgsubr
        </CharString>
        <CharString name="y_z">
          440 -10 callgsubr
          hstemhm
          -8 101 -101 145 -99 55 422 -23 callsubr
          hintmask 1100100101100000
          -46 callsubr
          34 45 9 49 43 vhcurveto
          -10 -44 rlineto
          hintmask 1010100011100000
          -95 -83 callsubr
          -68 -321 rlineto
          -50 -15 -26 -38 -39 hhcurveto
          hintmask 1010100101100000
          -87 callsubr
          554 -409 rmoveto
          hintmask 1100101001100000
          -107 callgsubr
          hintmask 1100011001100000
          -102 callgsubr
          hintmask 1001101001100000
          -40 callsubr
          hintmask 1010101001100000
          -11 6 -9 13 -1 vhcurveto
          -673 -219 14 callsubr
        </CharString>
        <CharString name="yacute">
          57 9 callgsubr
          97 659 -82 callsubr
          139 700 -100 callsubr
        </CharString>
        <CharString name="ydieresis">
          57 9 callgsubr
          97 482 122 57 callsubr
          -93 55 24 8 callsubr
          hintmask 11101110
          315 -26 callgsubr
          -70 -327 rlineto
          -47 -15 -26 -35 -37 hhcurveto
          hintmask 11110010
          -87 callsubr
          -144 hlineto
          -11 callgsubr
          hintmask 11101110
          -90 callsubr
          24 773 rmoveto
          -105 callgsubr
          180 hmoveto
          -105 callgsubr
          endchar
        </CharString>
        <CharString name="yen">
          26 0 192 -50 50 65 50 443 -20 hstemhm
          hintmask 10110000
          314 307 rmoveto
          196 443 rlineto
          -66 hlineto
          -150 -361 -88 361 rlineto
          -164 hlineto
          112 -443 rlineto
          -96 hlineto
          -14 -50 rlineto
          99 hlineto
          -14 -65 rlineto
          -96 hlineto
          hintmask 01110000
          -14 -50 rlineto
          99 hlineto
          hintmask 10110000
          -30 -142 rlineto
          160 hlineto
          hintmask 01110000
          30 142 rlineto
          128 hlineto
          14 50 rlineto
          -131 hlineto
          14 65 rlineto
          128 hlineto
          14 50 rlineto
          endchar
        </CharString>
        <CharString name="z">
          -20 0 71 -71 -28 callsubr
          hstemhm
          55 -23 callsubr
          hintmask 10101100
          306 91 rmoveto
          -107 callgsubr
          hintmask 10011100
          -102 callgsubr
          hintmask 01101100
          -3 callgsubr
        </CharString>
        <CharString name="zacute">
          -20 0 71 -71 -28 callsubr
          250 -20 hstemhm
          55 -23 callsubr
          hintmask 10101110
          306 91 rmoveto
          -107 callgsubr
          hintmask 10011110
          -102 callgsubr
          hintmask 01101110
          -86 callgsubr
          -73 470 -100 callsubr
        </CharString>
        <CharString name="zcaron">
          -20 0 71 -71 -28 callsubr
          250 -20 hstemhm
          55 -23 callsubr
          hintmask 10101110
          306 91 rmoveto
          -107 callgsubr
          hintmask 10011110
          -102 callgsubr
          hintmask 01101110
          -86 callgsubr
          -119 659 rmoveto
          60 -189 rlineto
          21 hlineto
          212 189 rlineto
          -44 hlineto
          -157 -80 -60 80 rlineto
          endchar
        </CharString>
        <CharString name="zdotaccent">
          -20 0 71 -71 -28 callsubr
          73 122 hstemhm
          55 100 64 122 -54 100 hintmask 10101110
          341 634 rmoveto
          33 -28 28 -33 -34 -27 -28 -33 -34 27 -27 34 33 28 27 34 vhcurveto
          -35 -543 rmoveto
          -107 callgsubr
          hintmask 10011101
          -102 callgsubr
          hintmask 01101101
          -3 callgsubr
        </CharString>
        <CharString name="zero">
          98 -9 84 623 52 hstem
          30 158 236 131 vstem
          377 750 rmoveto
          -215 -132 -223 -273 -166 35 -97 172 205 113 299 199 168 -53 93 -125 hvcurveto
          -189 -425 rmoveto
          225 17 105 148 60 hhcurveto
          47 7 -63 -82 -232 -68 -246 -114 -48 -11 77 74 37 3 35 2 27 hvcurveto
          endchar
        </CharString>
      <CharString index="0">
        -16 -3 -20 -4 -24 hhcurveto
        -27 -32 5 1 -17 hvcurveto
        245 423 rlineto
        -257 hlineto
        -71 -45 -60 -41 -29 23 -15 23 26 28 16 37 hvcurveto
        23 -11 -6 5 vvcurveto
        return
      </CharString>
      <CharString index="1">
        -77 callsubr
        -8 50 38 -7 hvcurveto
        -9 50 rlineto
        98 104 45 69 65 vvcurveto
        -96 callgsubr
        return
      </CharString>
      <CharString index="2">
        -34 27 -27 34 33 28 27 34 33 -28 28 -33 -34 -27 -28 -33 vhcurveto
        return
      </CharString>
      <CharString index="3">
        vstem
        620 748 rmoveto
        -67 -309 rlineto
        -327 -71 -37 -21 -85 hhcurveto
        -50 -19 33 57 84 42 135 93 345 hvcurveto
        4 -21 -10 1 -17 hhcurveto
        -194 -184 -124 -141 -67 41 -25 66 hvcurveto
        -1 9 -13 7 53 vvcurveto
        120 68 81 109 29 vhcurveto
        -33 -132 rlineto
        -42 -169 -40 -140 -99 vvcurveto
        -101 49 -58 144 225 58 139 304 64 vhcurveto
        66 312 rlineto
        return
      </CharString>
      <CharString index="4">
        18 callgsubr
        -68 -240 -115 -114 67 -44 93 123 100 116 185 16 hvcurveto
        73 12 66 30 38 41 -9 27 rcurveline
        -30 -43 -65 -30 -46 hhcurveto
        -3 -4 0 2 -4 hvcurveto
        105 -42 55 -86 vhcurveto
        -74 -27 callgsubr
        62 183 71 26 10 -16 -42 2 hvcurveto
        return
      </CharString>
      <CharString index="5">
        66 callgsubr
        -255 -446 rlineto
        265 hlineto
        77 45 61 46 hvcurveto
        return
      </CharString>
      <CharString index="6">
        157 736 rlineto
        10 -24 -32 4 -23 hhcurveto
        -117 -130 -135 -160 -101 hvcurveto
        2 -21 -17 1 -14 hhcurveto
        -118 -86 -55 -68 -39 28 -19 34 31 25 15 24 14 -8 17 -5 hvcurveto
        return
      </CharString>
      <CharString index="7">
        hvcurveto
        -85 callsubr
        -205 64 callsubr
        -48 -226 rlineto
        -58 -12 -42 -30 -29 -17 callsubr
        return
      </CharString>
      <CharString index="8">
        -24 22 -57 -174 -83 -215 -135 -119 65 -42 68 return
      </CharString>
      <CharString index="9">
        vlineto
        29 -99 callgsubr
        return
      </CharString>
      <CharString index="10">
        135 162 rmoveto
        12 1 14 1 14 42 callgsubr
        89 115 -37 callsubr
        -17 callgsubr
        vhcurveto
        -34 hlineto
        -57 -50 -48 -44 -79 hhcurveto
        -48 -24 16 68 hvcurveto
        155 253 rmoveto
        -83 -68 -77 -77 -5 vhcurveto
        99 20 49 107 51 -24 callsubr
        return
      </CharString>
      <CharString index="11">
        -77 callgsubr
        -36 -36 -59 -59 -64 vhcurveto
        return
      </CharString>
      <CharString index="12">
        -154 -128 -25 callgsubr
        -59 -12 -27 -9 callgsubr
        685 808 rmoveto
        36 -90 -85 33 -90 hhcurveto
        -65 -87 -87 callgsubr
        66 86 27 143 30 57 callgsubr
        93 -7 callgsubr
        -93 -64 callsubr
        -104 -491 rlineto
        -5 -24 -38 callsubr
        -84 -31 callgsubr
        54 return
      </CharString>
      <CharString index="13">
        336 -99 callsubr
        71 return
      </CharString>
      <CharString index="14">
        -23 -88 -42 -84 vvcurveto
        -65 51 -32 61 66 84 -60 callgsubr
        15 72 62 17 76 38 39 132 rlinecurve
        -42 hlineto
        -28 -87 -37 -34 -61 -22 99 464 rcurveline
        return
      </CharString>
      <CharString index="15">
        -28 19 -20 25 -15 vhcurveto
        8 -5 4 -6 -6 vvcurveto
        -49 -70 rlineto
        -5 2 -5 7 -4 vhcurveto
        76 49 45 67 52 vvcurveto
        38 -23 28 -41 -41 -32 -32 -38 vhcurveto
        return
      </CharString>
      <CharString index="16">
        -101 callsubr
        hintmask 1001111101001000
        -96 callsubr
        hintmask 0011111100101000
        -91 callsubr
        54 59 18 50 34 hvcurveto
        43 27 49 36 47 54 rrcurveto
        -42 hlineto
        -19 -15 -25 -19 -27 -15 rrcurveto
        2 11 1 13 13 vvcurveto
        -89 callgsubr
        return
      </CharString>
      <CharString index="17">
        rmoveto
        41 38 21 60 97 -99 18 -80 -86 -109 -31 -184 -39 hvcurveto
        -111 -526 rlineto
        -86 -26 -87 -31 -89 vvcurveto
        -69 51 -43 73 63 84 32 138 29 57 callgsubr
        80 -7 callgsubr
        -80 hlineto
        17 82 rlineto
        return
      </CharString>
      <CharString index="18">
        hintmask 0101111011010000
        66 -10 39 -12 259 vhcurveto
        -510 -445 -55 callgsubr
        59 183 71 25 11 -16 -42 2 hvcurveto
        hintmask 0101111101010000
        -17 -8 -11 -17 -27 vvcurveto
        -25 8 -14 16 -6 vhcurveto
        -117 -15 -49 -90 -49 hhcurveto
        return
      </CharString>
      <CharString index="19">
        279 356 rmoveto
        -8 12 12 -4 11 hhcurveto
        29 24 24 49 46 -22 46 -89 -203 -66 -240 -116 -17 callgsubr
        hvcurveto
        -34 hlineto
        -57 -50 -48 -44 -79 hhcurveto
        -48 -24 16 68 hvcurveto
        return
      </CharString>
      <CharString index="20">
        -27 -143 -30 hvcurveto
        -120 9 callsubr
        -78 -29 -92 -42 callgsubr
        return
      </CharString>
      <CharString index="21">
        27 -14 21 -30 -37 -19 -25 -18 -11 6 -9 13 -1 vhcurveto
        return
      </CharString>
      <CharString index="22">
        hvcurveto
        -80 callsubr
        return
      </CharString>
      <CharString index="23">
        122 -21 80 190 66 214 221 -47 47 250 -20 hstemhm
        27 118 7 110 -110 143 62 163 -59 83 hintmask 1101111001000000
        544 630 rmoveto
        110 -114 10 -47 -129 -102 -75 -104 vhcurveto
        hintmask 1110111010000000
        -147 205 -61 -171 vvcurveto
        -84 -49 -49 -67 -64 -32 46 50 69 63 25 54 vhcurveto
        52 -3 -50 14 -35 hhcurveto
        -70 -77 -56 -108 -122 98 -50 114 145 136 82 168 hvcurveto
        hintmask 1101110101000000
        216 -225 20 147 vvcurveto
        60 37 31 55 55 19 -32 -35 -33 -18 -37 -27 -16 vhcurveto
        hintmask 1110111001000000
        -15 13 15 -6 18 hhcurveto
        50 32 43 58 hvcurveto
        return
      </CharString>
      <CharString index="24">
        570 748 rmoveto
        -109 -542 -79 530 rlineto
        14 -29 -34 0 -30 hhcurveto
        -172 -111 -146 -114 -72 38 -25 69 -85 callgsubr
        106 52 76 87 36 vhcurveto
        -144 -679 -58 callsubr
        111 523 85 -523 rlineto
        121 hlineto
        159 748 rlineto
        return
      </CharString>
      <CharString index="25">
        -6 79 677 -20 -53 callgsubr
        hintmask 11100010
        382 179 rmoveto
        -19 -16 -26 -18 -27 -16 rrcurveto
        3 12 1 12 14 vvcurveto
        hintmask 11101000
        -69 callgsubr
        46 27 55 38 52 60 rrcurveto
        hintmask 11011000
        35 callsubr
        hintmask 11100100
        -71 callsubr
        hintmask 11011000
        26 18 25 24 hvcurveto
        return
      </CharString>
      <CharString index="26">
        -26 callsubr
        4 callsubr
        -121 9 callsubr
        -77 7 callgsubr
        83 -60 callgsubr
        50 callsubr
        return
      </CharString>
      <CharString index="27">
        -58 -34 33 -73 hhcurveto
        -76 -59 -34 -64 -32 hvcurveto
        6 -2 rlineto
        17 18 22 9 26 hhcurveto
        return
      </CharString>
      <CharString index="28">
        -19 14 16 -8 17 hhcurveto
        40 34 44 60 82 -64 43 -79 -128 -91 -112 -103 -45 18 -44 43 -31 hvcurveto
        return
      </CharString>
      <CharString index="29">
        vstem
        438 hmoveto
        66 308 194 437 rlineto
        -66 hlineto
        -148 -355 -87 358 -70 callsubr
        96 -375 -66 -308 rlineto
        return
      </CharString>
      <CharString index="30">
        -34 callgsubr
        -98 callsubr
        vhcurveto
        -74 callgsubr
        return
      </CharString>
      <CharString index="31">
        50 15 27 43 39 hhcurveto
        22 8 -22 -22 -9 -1 -8 -2 -8 hvcurveto
        -73 -345 29 callsubr
        42 36 hhcurveto
        24 12 -18 -33 hvcurveto
        return
      </CharString>
      <CharString index="32">
        -75 -93 callgsubr
        return
      </CharString>
      <CharString index="33">
        1 -4 0 -4 -4 vvcurveto
        return
      </CharString>
      <CharString index="34">
        rmoveto
        -18 -13 -44 -4 -47 -33 -37 2 -26 hhcurveto
        345 685 rlineto
        -343 hlineto
        -80 -43 -54 -50 -28 13 -31 38 24 35 13 44 24 -10 8 -7 hvcurveto
        return
      </CharString>
      <CharString index="35">
        172 rmoveto
        9 1 11 1 10 42 callgsubr
        88 116 -37 callsubr
        -3 callsubr
        vhcurveto
        -28 -32 -48 -25 -38 hhcurveto
        -35 -27 20 63 hvcurveto
        return
      </CharString>
      <CharString index="36">
        -62 -46 -71 -38 -78 hhcurveto
        -96 -24 64 92 204 98 263 110 45 16 -29 -32 -38 -22 -42 -24 -12 hvcurveto
        return
      </CharString>
      <CharString index="37">
        -22 19 22 -4 16 hhcurveto
        51 19 39 53 97 -73 37 -94 -262 -87 -339 -181 -180 71 -66 148 91 141 52 134 53 hvcurveto
        return
      </CharString>
      <CharString index="38">
        66 -10 39 -12 259 vhcurveto
        -148 -20 -31 -98 -36 -99 -56 -99 rlinecurve
        -27 -13 -26 -34 -46 vvcurveto
        -61 44 -67 102 51 64 16 44 42 vhcurveto
        return
      </CharString>
      <CharString index="39">
        -72 19 -29 57 58 vvcurveto
        70 43 71 59 27 28 -15 -41 -34 -19 -45 -25 -8 vhcurveto
        return
      </CharString>
      <CharString index="40">
        -38 -39 hhcurveto
        -28 -13 9 -24 callgsubr
        return
      </CharString>
      <CharString index="41">
        -76 -93 callgsubr
        -133 134 rmoveto
        -102 callsubr
        -227 -773 -61 callgsubr
      </CharString>
      <CharString index="42">
        -19 -21 -58 callgsubr
        endchar
      </CharString>
      <CharString index="43">
        -91 callsubr
        82 94 43 130 hvcurveto
        return
      </CharString>
      <CharString index="44">
        -50 -15 -36 -67 callgsubr
        return
      </CharString>
      <CharString index="45">
        62 -11 -39 24 -53 hhcurveto
        -35 -45 -9 -48 -42 hvcurveto
        -33 callgsubr
        return
      </CharString>
      <CharString index="46">
        -84 callsubr
        endchar
      </CharString>
      <CharString index="47">
        27 143 30 vhcurveto
        return
      </CharString>
      <CharString index="48">
        -5 -24 -38 callsubr
        -84 -31 callgsubr
        54 51 32 -28 callgsubr
        return
      </CharString>
      <CharString index="49">
        hhcurveto
        -22 -18 19 14 hvcurveto
        return
      </CharString>
      <CharString index="50">
        -57 callsubr
        -144 hlineto
        -11 callgsubr
        return
      </CharString>
      <CharString index="51">
        49 -49 124 24 145 -123 return
      </CharString>
      <CharString index="52">
        rmoveto
        -38 -13 15 66 98 return
      </CharString>
      <CharString index="53">
        vvcurveto
        -35 24 -43 55 52 32 39 23 25 vhcurveto
        12 1 7 1 12 vhcurveto
        -13 -20 -24 -21 -24 hhcurveto
        -28 -11 28 22 return
      </CharString>
      <CharString index="54">
        hstemhm
        -32 53 -53 124 58 142 8 callgsubr
        return
      </CharString>
      <CharString index="55">
        -5 -21 -2 -19 -17 vvcurveto
        -80 48 -48 92 196 68 188 121 9 vhcurveto
        58 20 53 45 47 70 rrcurveto
        return
      </CharString>
      <CharString index="56">
        55 47 -37 66 hhcurveto
        76 74 53 47 11 hvcurveto
        endchar
      </CharString>
      <CharString index="57">
        -6 71 callsubr
        -62 113 hstemhm
        24 callsubr
        625 124 hintmask 11011000
        336 -99 callsubr
        72 47 47 47 31 vhcurveto
        -59 10 49 -35 36 callsubr
        return
      </CharString>
      <CharString index="58">
        208 460 rmoveto
        60 -7 callgsubr
        -60 hlineto
        19 90 15 68 0 vvcurveto
        -148 -20 -1 callgsubr
        -64 -300 rlineto
        -4 -18 -2 -18 -17 vvcurveto
        -64 30 -49 70 34 44 12 86 28 vhcurveto
        -3 -8 -11 0 -7 hhcurveto
        -27 -8 15 21 11 2 12 3 12 hvcurveto
        return
      </CharString>
      <CharString index="59">
        220 -93 -21 114 -20 297 181 -59 59 return
      </CharString>
</ttFont>
